<?xml version="1.0" encoding="UTF-8"?>
<svg xmlns="http://www.w3.org/2000/svg" version="1.1" viewBox="0 0 1000 1000" width="76.2mm" height="76.2mm">
<g id="thread-black-base" fill="#080b0c">
<path id="smooth-border" fill-rule="evenodd" d="M 500 10 A 490 490 0 1 0 500 990 A 490 490 0 1 0 500 10 Z M 500 58 A 442 442 0 1 1 500 942 A 442 442 0 1 1 500 58 Z"/>
<polygon id="tail-outline" points="675,420 838,470 890,585 820,735 680,700 630,575"/>
<polygon id="body-outline-base" points="500,170 560,205 605,240 675,230 745,300 720,380 770,470 800,610 755,750 650,850 500,898 350,850 245,750 200,610 230,470 280,382 255,300 325,230 395,240 440,205"/>
<polygon id="muzzle-outline-base" points="325,368 675,368 730,460 708,608 630,688 370,688 292,608 270,460"/>
<polygon id="belly-outline-base" points="380,665 620,665 690,780 640,872 500,905 360,872 310,780"/>
<rect id="left-foot-outline" x="260" y="760" width="110" height="88"/>
<rect id="right-foot-outline" x="630" y="760" width="110" height="88"/>
<rect id="left-paw-outline" x="205" y="555" width="95" height="90"/>
<rect id="right-paw-outline" x="700" y="555" width="95" height="90"/>
</g>
<g id="thread-dark-brown" fill="#5a3a2a">
<polygon id="tail-fill" points="702,455 815,492 852,585 795,695 700,670 660,575"/>
</g>
<g id="thread-tail-cream-stripe" fill="#f6dfaa">
<polygon id="tail-stripe" points="720,535 812,565 792,610 696,582"/>
</g>
<g id="thread-brown" fill="#b86f21">
<polygon id="body-fill" points="500,220 548,245 590,278 658,272 700,315 678,380 725,472 752,610 710,725 620,805 500,850 380,805 290,725 248,610 275,472 322,392 300,315 342,272 410,278 452,245"/>
<polygon id="left-ear-fill" points="330,262 398,272 432,318 408,368 340,382 300,338"/>
<polygon id="right-ear-fill" points="602,272 670,262 700,338 660,382 592,368 568,318"/>
<polygon id="top-tuft-fill" points="462,255 500,188 538,255"/>
<rect id="left-paw-fill" x="226" y="576" width="54" height="46"/>
<rect id="right-paw-fill" x="720" y="576" width="54" height="46"/>
<rect id="left-foot-fill" x="282" y="780" width="66" height="42"/>
<rect id="right-foot-fill" x="652" y="780" width="66" height="42"/>
</g>
<g id="thread-cream" fill="#f6dfaa">
<polygon id="muzzle-fill" points="342,402 658,402 696,468 678,585 610,650 390,650 322,585 304,468"/>
<polygon id="belly-fill" points="402,700 598,700 650,780 612,840 500,868 388,840 350,780"/>
<polygon id="left-ear-inner" points="345,292 390,300 408,328 386,350 342,342 320,316"/>
<polygon id="right-ear-inner" points="610,300 655,292 680,316 658,342 614,350 592,328"/>
</g>
<g id="thread-white" fill="#f8f3e7">
<rect id="left-tooth" x="428" y="552" width="52" height="96"/>
<rect id="right-tooth" x="520" y="552" width="52" height="96"/>
<rect id="left-eye-glint" x="370" y="438" width="18" height="18"/>
<rect id="right-eye-glint" x="612" y="438" width="18" height="18"/>
</g>
<g id="thread-red" fill="#d94a32">
<rect id="red-nose" x="430" y="490" width="140" height="70" rx="10" ry="10"/>
</g>
<g id="thread-black-details" fill="#080b0c">
<rect id="left-eye" x="350" y="420" width="56" height="86" rx="8" ry="8"/>
<rect id="right-eye" x="594" y="420" width="56" height="86" rx="8" ry="8"/>
<path id="nose-mouth-outline" fill-rule="evenodd" d="M 420 480 L 580 480 L 580 570 L 545 570 L 545 650 L 455 650 L 455 570 L 420 570 Z M 448 510 L 552 510 L 552 545 L 448 545 Z"/>
<rect id="tooth-divider" x="496" y="552" width="8" height="96"/>
<rect id="mouth-bottom" x="454" y="650" width="92" height="18"/>
<rect id="left-cheek-pixel" x="286" y="500" width="42" height="34"/>
<rect id="right-cheek-pixel" x="672" y="500" width="42" height="34"/>
<rect id="tuft-base" x="470" y="250" width="60" height="18"/>
</g>
</svg>
