<?xml version="1.0" encoding="UTF-8"?>
<!-- Generator: visioncortex VTracer 0.6.12 -->
<svg version="1.1" xmlns="http://www.w3.org/2000/svg" width="76.2mm" height="76.2mm" viewBox="0 0 1254 1254">
<path d="M0 0 C1.05 0 2.11 0 3.19 0 C20.81 0.03 38.26 0.51 55.81 2.19 C57.12 2.31 58.43 2.43 59.78 2.56 C142.39 10.57 222.69 35.58 317.81 88.19 C318.65 88.7 319.49 89.21 320.36 89.74 C344.69 104.69 368.04 121.17 389.89 139.57 C391.7 141.09 393.52 142.61 395.34 144.12 C402.19 149.84 408.82 155.77 415.35 161.84 C416.76 163.14 418.18 164.41 419.6 165.69 C425.95 171.41 432.07 177.34 438.12 183.38 C438.88 184.12 439.63 184.87 440.41 185.64 C444.51 189.75 448.44 193.96 452.22 198.35 C454.48 200.96 456.84 203.47 459.19 206 C463.42 210.59 467.47 215.3 471.38 220.17 C473.17 222.39 474.98 224.6 476.8 226.8 C530.03 291.13 569.01 368.63 613 611.38 C613 612.43 613 613.48 613 614.57 C612.97 632.19 612.49 649.64 610.81 667.19 C610.69 668.5 610.57 669.8 610.44 671.15 C602.43 753.77 577.42 834.06 524.81 929.19 C524.3 930.03 523.79 930.87 523.26 931.73 C508.31 956.07 491.83 979.42 473.43 1001.26 C471.91 1003.07 470.39 1004.89 468.88 1006.71 C463.16 1013.56 457.23 1020.19 451.16 1026.73 C449.86 1028.13 448.59 1029.55 447.31 1030.97 C441.59 1037.32 435.66 1043.44 429.62 1049.5 C428.88 1050.25 428.13 1051.01 427.36 1051.78 C423.25 1055.88 419.04 1059.81 414.65 1063.6 C412.04 1065.86 409.53 1068.21 407 1070.56 C402.41 1074.8 397.7 1078.84 392.83 1082.76 C390.61 1084.55 388.4 1086.35 386.2 1088.18 C321.87 1141.4 244.37 1180.38 1.62 1224.38 C0.57 1224.37 -0.48 1224.37 -1.57 1224.37 C-19.19 1224.35 -36.64 1223.87 -54.19 1222.19 C-55.5 1222.06 -56.8 1221.94 -58.15 1221.81 C-140.77 1213.81 -221.06 1188.79 -316.19 1136.19 C-316.61 1135.93 -316.61 1135.93 -318.73 1134.63 C-343.07 1119.69 -366.42 1103.21 -388.26 1084.81 C-390.07 1083.28 -391.89 1081.77 -393.71 1080.25 C-400.56 1074.53 -407.19 1068.6 -413.73 1062.53 C-415.13 1061.24 -416.55 1059.96 -417.97 1058.68 C-424.32 1052.96 -430.44 1047.03 -436.5 1041 C-436.88 1040.63 -436.88 1040.63 -438.78 1038.73 C-442.88 1034.62 -446.81 1030.42 -450.6 1026.02 C-452.86 1023.41 -455.21 1020.9 -457.56 1018.38 C-461.8 1013.78 -465.84 1009.08 -469.76 1004.21 C-471.55 1001.98 -473.35 999.77 -475.18 997.57 C-528.4 933.24 -567.38 855.74 -611.38 613 C-611.37 611.95 -611.37 610.89 -611.37 609.81 C-611.35 592.19 -610.87 574.74 -609.19 557.19 C-609.06 555.88 -608.94 554.57 -608.81 553.22 C-600.81 470.61 -575.79 390.31 -523.19 295.19 C-522.67 294.35 -522.16 293.51 -521.63 292.64 C-506.69 268.31 -490.21 244.96 -471.81 223.11 C-470.28 221.3 -468.77 219.48 -467.25 217.66 C-461.53 210.81 -455.6 204.18 -449.53 197.65 C-448.24 196.24 -446.96 194.82 -445.68 193.4 C-439.96 187.05 -434.03 180.93 -428 174.88 C-427.25 174.12 -426.5 173.37 -425.73 172.59 C-421.62 168.49 -417.42 164.56 -413.02 160.78 C-410.41 158.52 -407.9 156.16 -405.38 153.81 C-400.78 149.58 -396.08 145.53 -391.21 141.62 C-388.98 139.83 -386.77 138.02 -384.57 136.2 C-320.24 82.97 -242.74 43.99 0 0 Z " fill="#0D0F0E" transform="translate(626.1875,14.8125)"/>
<path d="M0 0 C0.58 -0 0.58 -0 3.52 -0 C22.97 0.02 42.17 0.73 61.49 3.01 C63.58 3.25 65.66 3.49 67.74 3.72 C101.43 7.58 135.32 14.74 167.56 25.25 C168.51 25.56 169.46 25.86 170.43 26.18 C179.21 29.02 187.93 31.97 196.56 35.25 C197.64 35.65 198.72 36.05 199.84 36.46 C205.64 38.64 211.2 40.98 216.71 43.84 C219.52 45.23 222.37 46.49 225.25 47.74 C261.24 63.35 294.86 83.2 326.56 106.25 C327.23 106.73 327.89 107.22 328.58 107.71 C342.27 117.72 355.55 128.31 367.97 139.87 C369.34 141.12 370.71 142.37 372.12 143.57 C378.93 149.35 385.18 155.68 391.49 161.99 C393.49 163.99 395.49 165.97 397.5 167.96 C403.92 174.36 410.09 180.76 415.69 187.9 C417.69 190.41 419.82 192.77 422 195.12 C426.7 200.3 430.96 205.76 435.14 211.35 C436.12 212.66 437.1 213.96 438.08 215.25 C454.04 236.3 468.47 258.32 481.56 281.25 C482.35 282.62 483.15 283.99 483.94 285.36 C486.2 289.3 488.39 293.26 490.56 297.25 C491.01 298.07 491.46 298.89 491.92 299.73 C502.14 318.61 511.77 338.09 518.62 358.47 C519.52 361.11 520.51 363.67 521.56 366.25 C523.66 371.4 525.5 376.64 527.34 381.89 C528.34 384.64 529.41 387.31 530.56 390 C533.32 396.77 535.04 403.86 536.92 410.91 C537.52 413.11 538.16 415.29 538.82 417.46 C541.9 427.84 544 438.29 545.86 448.95 C545.96 449.5 545.96 449.5 546.45 452.29 C546.53 452.78 546.53 452.78 546.96 455.26 C547.56 458.25 547.56 458.25 548.57 461.68 C549.56 465.23 550.13 468.63 550.6 472.29 C550.77 473.59 550.94 474.89 551.11 476.24 C551.28 477.6 551.45 478.95 551.62 480.31 C551.97 482.99 552.31 485.67 552.66 488.35 C552.81 489.53 552.96 490.71 553.11 491.93 C553.41 494.1 553.73 496.27 554.1 498.43 C554.48 500.76 554.73 502.99 554.84 505.34 C554.88 506.06 554.92 506.78 554.96 507.53 C555.03 509.01 555.1 510.49 555.17 511.97 C555.21 512.69 555.24 513.41 555.28 514.16 C555.31 514.8 555.34 515.44 555.37 516.1 C555.56 518.25 555.56 518.25 556.05 521.07 C558.3 534.94 557.76 549.37 557.75 563.38 C557.75 564.44 557.75 565.5 557.75 566.59 C557.72 583.89 557.19 601.01 555.56 618.25 C555.44 619.66 555.31 621.08 555.19 622.5 C553.1 646.06 549.43 669.11 544.56 692.25 C544.3 693.5 544.04 694.75 543.77 696.04 C540.78 710.19 536.97 723.89 532.42 737.62 C530.99 742.01 529.73 746.44 528.44 750.88 C526.27 758.23 523.66 765.23 520.56 772.25 C520.05 773.58 519.55 774.91 519.06 776.25 C501.14 824.97 474.05 871.62 442.06 912.34 C440.62 914.18 439.19 916.03 437.77 917.88 C423.09 936.9 406.63 954.26 389.69 971.25 C389.15 971.79 388.61 972.34 388.05 972.89 C382.07 978.9 376.03 984.77 369.56 990.25 C368.48 991.2 367.4 992.15 366.32 993.1 C357.98 1000.37 349.33 1007.12 340.5 1013.77 C338.83 1015.05 337.18 1016.35 335.54 1017.66 C319.38 1030.55 301.51 1042.01 283.56 1052.25 C282.94 1052.61 282.32 1052.97 281.67 1053.34 C273.92 1057.79 266.08 1062.09 258.19 1066.31 C257.46 1066.71 256.72 1067.1 255.97 1067.51 C250.8 1070.25 250.8 1070.25 248.56 1070.25 C248.56 1057.05 248.56 1043.85 248.56 1030.25 C244.27 1030.25 239.98 1030.25 235.56 1030.25 C235.56 1021.34 235.56 1012.43 235.56 1003.25 C230.28 1003.25 225 1003.25 219.56 1003.25 C219.56 997.97 219.56 992.69 219.56 987.25 C214.94 987.25 210.32 987.25 205.56 987.25 C205.56 981.31 205.56 975.37 205.56 969.25 C201.27 969.25 196.98 969.25 192.56 969.25 C192.56 962.98 192.56 956.71 192.56 950.25 C186.29 950.25 180.02 950.25 173.56 950.25 C173.56 944.64 173.56 939.03 173.56 933.25 C170.92 933.25 168.28 933.25 165.56 933.25 C165.56 930.28 165.56 927.31 165.56 924.25 C156.98 924.25 148.4 924.25 139.56 924.25 C139.56 916 139.56 907.75 139.56 899.25 C146.82 899.25 154.08 899.25 161.56 899.25 C161.56 893.31 161.56 887.37 161.56 881.25 C166.84 881.25 172.12 881.25 177.56 881.25 C177.56 876.3 177.56 871.35 177.56 866.25 C182.51 866.25 187.46 866.25 192.56 866.25 C192.56 861.63 192.56 857.01 192.56 852.25 C198.17 852.25 203.78 852.25 209.56 852.25 C209.56 846.64 209.56 841.03 209.56 835.25 C215.17 835.25 220.78 835.25 226.56 835.25 C226.56 827 226.56 818.75 226.56 810.25 C233.16 810.25 239.76 810.25 246.56 810.25 C246.5 800.31 246.5 800.31 246.47 797.18 C246.47 796.77 246.47 796.77 246.46 794.72 C246.46 793.89 246.45 793.06 246.45 792.2 C246.56 790.25 246.56 790.25 247.56 789.25 C249.2 789.16 250.84 789.14 252.47 789.15 C253.46 789.16 254.45 789.16 255.47 789.16 C256.51 789.17 257.55 789.18 258.62 789.19 C259.15 789.19 259.15 789.19 261.79 789.2 C264.38 789.21 266.97 789.23 269.56 789.25 C269.56 782.98 269.56 776.71 269.56 770.25 C278.8 770.25 288.04 770.25 297.56 770.25 C297.56 764.31 297.56 758.37 297.56 752.25 C304.16 752.25 310.76 752.25 317.56 752.25 C317.56 746.64 317.56 741.03 317.56 735.25 C323.83 735.25 330.1 735.25 336.56 735.25 C336.56 729.64 336.56 724.03 336.56 718.25 C342.83 718.25 349.1 718.25 355.56 718.25 C355.56 709.34 355.56 700.43 355.56 691.25 C367.77 691.25 379.98 691.25 392.56 691.25 C392.56 684.65 392.56 678.05 392.56 671.25 C398.83 671.25 405.1 671.25 411.56 671.25 C411.56 664.98 411.56 658.71 411.56 652.25 C417.83 652.25 424.1 652.25 430.56 652.25 C430.56 638.39 430.56 624.53 430.56 610.25 C424.62 610.25 418.68 610.25 412.56 610.25 C412.56 603.98 412.56 597.71 412.56 591.25 C405.63 591.25 398.7 591.25 391.56 591.25 C391.56 584.98 391.56 578.71 391.56 572.25 C367.14 572.25 342.72 572.25 317.56 572.25 C317.56 566.97 317.56 561.69 317.56 556.25 C324.82 556.25 332.08 556.25 339.56 556.25 C339.56 550.31 339.56 544.37 339.56 538.25 C346.49 538.25 353.42 538.25 360.56 538.25 C360.56 532.31 360.56 526.37 360.56 520.25 C372.11 520.25 383.66 520.25 395.56 520.25 C395.56 513.32 395.56 506.39 395.56 499.25 C408.43 499.25 421.3 499.25 434.56 499.25 C434.56 492.98 434.56 486.71 434.56 480.25 C441.49 480.25 448.42 480.25 455.56 480.25 C455.56 472.33 455.56 464.41 455.56 456.25 C461.83 456.25 468.1 456.25 474.56 456.25 C474.56 440.41 474.56 424.57 474.56 408.25 C480.83 408.25 487.1 408.25 493.56 408.25 C493.56 378.22 493.56 348.19 493.56 317.25 C487.29 317.25 481.02 317.25 474.56 317.25 C474.56 309.66 474.56 302.07 474.56 294.25 C468.29 294.25 462.02 294.25 455.56 294.25 C455.56 282.04 455.56 269.83 455.56 257.25 C449.62 257.25 443.68 257.25 437.56 257.25 C437.56 250.65 437.56 244.05 437.56 237.25 C423.04 237.25 408.52 237.25 393.56 237.25 C393.56 243.52 393.56 249.79 393.56 256.25 C387.95 256.58 382.34 256.91 376.56 257.25 C376.23 300.15 375.9 343.05 375.56 387.25 C370.61 387.25 365.66 387.25 360.56 387.25 C360.56 332.47 360.56 277.69 360.56 221.25 C353.96 221.25 347.36 221.25 340.56 221.25 C340.56 214.65 340.56 208.05 340.56 201.25 C321.09 201.25 301.62 201.25 281.56 201.25 C281.56 207.85 281.56 214.45 281.56 221.25 C275.62 221.25 269.68 221.25 263.56 221.25 C263.56 244.68 263.56 268.11 263.56 292.25 C260.92 292.25 258.28 292.25 255.56 292.25 C255.56 273.11 255.56 253.97 255.56 234.25 C248.96 234.25 242.36 234.25 235.56 234.25 C235.56 226.66 235.56 219.07 235.56 211.25 C227.97 211.25 220.38 211.25 212.56 211.25 C212.56 204.32 212.56 197.39 212.56 190.25 C195.73 190.25 178.9 190.25 161.56 190.25 C161.56 183.32 161.56 176.39 161.56 169.25 C54.64 169.25 -52.28 169.25 -162.44 169.25 C-162.44 176.18 -162.44 183.11 -162.44 190.25 C-179.27 190.25 -196.1 190.25 -213.44 190.25 C-213.44 196.85 -213.44 203.45 -213.44 210.25 C-220.7 210.25 -227.96 210.25 -235.44 210.25 C-235.44 218.17 -235.44 226.09 -235.44 234.25 C-242.04 234.25 -248.64 234.25 -255.44 234.25 C-255.44 253.39 -255.44 272.53 -255.44 292.25 C-258.41 292.25 -261.38 292.25 -264.44 292.25 C-264.44 268.82 -264.44 245.39 -264.44 221.25 C-270.38 221.25 -276.32 221.25 -282.44 221.25 C-282.44 214.98 -282.44 208.71 -282.44 202.25 C-302.24 202.25 -322.04 202.25 -342.44 202.25 C-342.44 208.52 -342.44 214.79 -342.44 221.25 C-348.71 221.25 -354.98 221.25 -361.44 221.25 C-361.44 276.03 -361.44 330.81 -361.44 387.25 C-366.39 387.25 -371.34 387.25 -376.44 387.25 C-376.44 344.35 -376.44 301.45 -376.44 257.25 C-382.38 257.25 -388.32 257.25 -394.44 257.25 C-394.44 250.65 -394.44 244.05 -394.44 237.25 C-408.63 237.25 -422.82 237.25 -437.44 237.25 C-437.44 243.52 -437.44 249.79 -437.44 256.25 C-443.38 256.25 -449.32 256.25 -455.44 256.25 C-455.44 268.79 -455.44 281.33 -455.44 294.25 C-462.04 294.25 -468.64 294.25 -475.44 294.25 C-475.44 301.84 -475.44 309.43 -475.44 317.25 C-481.38 317.25 -487.32 317.25 -493.44 317.25 C-493.44 347.28 -493.44 377.31 -493.44 408.25 C-487.5 408.25 -481.56 408.25 -475.44 408.25 C-475.44 424.09 -475.44 439.93 -475.44 456.25 C-469.17 456.25 -462.9 456.25 -456.44 456.25 C-456.44 464.17 -456.44 472.09 -456.44 480.25 C-449.51 480.25 -442.58 480.25 -435.44 480.25 C-435.44 486.85 -435.44 493.45 -435.44 500.25 C-422.57 500.25 -409.7 500.25 -396.44 500.25 C-396.44 506.85 -396.44 513.45 -396.44 520.25 C-384.89 520.25 -373.34 520.25 -361.44 520.25 C-361.44 526.19 -361.44 532.13 -361.44 538.25 C-354.84 538.25 -348.24 538.25 -341.44 538.25 C-341.44 544.52 -341.44 550.79 -341.44 557.25 C-334.18 557.25 -326.92 557.25 -319.44 557.25 C-319.44 562.2 -319.44 567.15 -319.44 572.25 C-343.86 572.25 -368.28 572.25 -393.44 572.25 C-393.44 578.52 -393.44 584.79 -393.44 591.25 C-400.04 591.25 -406.64 591.25 -413.44 591.25 C-413.44 597.52 -413.44 603.79 -413.44 610.25 C-419.71 610.25 -425.98 610.25 -432.44 610.25 C-432.44 624.11 -432.44 637.97 -432.44 652.25 C-426.17 652.25 -419.9 652.25 -413.44 652.25 C-413.44 658.52 -413.44 664.79 -413.44 671.25 C-407.17 671.25 -400.9 671.25 -394.44 671.25 C-394.44 677.85 -394.44 684.45 -394.44 691.25 C-382.23 691.25 -370.02 691.25 -357.44 691.25 C-357.44 700.16 -357.44 709.07 -357.44 718.25 C-351.17 718.25 -344.9 718.25 -338.44 718.25 C-338.44 723.86 -338.44 729.47 -338.44 735.25 C-332.17 735.25 -325.9 735.25 -319.44 735.25 C-319.44 740.86 -319.44 746.47 -319.44 752.25 C-312.84 752.25 -306.24 752.25 -299.44 752.25 C-299.44 758.19 -299.44 764.13 -299.44 770.25 C-290.2 770.25 -280.96 770.25 -271.44 770.25 C-271.44 776.85 -271.44 783.45 -271.44 790.25 C-263.85 790.25 -256.26 790.25 -248.44 790.25 C-248.44 797.18 -248.44 804.11 -248.44 811.25 C-241.84 811.25 -235.24 811.25 -228.44 811.25 C-228.44 819.17 -228.44 827.09 -228.44 835.25 C-222.83 835.25 -217.22 835.25 -211.44 835.25 C-211.44 840.86 -211.44 846.47 -211.44 852.25 C-205.83 852.25 -200.22 852.25 -194.44 852.25 C-194.44 856.87 -194.44 861.49 -194.44 866.25 C-189.49 866.25 -184.54 866.25 -179.44 866.25 C-179.44 871.2 -179.44 876.15 -179.44 881.25 C-174.16 881.25 -168.88 881.25 -163.44 881.25 C-163.44 887.19 -163.44 893.13 -163.44 899.25 C-156.18 899.25 -148.92 899.25 -141.44 899.25 C-141.44 907.5 -141.44 915.75 -141.44 924.25 C-150.02 924.25 -158.6 924.25 -167.44 924.25 C-167.44 927.22 -167.44 930.19 -167.44 933.25 C-170.08 933.25 -172.72 933.25 -175.44 933.25 C-175.44 938.86 -175.44 944.47 -175.44 950.25 C-181.71 950.25 -187.98 950.25 -194.44 950.25 C-194.44 956.52 -194.44 962.79 -194.44 969.25 C-198.73 969.25 -203.02 969.25 -207.44 969.25 C-207.44 975.19 -207.44 981.13 -207.44 987.25 C-212.06 987.25 -216.68 987.25 -221.44 987.25 C-221.44 992.53 -221.44 997.81 -221.44 1003.25 C-226.72 1003.25 -232 1003.25 -237.44 1003.25 C-237.44 1012.16 -237.44 1021.07 -237.44 1030.25 C-241.73 1030.25 -246.02 1030.25 -250.44 1030.25 C-250.44 1042.79 -250.44 1055.33 -250.44 1068.25 C-254.83 1067.37 -257.19 1066.5 -260.99 1064.4 C-262.07 1063.8 -263.15 1063.21 -264.26 1062.59 C-265.42 1061.94 -266.59 1061.28 -267.75 1060.62 C-268.34 1060.29 -268.94 1059.96 -269.55 1059.62 C-287.74 1049.42 -305.48 1038.41 -322.44 1026.25 C-323.18 1025.72 -323.93 1025.18 -324.7 1024.63 C-335.32 1016.98 -345.64 1009.02 -355.72 1000.67 C-357.25 999.4 -358.8 998.17 -360.35 996.93 C-366.49 992.02 -372.26 986.79 -377.96 981.39 C-381.03 978.48 -384.13 975.64 -387.33 972.88 C-391.92 968.89 -396.21 964.62 -400.5 960.31 C-400.88 959.93 -400.88 959.93 -402.81 958.01 C-407 953.82 -411.02 949.53 -414.89 945.04 C-416.98 942.62 -419.14 940.28 -421.31 937.94 C-426.23 932.53 -430.86 926.95 -435.44 921.25 C-436.37 920.11 -437.31 918.96 -438.25 917.82 C-445.77 908.6 -452.73 899.07 -459.44 889.25 C-460 888.43 -460.56 887.61 -461.13 886.77 C-469.7 874.2 -477.82 861.42 -485.44 848.25 C-485.86 847.51 -486.29 846.77 -486.73 846.02 C-500.31 822.42 -511.46 797.84 -521.52 772.56 C-522.38 770.41 -523.24 768.26 -524.11 766.11 C-532.82 744.38 -538.89 721.96 -544.44 699.25 C-544.73 698.07 -545.01 696.89 -545.31 695.68 C-549.16 679.71 -551.88 663.75 -554 647.47 C-554.51 643.7 -555.09 639.96 -555.69 636.21 C-556.78 628.96 -557.67 621.76 -558 614.43 C-558.02 613.99 -558.02 613.99 -558.13 611.78 C-558.69 597.95 -558.66 584.11 -558.68 570.27 C-558.68 566.98 -558.7 563.69 -558.72 560.4 C-558.86 539.13 -558.09 518.38 -555.44 497.25 C-555.29 496.07 -555.15 494.89 -555 493.67 C-551.12 462.36 -544.47 431.47 -535.44 401.25 C-535.19 400.41 -534.94 399.57 -534.68 398.7 C-531.26 387.19 -527.59 375.69 -522.53 364.79 C-521.05 361.34 -519.79 357.83 -518.5 354.31 C-516.5 348.85 -514.28 343.67 -511.57 338.51 C-510.45 336.27 -509.52 334.03 -508.62 331.69 C-496.26 300.17 -477.69 269.99 -458.44 242.25 C-457.95 241.55 -457.47 240.85 -456.97 240.12 C-446.77 225.34 -435.97 211.02 -424.44 197.25 C-424.02 196.75 -423.61 196.25 -423.18 195.74 C-412.29 182.62 -400.66 170.3 -388.58 158.26 C-386.67 156.36 -384.77 154.45 -382.86 152.54 C-376.89 146.56 -370.91 140.69 -364.44 135.25 C-363.31 134.27 -362.18 133.28 -361.05 132.29 C-353.94 126.13 -346.7 120.21 -339.18 114.56 C-337.32 113.16 -335.47 111.76 -333.63 110.35 C-297.54 82.92 -257.56 57.3 -214.84 41.68 C-210.84 40.2 -206.92 38.61 -203.01 36.93 C-195.13 33.62 -187.05 30.94 -178.94 28.25 C-178.14 27.99 -177.35 27.72 -176.53 27.45 C-165.26 23.7 -154.01 20.32 -142.42 17.71 C-139.35 17 -136.34 16.11 -133.31 15.25 C-107.39 8.27 -79.69 3.82 -52.86 2.5 C-49.44 2.25 -49.44 2.25 -47.24 1.77 C-43.58 1.09 -39.93 0.89 -36.21 0.7 C-35.39 0.66 -34.57 0.62 -33.72 0.58 C-22.48 0.06 -11.24 0.01 0 0 Z " fill="#45BBFB" transform="translate(626.4375,61.75)"/>
<path d="M0 0 C104.94 0 209.88 0 318 0 C318 6.93 318 13.86 318 21 C335.16 21 352.32 21 370 21 C370 28.59 370 36.18 370 44 C377.92 44 385.84 44 394 44 C394 62.48 394 80.96 394 100 C400.6 100 407.2 100 414 100 C415 101 415 101 415.12 102.92 C415.12 103.77 415.12 104.61 415.12 105.49 C415.12 106.46 415.12 107.42 415.12 108.42 C415.12 109.49 415.12 110.57 415.11 111.67 C415.11 112.79 415.11 113.91 415.11 115.07 C415.11 118.8 415.11 122.53 415.1 126.25 C415.1 128.83 415.09 131.41 415.09 133.98 C415.09 140.09 415.08 146.19 415.07 152.29 C415.06 159.24 415.06 166.18 415.05 173.13 C415.04 187.42 415.02 201.71 415 216 C407.74 216 400.48 216 393 216 C393 257.91 393 299.82 393 343 C385.74 343 378.48 343 371 343 C371 338.05 371 333.1 371 328 C350.87 328 330.74 328 310 328 C310 333.61 310 339.22 310 345 C329.8 345 349.6 345 370 345 C370 350.61 370 356.22 370 362 C384.19 362 398.38 362 413 362 C413 367.94 413 373.88 413 380 C428.18 380 443.36 380 459 380 C459 393.2 459 406.4 459 420 C464.94 420 470.88 420 477 420 C477 426.27 477 432.54 477 439 C483.27 439 489.54 439 496 439 C496 466.39 496 493.78 496 522 C489.4 522 482.8 522 476 522 C476 527.94 476 533.88 476 540 C469.73 540 463.46 540 457 540 C457 545.61 457 551.22 457 557 C447.43 557 437.86 557 428 557 C428 563.27 428 569.54 428 576 C420.74 576 413.48 576 406 576 C406 555.87 406 535.74 406 515 C412.27 515 418.54 515 425 515 C425 507.41 425 499.82 425 492 C419.06 492 413.12 492 407 492 C407 483.75 407 475.5 407 467 C401.06 467 395.12 467 389 467 C389 461.06 389 455.12 389 449 C383.06 449 377.12 449 371 449 C371 442.73 371 436.46 371 430 C360.11 430 349.22 430 338 430 C337 418 337 418 338 414 C307.97 414 277.94 414 247 414 C247 411.69 247 409.38 247 407 C188.92 407 130.84 407 71 407 C71 409.31 71 411.62 71 414 C40.64 414 10.28 414 -21 414 C-21 419.28 -21 424.56 -21 430 C-31.56 430 -42.12 430 -53 430 C-53 436.27 -53 442.54 -53 449 C-58.94 449 -64.88 449 -71 449 C-71 454.94 -71 460.88 -71 467 C-76.94 467 -82.88 467 -89 467 C-89 475.25 -89 483.5 -89 492 C-95.27 492 -101.54 492 -108 492 C-108 499.59 -108 507.18 -108 515 C-101.73 515 -95.46 515 -89 515 C-89 535.13 -89 555.26 -89 576 C-96.26 576 -103.52 576 -111 576 C-111 569.73 -111 563.46 -111 557 C-120.57 557 -130.14 557 -140 557 C-140 551.39 -140 545.78 -140 540 C-146.27 540 -152.54 540 -159 540 C-159 534.06 -159 528.12 -159 522 C-165.6 522 -172.2 522 -179 522 C-179.21 466.32 -179.21 466.32 -178 439 C-171.73 439 -165.46 439 -159 439 C-159 432.73 -159 426.46 -159 420 C-153.39 420 -147.78 420 -142 420 C-142 406.8 -142 393.6 -142 380 C-126.82 380 -111.64 380 -96 380 C-96 374.06 -96 368.12 -96 362 C-81.81 362 -67.62 362 -53 362 C-53 356.39 -53 350.78 -53 345 C-32.87 345 -12.74 345 8 345 C8 339.39 8 333.78 8 328 C107.33 328 206.66 328 309 328 C309 321.73 309 315.46 309 309 C209.67 309 110.34 309 8 309 C8 314.94 8 320.88 8 327 C-12.13 327 -32.26 327 -53 327 C-53 331.62 -53 336.24 -53 341 C-60.26 341 -67.52 341 -75 341 C-75.84 325.71 -76.13 310.51 -76.1 295.2 C-76.1 292.9 -76.09 290.6 -76.09 288.29 C-76.09 282.31 -76.08 276.33 -76.07 270.35 C-76.06 264.21 -76.05 258.08 -76.05 251.94 C-76.04 239.96 -76.02 227.98 -76 216 C-82.93 216 -89.86 216 -97 216 C-97 177.72 -97 139.44 -97 100 C-89.74 100 -82.48 100 -75 100 C-75 81.19 -75 62.38 -75 43 C-67.41 43 -59.82 43 -52 43 C-52 35.74 -52 28.48 -52 21 C-34.84 21 -17.68 21 0 21 C0 14.07 0 7.14 0 0 Z " fill="#FC5873" transform="translate(467,254)"/>
<path d="M0 0 C55.77 0 111.54 0 169 0 C169 2.97 169 5.94 169 9 C198.37 9 227.74 9 258 9 C258 14.28 258 19.56 258 25 C269.22 25 280.44 25 292 25 C292 31.27 292 37.54 292 44 C298.27 44 304.54 44 311 44 C311 87.23 311 130.46 311 175 C305.39 175 299.78 175 294 175 C294 186.55 294 198.1 294 210 C288.72 210 283.44 210 278 210 C278 216.27 278 222.54 278 229 C272.72 229 267.44 229 262 229 C262 233.95 262 238.9 262 244 C256.72 244 251.44 244 246 244 C246 248.62 246 253.24 246 258 C236.43 258 226.86 258 217 258 C217 262.29 217 266.58 217 271 C209.08 271 201.16 271 193 271 C193 273.64 193 276.28 193 279 C177.49 279 161.98 279 146 279 C146 283.62 146 288.24 146 293 C105.41 293 64.82 293 23 293 C23 288.38 23 283.76 23 279 C7.49 279 -8.02 279 -24 279 C-24 276.36 -24 273.72 -24 271 C-31.92 271 -39.84 271 -48 271 C-48 266.71 -48 262.42 -48 258 C-57.24 258 -66.48 258 -76 258 C-76 253.38 -76 248.76 -76 244 C-81.61 244 -87.22 244 -93 244 C-93 239.05 -93 234.1 -93 229 C-97.95 229 -102.9 229 -108 229 C-108 222.73 -108 216.46 -108 210 C-113.61 210 -119.22 210 -125 210 C-125 198.78 -125 187.56 -125 176 C-130.61 176 -136.22 176 -142 176 C-142 132.44 -142 88.88 -142 44 C-135.73 44 -129.46 44 -123 44 C-123 37.73 -123 31.46 -123 25 C-111.78 25 -100.56 25 -89 25 C-89 19.72 -89 14.44 -89 9 C-59.63 9 -30.26 9 0 9 C0 6.03 0 3.06 0 0 Z " fill="#F6B96D" transform="translate(541,681)"/>
<path d="M0 0 C106.92 0 213.84 0 324 0 C324 6.93 324 13.86 324 21 C340.83 21 357.66 21 375 21 C375 27.93 375 34.86 375 42 C382.59 42 390.18 42 398 42 C398 49.59 398 57.18 398 65 C404.6 65 411.2 65 418 65 C418 84.14 418 103.28 418 123 C420.64 123 423.28 123 426 123 C426 99.57 426 76.14 426 52 C431.94 52 437.88 52 444 52 C444 45.4 444 38.8 444 32 C463.47 32 482.94 32 503 32 C503 38.6 503 45.2 503 52 C509.6 52 516.2 52 523 52 C523 106.78 523 161.56 523 218 C527.95 218 532.9 218 538 218 C538 216.37 538 214.75 537.99 213.07 C537.97 197.78 537.96 182.49 537.95 167.2 C537.94 159.34 537.94 151.48 537.92 143.62 C537.91 136.77 537.91 129.92 537.91 123.07 C537.9 119.44 537.9 115.81 537.89 112.18 C537.89 108.14 537.89 104.09 537.89 100.05 C537.88 98.84 537.88 97.62 537.88 96.37 C537.88 95.28 537.88 94.18 537.88 93.06 C537.88 92.1 537.88 91.14 537.88 90.15 C538 88 538 88 539 87 C541.86 86.93 544.7 86.91 547.56 86.94 C550.35 86.96 553.13 86.98 556 87 C556 80.73 556 74.46 556 68 C570.52 68 585.04 68 600 68 C600 74.6 600 81.2 600 88 C605.94 88 611.88 88 618 88 C618 100.21 618 112.42 618 125 C624.27 125 630.54 125 637 125 C637 132.59 637 140.18 637 148 C643.27 148 649.54 148 656 148 C656 178.03 656 208.06 656 239 C649.73 239 643.46 239 637 239 C637 254.84 637 270.68 637 287 C630.73 287 624.46 287 618 287 C618 294.92 618 302.84 618 311 C611.07 311 604.14 311 597 311 C597 317.27 597 323.54 597 330 C584.13 330 571.26 330 558 330 C558 336.93 558 343.86 558 351 C546.45 351 534.9 351 523 351 C523 356.94 523 362.88 523 369 C516.07 369 509.14 369 502 369 C502 374.94 502 380.88 502 387 C494.74 387 487.48 387 480 387 C480 392.28 480 397.56 480 403 C504.42 403 528.84 403 554 403 C554 409.27 554 415.54 554 422 C560.6 422 567.2 422 574 422 C574 422.33 574 422.66 574 423 C567.4 423.33 560.8 423.66 554 424 C553.67 430.27 553.34 436.54 553 443 C559.6 443 566.2 443 573 443 C573 456.2 573 469.4 573 483 C566.73 483 560.46 483 554 483 C554 488.94 554 494.88 554 501 C542.12 501 530.24 501 518 501 C518 487.14 518 473.28 518 459 C511.73 459 505.46 459 499 459 C499 452.73 499 446.46 499 440 C493.06 440 487.12 440 481 440 C480.67 437.69 480.34 435.38 480 433 C479.67 436.3 479.34 439.6 479 443 C473.39 443 467.78 443 462 443 C462 429.8 462 416.6 462 403 C446.82 403 431.64 403 416 403 C416 397.06 416 391.12 416 385 C401.81 385 387.62 385 373 385 C373 379.39 373 373.78 373 368 C353.2 368 333.4 368 313 368 C313 362.39 313 356.78 313 351 C333.13 351 353.26 351 374 351 C374 355.95 374 360.9 374 366 C381.26 366 388.52 366 396 366 C396 324.09 396 282.18 396 239 C403.26 239 410.52 239 418 239 C417.67 201.05 417.34 163.1 417 124 C410.4 123.67 403.8 123.34 397 123 C397 104.52 397 86.04 397 67 C389.08 67 381.16 67 373 67 C373 59.41 373 51.82 373 44 C355.84 44 338.68 44 321 44 C321 37.07 321 30.14 321 23 C216.06 23 111.12 23 3 23 C3 29.93 3 36.86 3 44 C-14.16 44 -31.32 44 -49 44 C-49 51.26 -49 58.52 -49 66 C-56.59 66 -64.18 66 -72 66 C-72 84.81 -72 103.62 -72 123 C-78.93 123 -85.86 123 -93 123 C-93 103.86 -93 84.72 -93 65 C-86.4 65 -79.8 65 -73 65 C-73 57.08 -73 49.16 -73 41 C-65.74 41 -58.48 41 -51 41 C-51 34.4 -51 27.8 -51 21 C-34.17 21 -17.34 21 0 21 C0 14.07 0 7.14 0 0 Z " fill="#0D0D0D" transform="translate(464,231)"/>
<path d="M0 0 C19.8 0 39.6 0 60 0 C60 6.27 60 12.54 60 19 C65.94 19 71.88 19 78 19 C78 42.43 78 65.86 78 90 C80.64 90 83.28 90 86 90 C86 128.28 86 166.56 86 206 C92.93 206 99.86 206 107 206 C107.33 247.25 107.66 288.5 108 331 C115.26 331 122.52 331 130 331 C130 326.38 130 321.76 130 317 C150.13 317 170.26 317 191 317 C191 311.06 191 305.12 191 299 C290.33 299 389.66 299 492 299 C492 305.27 492 311.54 492 318 C392.67 318 293.34 318 191 318 C191 323.61 191 329.22 191 335 C170.87 335 150.74 335 130 335 C130 340.61 130 346.22 130 352 C115.81 352 101.62 352 87 352 C87 357.94 87 363.88 87 370 C71.82 370 56.64 370 41 370 C41 383.2 41 396.4 41 410 C35.39 410 29.78 410 24 410 C24 409.34 24 408.68 24 408 C17.73 408 11.46 408 5 408 C5 414.27 5 420.54 5 427 C-1.27 427 -7.54 427 -14 427 C-14 440.53 -14 454.06 -14 468 C-26.21 468 -38.42 468 -51 468 C-51 462.06 -51 456.12 -51 450 C-63.87 450 -76.74 450 -90 450 C-90 436.14 -90 422.28 -90 408 C-83.73 408 -77.46 408 -71 408 C-71 401.73 -71 395.46 -71 389 C-64.4 389 -57.8 389 -51 389 C-51 382.73 -51 376.46 -51 370 C-26.58 370 -2.16 370 23 370 C23 365.05 23 360.1 23 355 C15.74 355 8.48 355 1 355 C1 348.73 1 342.46 1 336 C-5.6 336 -12.2 336 -19 336 C-19 330.06 -19 324.12 -19 318 C-30.55 318 -42.1 318 -54 318 C-54 311.4 -54 304.8 -54 298 C-66.87 298 -79.74 298 -93 298 C-93 291.4 -93 284.8 -93 278 C-99.93 278 -106.86 278 -114 278 C-114 270.08 -114 262.16 -114 254 C-120.27 254 -126.54 254 -133 254 C-133 238.16 -133 222.32 -133 206 C-138.94 206 -144.88 206 -151 206 C-151 175.97 -151 145.94 -151 115 C-145.06 115 -139.12 115 -133 115 C-133 107.41 -133 99.82 -133 92 C-126.4 92 -119.8 92 -113 92 C-113 79.46 -113 66.92 -113 54 C-107.06 54 -101.12 54 -95 54 C-95 47.73 -95 41.46 -95 35 C-80.81 35 -66.62 35 -52 35 C-52 41.6 -52 48.2 -52 55 C-46.06 55 -40.12 55 -34 55 C-34 97.9 -34 140.8 -34 185 C-29.05 185 -24.1 185 -19 185 C-19 130.22 -19 75.44 -19 19 C-12.73 19 -6.46 19 0 19 C0 12.73 0 6.46 0 0 Z M24 406 C25 408 25 408 25 408 Z " fill="#0B0D0C" transform="translate(284,264)"/>
<path d="M0 0 C99 0 198 0 300 0 C300 5.28 300 10.56 300 16 C320.13 16 340.26 16 361 16 C361 21.61 361 27.22 361 33 C375.19 33 389.38 33 404 33 C404 38.94 404 44.88 404 51 C419.18 51 434.36 51 450 51 C450 64.2 450 77.4 450 91 C455.94 91 461.88 91 468 91 C468 97.27 468 103.54 468 110 C474.27 110 480.54 110 487 110 C487 137.39 487 164.78 487 193 C480.4 193 473.8 193 467 193 C467 198.94 467 204.88 467 211 C460.73 211 454.46 211 448 211 C448 216.61 448 222.22 448 228 C438.43 228 428.86 228 419 228 C419 234.27 419 240.54 419 247 C411.74 247 404.48 247 397 247 C397 226.87 397 206.74 397 186 C403.27 186 409.54 186 416 186 C416 178.41 416 170.82 416 163 C410.06 163 404.12 163 398 163 C398 154.75 398 146.5 398 138 C392.06 138 386.12 138 380 138 C380 132.06 380 126.12 380 120 C374.06 120 368.12 120 362 120 C362 113.73 362 107.46 362 101 C351.11 101 340.22 101 329 101 C328 89 328 89 329 85 C298.97 85 268.94 85 238 85 C238 82.69 238 80.38 238 78 C179.92 78 121.84 78 62 78 C62 80.31 62 82.62 62 85 C31.64 85 1.28 85 -30 85 C-30 90.28 -30 95.56 -30 101 C-40.56 101 -51.12 101 -62 101 C-62 107.27 -62 113.54 -62 120 C-67.94 120 -73.88 120 -80 120 C-80 125.94 -80 131.88 -80 138 C-85.94 138 -91.88 138 -98 138 C-98 146.25 -98 154.5 -98 163 C-104.27 163 -110.54 163 -117 163 C-117 170.59 -117 178.18 -117 186 C-110.73 186 -104.46 186 -98 186 C-98 206.13 -98 226.26 -98 247 C-105.26 247 -112.52 247 -120 247 C-120 240.73 -120 234.46 -120 228 C-129.57 228 -139.14 228 -149 228 C-149 222.39 -149 216.78 -149 211 C-155.27 211 -161.54 211 -168 211 C-168 205.06 -168 199.12 -168 193 C-174.6 193 -181.2 193 -188 193 C-188.21 137.32 -188.21 137.32 -187 110 C-180.73 110 -174.46 110 -168 110 C-168 103.73 -168 97.46 -168 91 C-162.39 91 -156.78 91 -151 91 C-151 77.8 -151 64.6 -151 51 C-135.82 51 -120.64 51 -105 51 C-105 45.06 -105 39.12 -105 33 C-90.81 33 -76.62 33 -62 33 C-62 27.39 -62 21.78 -62 16 C-41.54 16 -21.08 16 0 16 C0 10.72 0 5.44 0 0 Z " fill="#FB5873" transform="translate(476,583)"/>
<path d="M0 0 C44.88 0 89.76 0 136 0 C136 7.59 136 15.18 136 23 C139.96 23 143.92 23 148 23 C148 36.53 148 50.06 148 64 C152.62 64 157.24 64 162 64 C162 72.58 162 81.16 162 90 C166.62 90 171.24 90 176 90 C176 95.94 176 101.88 176 108 C180.62 108 185.24 108 190 108 C190 115.59 190 123.18 190 131 C195.94 131 201.88 131 208 131 C208 142.22 208 153.44 208 165 C212.29 165 216.58 165 221 165 C221 171.27 221 177.54 221 184 C204.09 188.4 187.25 192.28 170.06 195.41 C166.86 196.03 163.69 196.75 160.52 197.47 C108.29 208.69 47.7 208.16 -5 200 C-6.15 199.83 -7.29 199.66 -8.47 199.49 C-14.24 198.63 -19.96 197.66 -25.67 196.47 C-27.92 196.02 -30.18 195.6 -32.45 195.21 C-43.79 193.2 -54.95 190.62 -66.12 187.81 C-66.48 187.72 -66.48 187.72 -68.3 187.27 C-80.24 184.25 -80.24 184.25 -84 183 C-84 177.06 -84 171.12 -84 165 C-79.38 165 -74.76 165 -70 165 C-70 153.78 -70 142.56 -70 131 C-64.39 131 -58.78 131 -53 131 C-53 123.41 -53 115.82 -53 108 C-48.71 108 -44.42 108 -40 108 C-40 102.06 -40 96.12 -40 90 C-35.05 90 -30.1 90 -25 90 C-25 81.42 -25 72.84 -25 64 C-20.38 64 -15.76 64 -11 64 C-11 50.47 -11 36.94 -11 23 C-7.37 23 -3.74 23 0 23 C0 15.41 0 7.82 0 0 Z " fill="#F8BC6F" transform="translate(557,987)"/>
<path d="M0 0 C12.21 0 24.42 0 37 0 C37 6.27 37 12.54 37 19 C43.93 19 50.86 19 58 19 C58 25.27 58 31.54 58 38 C63.61 38 69.22 38 75 38 C75 44.27 75 50.54 75 57 C79.62 57 84.24 57 89 57 C89 50.73 89 44.46 89 38 C94.61 38 100.22 38 106 38 C106 31.73 106 25.46 106 19 C112.6 19 119.2 19 126 19 C126 12.73 126 6.46 126 0 C137.88 0 149.76 0 162 0 C162 6.6 162 13.2 162 20 C168.6 20 175.2 20 182 20 C182 25.94 182 31.88 182 38 C188.6 38 195.2 38 202 38 C202 47.9 202 57.8 202 68 C195.07 68 188.14 68 181 68 C181 74.27 181 80.54 181 87 C175.06 87 169.12 87 163 87 C163 93.27 163 99.54 163 106 C156.4 106 149.8 106 143 106 C143 111.28 143 116.56 143 122 C149.27 122 155.54 122 162 122 C162 127.94 162 133.88 162 140 C168.27 140 174.54 140 181 140 C181 145.61 181 151.22 181 157 C187.93 157 194.86 157 202 157 C202 166.9 202 176.8 202 187 C195.07 187 188.14 187 181 187 C181 192.94 181 198.88 181 205 C174.73 205 168.46 205 162 205 C162 210.94 162 216.88 162 223 C150.12 223 138.24 223 126 223 C126 216.07 126 209.14 126 202 C119.4 202 112.8 202 106 202 C106 195.4 106 188.8 106 182 C100.39 182 94.78 182 89 182 C88.98 179.24 88.96 176.47 88.94 173.62 C88.93 172.76 88.92 171.89 88.91 170.99 C88.89 165.22 88.89 165.22 90 163 C85.38 163 80.76 163 76 163 C76 169.27 76 175.54 76 182 C70.06 182 64.12 182 58 182 C58 188.6 58 195.2 58 202 C51.07 202 44.14 202 37 202 C37 208.93 37 215.86 37 223 C25.12 223 13.24 223 1 223 C1 217.06 1 211.12 1 205 C-5.27 205 -11.54 205 -18 205 C-18 199.06 -18 193.12 -18 187 C-24.27 187 -30.54 187 -37 187 C-37 177.76 -37 168.52 -37 159 C-30.73 159 -24.46 159 -18 159 C-18 152.4 -18 145.8 -18 139 C-12.06 139 -6.12 139 0 139 C0 133.39 0 127.78 0 122 C5.94 122 11.88 122 18 122 C18 116.72 18 111.44 18 106 C12.06 106 6.12 106 0 106 C0 99.4 0 92.8 0 86 C-5.94 86 -11.88 86 -18 86 C-18 79.73 -18 73.46 -18 67 C-24.6 67 -31.2 67 -38 67 C-38 57.43 -38 47.86 -38 38 C-31.4 38 -24.8 38 -18 38 C-18 32.06 -18 26.12 -18 20 C-12.06 20 -6.12 20 0 20 C0 13.4 0 6.8 0 0 Z " fill="#FCFBFB" transform="translate(543,329)"/>
<path d="M0 0 C18.48 0 36.96 0 56 0 C56 55.11 56 110.22 56 167 C62.27 167 68.54 167 75 167 C75 180.2 75 193.4 75 207 C81.27 207 87.54 207 94 207 C94 200.07 94 193.14 94 186 C99.94 186 105.88 186 112 186 C112 136.5 112 87 112 36 C125.53 36 139.06 36 153 36 C153 48.54 153 61.08 153 74 C158.94 74 164.88 74 171 74 C171 87.2 171 100.4 171 114 C177.27 114 183.54 114 190 114 C190 131.16 190 148.32 190 166 C183.73 166 177.46 166 171 166 C171 182.5 171 199 171 216 C164.4 216 157.8 216 151 216 C151 223.59 151 231.18 151 239 C144.4 239 137.8 239 131 239 C131 244.94 131 250.88 131 257 C118.79 257 106.58 257 94 257 C94 263.6 94 270.2 94 277 C81.79 277 69.58 277 57 277 C57 283.6 57 290.2 57 297 C50.73 297 44.46 297 38 297 C38 303.27 38 309.54 38 316 C31.4 316 24.8 316 18 316 C18 320.95 18 325.9 18 331 C6.78 331 -4.44 331 -16 331 C-16 326.05 -16 321.1 -16 316 C-20.62 316 -25.24 316 -30 316 C-30 309.4 -30 302.8 -30 296 C-20.1 296 -10.2 296 0 296 C0 290.06 0 284.12 0 278 C6.27 278 12.54 278 19 278 C19 271.73 19 265.46 19 259 C25.27 259 31.54 259 38 259 C38 246.13 38 233.26 38 220 C31.73 220 25.46 220 19 220 C19 206.14 19 192.28 19 178 C12.73 178 6.46 178 0 178 C0 119.26 0 60.52 0 0 Z " fill="#9D5C2C" transform="translate(910,283)"/>
<path d="M0 0 C18.48 0 36.96 0 56 0 C57.12 18 57.12 18 57.12 24.07 C57.12 24.41 57.12 24.41 57.12 26.12 C57.12 28.31 57.12 30.5 57.11 32.69 C57.11 34.29 57.11 35.88 57.11 37.48 C57.11 41.77 57.11 46.05 57.1 50.33 C57.1 54.83 57.09 59.33 57.09 63.83 C57.09 72.32 57.08 80.81 57.07 89.3 C57.06 98.98 57.06 108.66 57.05 118.34 C57.04 138.23 57.02 158.11 57 178 C50.73 178 44.46 178 38 178 C38 191.86 38 205.72 38 220 C31.4 220 24.8 220 18 220 C18 232.87 18 245.74 18 259 C24.27 259 30.54 259 37 259 C37 265.27 37 271.54 37 278 C43.6 278 50.2 278 57 278 C57 283.61 57 289.22 57 295 C66.9 295 76.8 295 87 295 C87 301.6 87 308.2 87 315 C82.05 315 77.1 315 72 315 C72 320.61 72 326.22 72 332 C60.78 332 49.56 332 38 332 C38 326.72 38 321.44 38 316 C31.73 316 25.46 316 19 316 C19 309.73 19 303.46 19 297 C12.4 297 5.8 297 -1 297 C-1 290.73 -1 284.46 -1 278 C-12.88 278 -24.76 278 -37 278 C-37 271.4 -37 264.8 -37 258 C-49.54 258 -62.08 258 -75 258 C-75 252.06 -75 246.12 -75 240 C-80.94 240 -86.88 240 -93 240 C-93 232.08 -93 224.16 -93 216 C-99.6 216 -106.2 216 -113 216 C-113 199.5 -113 183 -113 166 C-119.27 166 -125.54 166 -132 166 C-132 148.84 -132 131.68 -132 114 C-125.73 114 -119.46 114 -113 114 C-113 100.8 -113 87.6 -113 74 C-107.06 74 -101.12 74 -95 74 C-95 61.79 -95 49.58 -95 37 C-82.13 37 -69.26 37 -56 37 C-56 86.5 -56 136 -56 187 C-50.06 187 -44.12 187 -38 187 C-38 193.6 -38 200.2 -38 207 C-31.73 207 -25.46 207 -19 207 C-19 193.8 -19 180.6 -19 167 C-12.73 167 -6.46 167 0 167 C0 111.89 0 56.78 0 0 Z " fill="#9C5B2C" transform="translate(285,283)"/>
<path d="M0 0 C1.05 0 2.11 0 3.19 0 C20.81 0.03 38.26 0.51 55.81 2.19 C57.12 2.31 58.43 2.43 59.78 2.56 C142.39 10.57 222.69 35.58 317.81 88.19 C318.65 88.7 319.49 89.21 320.36 89.74 C344.69 104.69 368.04 121.17 389.89 139.57 C391.7 141.09 393.52 142.61 395.34 144.12 C402.19 149.84 408.82 155.77 415.35 161.84 C416.76 163.14 418.18 164.41 419.6 165.69 C425.95 171.41 432.07 177.34 438.12 183.38 C438.88 184.12 439.63 184.87 440.41 185.64 C444.51 189.75 448.44 193.96 452.22 198.35 C454.48 200.96 456.84 203.47 459.19 206 C463.42 210.59 467.47 215.3 471.38 220.17 C473.17 222.39 474.98 224.6 476.8 226.8 C530.03 291.13 569.01 368.63 613 611.38 C613 612.43 613 613.48 613 614.57 C612.97 632.19 612.49 649.64 610.81 667.19 C610.69 668.5 610.57 669.8 610.44 671.15 C602.43 753.77 577.42 834.06 524.81 929.19 C524.3 930.03 523.79 930.87 523.26 931.73 C508.31 956.07 491.83 979.42 473.43 1001.26 C471.91 1003.07 470.39 1004.89 468.88 1006.71 C463.16 1013.56 457.23 1020.19 451.16 1026.73 C449.86 1028.13 448.59 1029.55 447.31 1030.97 C441.59 1037.32 435.66 1043.44 429.62 1049.5 C428.88 1050.25 428.13 1051.01 427.36 1051.78 C423.25 1055.88 419.04 1059.81 414.65 1063.6 C412.04 1065.86 409.53 1068.21 407 1070.56 C402.41 1074.8 397.7 1078.84 392.83 1082.76 C390.61 1084.55 388.4 1086.35 386.2 1088.18 C321.87 1141.4 244.37 1180.38 1.62 1224.38 C0.57 1224.37 -0.48 1224.37 -1.57 1224.37 C-19.19 1224.35 -36.64 1223.87 -54.19 1222.19 C-55.5 1222.06 -56.8 1221.94 -58.15 1221.81 C-140.77 1213.81 -221.06 1188.79 -316.19 1136.19 C-316.61 1135.93 -316.61 1135.93 -318.73 1134.63 C-343.07 1119.69 -366.42 1103.21 -388.26 1084.81 C-390.07 1083.28 -391.89 1081.77 -393.71 1080.25 C-400.56 1074.53 -407.19 1068.6 -413.73 1062.53 C-415.13 1061.24 -416.55 1059.96 -417.97 1058.68 C-424.32 1052.96 -430.44 1047.03 -436.5 1041 C-436.88 1040.63 -436.88 1040.63 -438.78 1038.73 C-442.88 1034.62 -446.81 1030.42 -450.6 1026.02 C-452.86 1023.41 -455.21 1020.9 -457.56 1018.38 C-461.8 1013.78 -465.84 1009.08 -469.76 1004.21 C-471.55 1001.98 -473.35 999.77 -475.18 997.57 C-528.4 933.24 -567.38 855.74 -611.38 613 C-611.37 611.95 -611.37 610.89 -611.37 609.81 C-611.35 592.19 -610.87 574.74 -609.19 557.19 C-609.06 555.88 -608.94 554.57 -608.81 553.22 C-600.81 470.61 -575.79 390.31 -523.19 295.19 C-522.67 294.35 -522.16 293.51 -521.63 292.64 C-506.69 268.31 -490.21 244.96 -471.81 223.11 C-470.28 221.3 -468.77 219.48 -467.25 217.66 C-461.53 210.81 -455.6 204.18 -449.53 197.65 C-448.24 196.24 -446.96 194.82 -445.68 193.4 C-439.96 187.05 -434.03 180.93 -428 174.88 C-427.25 174.12 -426.5 173.37 -425.73 172.59 C-421.62 168.49 -417.42 164.56 -413.02 160.78 C-410.41 158.52 -407.9 156.16 -405.38 153.81 C-400.78 149.58 -396.08 145.53 -391.21 141.62 C-388.98 139.83 -386.77 138.02 -384.57 136.2 C-320.24 82.97 -242.74 43.99 0 0 Z M-225.19 46.19 C-226.92 46.88 -228.66 47.58 -230.39 48.27 C-270.4 64.52 -309.14 84.89 -344.19 110.19 C-344.94 110.73 -345.69 111.27 -346.47 111.83 C-364.33 124.78 -381.6 138.29 -397.92 153.14 C-400.01 155.02 -402.12 156.86 -404.25 158.69 C-408.01 161.96 -411.49 165.47 -414.99 169.02 C-416.89 170.89 -418.83 172.61 -420.88 174.31 C-426.85 179.45 -432.04 185.42 -437.37 191.21 C-439.12 193.12 -440.89 195 -442.66 196.89 C-448.35 202.92 -453.84 209.02 -459.03 215.5 C-461.29 218.31 -463.61 221.06 -465.94 223.81 C-486.58 248.57 -505.04 275.31 -521.19 303.19 C-521.41 303.58 -521.41 303.58 -522.56 305.55 C-536.4 329.35 -549.68 353.63 -558.87 379.65 C-559.87 382.32 -560.92 384.88 -562.09 387.47 C-585.03 438.4 -597.14 496.07 -602.81 551.38 C-602.94 552.57 -603.06 553.77 -603.19 555.01 C-604.99 573.36 -605.37 591.58 -605.37 610.01 C-605.37 613.95 -605.39 617.89 -605.41 621.83 C-605.48 653.81 -603.11 685.74 -597.19 717.19 C-596.96 718.42 -596.72 719.66 -596.48 720.93 C-592.03 744.47 -587.32 768.05 -579.37 790.71 C-577.99 794.77 -576.8 798.87 -575.62 803 C-574.08 808.37 -572.4 813.58 -570.2 818.73 C-569.21 821.12 -568.34 823.53 -567.48 825.97 C-555 860.46 -538.37 893.97 -519.19 925.19 C-518.93 925.62 -518.93 925.62 -517.6 927.78 C-503.07 951.39 -486.95 973.9 -469.19 995.19 C-468.7 995.78 -468.2 996.37 -467.7 996.98 C-462.41 1003.32 -457.04 1009.57 -451.47 1015.67 C-450.08 1017.2 -448.69 1018.75 -447.32 1020.31 C-440.88 1027.62 -434.03 1034.5 -427.13 1041.37 C-425.12 1043.38 -423.12 1045.39 -421.12 1047.4 C-414.98 1053.54 -408.84 1059.6 -402.19 1065.19 C-401 1066.23 -399.81 1067.28 -398.62 1068.33 C-390.35 1075.57 -381.93 1082.52 -373.19 1089.19 C-372.45 1089.75 -371.71 1090.32 -370.95 1090.9 C-352.6 1104.88 -333.88 1118.16 -314.19 1130.19 C-313.38 1130.69 -312.57 1131.18 -311.73 1131.7 C-268.31 1158.26 -222.45 1178.43 -174.12 1194.25 C-173.3 1194.52 -172.47 1194.79 -171.62 1195.07 C-161.91 1198.26 -152.21 1201.01 -142.24 1203.25 C-138.35 1204.13 -134.5 1205.16 -130.66 1206.22 C-122.72 1208.36 -114.74 1210.08 -106.69 1211.69 C-106.31 1211.76 -106.31 1211.76 -104.41 1212.14 C-89.99 1215 -75.56 1217.16 -60.95 1218.77 C-57.3 1219.18 -53.65 1219.63 -50 1220.09 C-2.41 1225.73 47.35 1223.38 94.45 1214.63 C96.55 1214.24 98.66 1213.87 100.77 1213.52 C122.48 1209.72 144 1204.49 165.06 1198.03 C167.81 1197.19 170.56 1196.37 173.32 1195.55 C185.4 1191.98 197.35 1188.35 208.95 1183.4 C211.52 1182.31 214.09 1181.27 216.69 1180.25 C223.12 1177.69 229.46 1174.93 235.81 1172.19 C236.83 1171.76 237.85 1171.34 238.9 1170.9 C244.75 1168.39 250.46 1165.58 256.19 1162.81 C256.82 1162.51 257.46 1162.2 258.11 1161.89 C276.4 1153.04 294.61 1144.03 311.81 1133.19 C312.22 1132.93 312.22 1132.93 314.3 1131.64 C326.76 1123.87 338.94 1115.82 350.81 1107.19 C351.58 1106.64 352.34 1106.08 353.13 1105.52 C372.63 1091.42 391.25 1076.25 408.89 1059.89 C410.82 1058.11 412.75 1056.34 414.7 1054.58 C424.93 1045.34 435.12 1035.81 444.02 1025.26 C445.99 1022.98 448.04 1020.77 450.11 1018.57 C455.95 1012.31 461.46 1005.87 466.81 999.19 C467.87 997.9 468.92 996.62 469.98 995.33 C476.18 987.78 482.15 980.15 487.81 972.19 C488.85 970.76 489.9 969.33 490.94 967.9 C496.84 959.82 502.57 951.72 507.81 943.19 C508.56 942 509.31 940.82 510.07 939.63 C516.14 930.05 521.89 920.31 527.51 910.46 C528.72 908.36 529.93 906.26 531.16 904.16 C536.45 895.02 541.05 885.62 545.52 876.05 C547.31 872.22 549.19 868.44 551.12 864.69 C554.16 858.69 556.47 852.48 558.81 846.19 C559.45 844.58 560.1 842.98 560.75 841.38 C562.77 836.37 564.66 831.31 566.53 826.25 C567.9 822.57 569.32 818.92 570.8 815.28 C582.53 786.05 589.12 754.56 594.78 723.69 C595.43 720.18 596.12 716.7 596.91 713.23 C597.92 708.85 598.62 704.45 599.25 700 C599.37 699.12 599.5 698.24 599.63 697.33 C600.73 689.26 601.61 681.17 602.44 673.06 C602.5 672.47 602.5 672.47 602.81 669.46 C604.61 651.17 605.02 632.93 605 614.56 C605 613.44 605 612.32 605 611.17 C604.9 558.98 599.42 505.73 584.14 455.62 C582.26 449.44 580.62 443.18 578.96 436.94 C576.2 426.69 572.62 416.82 568.94 406.88 C568.52 405.73 568.09 404.58 567.66 403.4 C564.89 395.92 561.93 388.53 558.81 381.19 C557.98 379.19 557.14 377.19 556.31 375.19 C555.89 374.18 555.47 373.18 555.04 372.15 C554.27 370.29 553.5 368.42 552.75 366.55 C549.21 357.8 545.1 349.37 540.88 340.94 C540.5 340.19 540.13 339.45 539.75 338.69 C533.45 326.12 526.72 313.9 519.43 301.87 C517.82 299.2 516.24 296.52 514.66 293.84 C508.47 283.31 501.89 273.15 494.81 263.19 C493.95 261.96 493.08 260.73 492.22 259.51 C486.88 251.97 481.42 244.53 475.81 237.19 C475.56 236.85 475.56 236.85 474.27 235.16 C463.58 221.16 452.29 207.84 440.33 194.92 C438.12 192.52 435.96 190.08 433.81 187.62 C429.13 182.41 424.19 177.46 419.25 172.5 C418.45 171.69 417.64 170.88 416.81 170.05 C412.53 165.78 408.18 161.67 403.59 157.72 C401.18 155.64 398.84 153.48 396.5 151.31 C391.1 146.39 385.51 141.76 379.81 137.19 C378.68 136.26 377.55 135.34 376.42 134.41 C326.23 93.56 268.67 61.1 207.89 38.95 C205.86 38.21 203.84 37.45 201.82 36.69 C187.53 31.33 173.19 26.72 158.42 22.87 C156.01 22.24 153.62 21.58 151.22 20.91 C68.64 -1.94 -21.85 -4.81 -225.19 46.19 Z " fill="#F4F4F4" transform="translate(626.1875,14.8125)"/>
<path d="M0 0 C106.92 0 213.84 0 324 0 C324 6.93 324 13.86 324 21 C340.83 21 357.66 21 375 21 C375 27.93 375 34.86 375 42 C382.59 42 390.18 42 398 42 C398 49.59 398 57.18 398 65 C404.6 65 411.2 65 418 65 C418 65.33 418 65.66 418 66 C402.98 66.88 388.05 67.09 373 67 C373 59.41 373 51.82 373 44 C355.84 44 338.68 44 321 44 C321 37.07 321 30.14 321 23 C216.06 23 111.12 23 3 23 C3 29.93 3 36.86 3 44 C-14.16 44 -31.32 44 -49 44 C-49 51.26 -49 58.52 -49 66 C-56.59 66 -64.18 66 -72 66 C-72 84.81 -72 103.62 -72 123 C-78.93 123 -85.86 123 -93 123 C-93 103.86 -93 84.72 -93 65 C-86.4 65 -79.8 65 -73 65 C-73 57.08 -73 49.16 -73 41 C-65.74 41 -58.48 41 -51 41 C-51 34.4 -51 27.8 -51 21 C-34.17 21 -17.34 21 0 21 C0 14.07 0 7.14 0 0 Z " fill="#0B0D0D" transform="translate(464,231)"/>
<path d="M0 0 C15.18 0 30.36 0 46 0 C46 5.61 46 11.22 46 17 C51.94 17 57.88 17 64 17 C64 21.95 64 26.9 64 32 C67.3 32 70.6 32 74 32 C74 50.48 74 68.96 74 88 C70.7 88 67.4 88 64 88 C64 91.63 64 95.26 64 99 C59.38 99 54.76 99 50 99 C50.33 105.27 50.66 111.54 51 118 C33.51 118 16.02 118 -2 118 C-2 113.71 -2 109.42 -2 105 C-7.28 105 -12.56 105 -18 105 C-18 100.05 -18 95.1 -18 90 C-22.29 90 -26.58 90 -31 90 C-31 68.22 -31 46.44 -31 24 C-26.05 24 -21.1 24 -16 24 C-16 21.36 -16 18.72 -16 16 C-11.05 15.67 -6.1 15.34 -1 15 C-0.67 10.05 -0.34 5.1 0 0 Z " fill="#F9F8F7" transform="translate(730,748)"/>
<path d="M0 0 C15.18 0 30.36 0 46 0 C46 5.28 46 10.56 46 16 C51.61 16 57.22 16 63 16 C63 18.64 63 21.28 63 24 C67.62 24 72.24 24 77 24 C77 46.11 77 68.22 77 91 C72.71 91 68.42 91 64 91 C64 95.62 64 100.24 64 105 C58.72 105 53.44 105 48 105 C48 109.29 48 113.58 48 118 C30.84 118 13.68 118 -4 118 C-4 111.73 -4 105.46 -4 99 C-8.62 99 -13.24 99 -18 99 C-18 95.37 -18 91.74 -18 88 C-20.97 88 -23.94 88 -27 88 C-27 69.52 -27 51.04 -27 32 C-24.03 32 -21.06 32 -18 32 C-18 27.05 -18 22.1 -18 17 C-12.06 17 -6.12 17 0 17 C0 11.39 0 5.78 0 0 Z " fill="#FAF9F8" transform="translate(475,748)"/>
<path d="M0 0 C17.49 0 34.98 0 53 0 C53 4.62 53 9.24 53 14 C56.63 14 60.26 14 64 14 C64 21.92 64 29.84 64 38 C60.37 38 56.74 38 53 38 C53 41.63 53 45.26 53 49 C50.03 49 47.06 49 44 49 C44 51.64 44 54.28 44 57 C40.04 57 36.08 57 32 57 C32 64.59 32 72.18 32 80 C47.84 80 63.68 80 80 80 C80 73.4 80 66.8 80 60 C84.62 60 89.24 60 94 60 C94 65.61 94 71.22 94 77 C90.37 77 86.74 77 83 77 C83 81.29 83 85.58 83 90 C78.05 90 73.1 90 68 90 C68 101.22 68 112.44 68 124 C64.04 124 60.08 124 56 124 C56 128.29 56 132.58 56 137 C52.37 137 48.74 137 45 137 C45 140.3 45 143.6 45 147 C32.79 147 20.58 147 8 147 C8 143.37 8 139.74 8 136 C4.37 136 0.74 136 -3 136 C-3 131.71 -3 127.42 -3 123 C-6.96 123 -10.92 123 -15 123 C-15 112.44 -15 101.88 -15 91 C-19.95 91 -24.9 91 -30 91 C-30 86.38 -30 81.76 -30 77 C-33.63 77 -37.26 77 -41 77 C-41 71.39 -41 65.78 -41 60 C-36.38 60 -31.76 60 -27 60 C-27 66.6 -27 73.2 -27 80 C-11.49 80 4.02 80 20 80 C20 72.41 20 64.82 20 57 C16.04 57 12.08 57 8 57 C8 54.36 8 51.72 8 49 C5.03 49 2.06 49 -1 49 C-1 45.37 -1 41.74 -1 38 C-4.3 38 -7.6 38 -11 38 C-11 30.08 -11 22.16 -11 14 C-7.37 14 -3.74 14 0 14 C0 9.38 0 4.76 0 0 Z " fill="#0F0F0C" transform="translate(599,809)"/>
<path d="M0 0 C0.33 0 0.66 0 1 0 C1 6.6 1 13.2 1 20 C-3.62 20 -8.24 20 -13 20 C-13 30.23 -13 40.46 -13 51 C-14.98 51 -16.96 51 -19 51 C-19 58.92 -19 66.84 -19 75 C-12.4 75 -5.8 75 1 75 C1 69.72 1 64.44 1 59 C6.94 59 12.88 59 19 59 C19 53.39 19 47.78 19 42 C25.27 42 31.54 42 38 42 C38 37.05 38 32.1 38 27 C47.57 27 57.14 27 67 27 C67 21.72 67 16.44 67 11 C79.87 11 92.74 11 106 11 C106 16.94 106 22.88 106 29 C100.06 29 94.12 29 88 29 C88 34.94 88 40.88 88 47 C82.06 47 76.12 47 70 47 C70 55.25 70 63.5 70 72 C63.73 72 57.46 72 51 72 C51 79.59 51 87.18 51 95 C57.27 95 63.54 95 70 95 C70 115.13 70 135.26 70 156 C62.74 156 55.48 156 48 156 C48 149.73 48 143.46 48 137 C38.43 137 28.86 137 19 137 C19 131.39 19 125.78 19 120 C12.73 120 6.46 120 0 120 C0 114.06 0 108.12 0 102 C-6.6 102 -13.2 102 -20 102 C-20.21 46.32 -20.21 46.32 -19 19 C-12.73 19 -6.46 19 0 19 C0 12.73 0 6.46 0 0 Z " fill="#CC204B" transform="translate(308,674)"/>
<path d="M0 0 C0.33 0 0.66 0 1 0 C1 6.27 1 12.54 1 19 C7.27 19 13.54 19 20 19 C20 46.39 20 73.78 20 102 C13.4 102 6.8 102 0 102 C0 107.94 0 113.88 0 120 C-6.27 120 -12.54 120 -19 120 C-19 125.61 -19 131.22 -19 137 C-28.57 137 -38.14 137 -48 137 C-48 143.27 -48 149.54 -48 156 C-55.26 156 -62.52 156 -70 156 C-70 135.87 -70 115.74 -70 95 C-63.73 95 -57.46 95 -51 95 C-51 87.41 -51 79.82 -51 72 C-56.94 72 -62.88 72 -69 72 C-69 63.75 -69 55.5 -69 47 C-74.94 47 -80.88 47 -87 47 C-87 41.06 -87 35.12 -87 29 C-92.94 29 -98.88 29 -105 29 C-105 23.06 -105 17.12 -105 11 C-92.46 11 -79.92 11 -67 11 C-67 16.28 -67 21.56 -67 27 C-57.43 27 -47.86 27 -38 27 C-38 31.95 -38 36.9 -38 42 C-31.73 42 -25.46 42 -19 42 C-19 47.61 -19 53.22 -19 59 C-13.06 59 -7.12 59 -1 59 C-1 64.28 -1 69.56 -1 75 C5.6 75 12.2 75 19 75 C19 66.75 19 58.5 19 50 C17.35 50 15.7 50 14 50 C14 40.1 14 30.2 14 20 C9.38 20 4.76 20 0 20 C0 13.4 0 6.8 0 0 Z " fill="#CC204B" transform="translate(943,674)"/>
<path d="M0 0 C6.93 0 13.86 0 21 0 C21 54.78 21 109.56 21 166 C25.95 166 30.9 166 36 166 C36 164.37 36 162.75 35.99 161.07 C35.97 145.78 35.96 130.49 35.95 115.2 C35.94 107.34 35.94 99.48 35.92 91.62 C35.91 84.77 35.91 77.92 35.91 71.07 C35.9 67.44 35.9 63.81 35.89 60.18 C35.89 56.14 35.89 52.09 35.89 48.05 C35.88 46.84 35.88 45.62 35.88 44.37 C35.88 43.28 35.88 42.18 35.88 41.06 C35.88 40.1 35.88 39.14 35.88 38.15 C36 36 36 36 37 35 C39.86 34.93 42.7 34.91 45.56 34.94 C46.95 34.95 46.95 34.95 54 35 C54 28.73 54 22.46 54 16 C68.52 16 83.04 16 98 16 C98 29 98 29 97 36 C83.47 36 69.94 36 56 36 C56 85.5 56 135 56 186 C50.06 186 44.12 186 38 186 C38 192.93 38 199.86 38 207 C31.73 207 25.46 207 19 207 C19 193.8 19 180.6 19 167 C12.73 167 6.46 167 0 167 C0 111.89 0 56.78 0 0 Z " fill="#0C0E0E" transform="translate(966,283)"/>
<path d="M0 0 C0 55.44 0 110.88 0 168 C-6.27 168 -12.54 168 -19 168 C-19 181.2 -19 194.4 -19 208 C-24.94 208 -30.88 208 -37 208 C-37 201.07 -37 194.14 -37 187 C-42.94 187 -48.88 187 -55 187 C-55 137.5 -55 88 -55 37 C-68.2 37 -81.4 37 -95 37 C-95 30.73 -95 24.46 -95 18 C-81.47 18 -67.94 18 -54 18 C-54 24.27 -54 30.54 -54 37 C-47.73 37 -41.46 37 -35 37 C-35 79.9 -35 122.8 -35 167 C-30.05 167 -25.1 167 -20 167 C-20 112.22 -20 57.44 -20 1 C-1 0 -1 0 0 0 Z " fill="#0A0C0C" transform="translate(285,282)"/>
<path d="M0 0 C52.47 0 104.94 0 159 0 C159 4.62 159 9.24 159 14 C178.14 14 197.28 14 217 14 C217 19.28 217 24.56 217 30 C230.53 30 244.06 30 258 30 C258 30.33 258 30.66 258 31 C227.97 31 197.94 31 167 31 C167 28.69 167 26.38 167 24 C108.92 24 50.84 24 -9 24 C-9 26.31 -9 28.62 -9 31 C-25.5 31 -42 31 -59 31 C-59 25.39 -59 19.78 -59 14 C-39.53 14 -20.06 14 0 14 C0 9.38 0 4.76 0 0 Z " fill="#CB1F4A" transform="translate(547,637)"/>
<path d="M0 0 C99.33 0 198.66 0 301 0 C301 6.27 301 12.54 301 19 C201.67 19 102.34 19 0 19 C0 12.73 0 6.46 0 0 Z " fill="#0B0B0A" transform="translate(475,563)"/>
<path d="M0 0 C44.88 0 89.76 0 136 0 C136 7.59 136 15.18 136 23 C139.96 23 143.92 23 148 23 C148 36.53 148 50.06 148 64 C152.62 64 157.24 64 162 64 C162 72.58 162 81.16 162 90 C161.67 90 161.34 90 161 90 C161 81.75 161 73.5 161 65 C156.38 65 151.76 65 147 65 C147 51.47 147 37.94 147 24 C136.77 24 126.54 24 116 24 C116 28.95 116 33.9 116 39 C109.4 39 102.8 39 96 39 C96 43.29 96 47.58 96 52 C77.19 52 58.38 52 39 52 C39 47.71 39 43.42 39 39 C32.4 39 25.8 39 19 39 C19 33.72 19 28.44 19 23 C18.41 23.04 18.41 23.04 15.45 23.22 C13.86 23.31 12.27 23.41 10.69 23.5 C9.92 23.55 9.15 23.6 8.37 23.64 C2.21 24 -3.81 24 -10 24 C-10 37.2 -10 50.4 -10 64 C-10.33 64 -10.66 64 -11 64 C-11 50.47 -11 36.94 -11 23 C-7.37 23 -3.74 23 0 23 C0 15.41 0 7.82 0 0 Z " fill="#C87B3B" transform="translate(557,987)"/>
<path d="M0 0 C0 6.27 0 12.54 0 19 C5.94 19 11.88 19 18 19 C18 32.86 18 46.72 18 61 C11.73 61 5.46 61 -1 61 C-1 67.27 -1 73.54 -1 80 C-7.27 80 -13.54 80 -20 80 C-20 86.6 -20 93.2 -20 100 C-32.21 100 -44.42 100 -57 100 C-57 108.91 -57 117.82 -57 127 C-63.27 127 -69.54 127 -76 127 C-76 132.61 -76 138.22 -76 144 C-82.27 144 -88.54 144 -95 144 C-95 149.61 -95 155.22 -95 161 C-95.33 161 -95.66 161 -96 161 C-96 154.73 -96 148.46 -96 142 C-102.27 142 -108.54 142 -115 142 C-115 141.67 -115 141.34 -115 141 C-108.73 141 -102.46 141 -96 141 C-96 135.06 -96 129.12 -96 123 C-89.4 123 -82.8 123 -76 123 C-76 95.61 -76 68.22 -76 40 C-82.27 40 -88.54 40 -95 40 C-95.44 30.62 -95.44 30.62 -95.57 27.67 C-95.59 27.29 -95.59 27.29 -95.68 25.35 C-95.72 24.57 -95.76 23.78 -95.79 22.97 C-96 21 -96 21 -97 19 C-96.93 17.12 -96.93 17.12 -96.66 14.87 C-96.61 14.46 -96.61 14.46 -96.38 12.43 C-96.27 11.58 -96.17 10.74 -96.06 9.88 C-95.96 9.03 -95.86 8.18 -95.76 7.3 C-95.51 5.2 -95.26 3.1 -95 1 C-94.67 1 -94.34 1 -94 1 C-94 6.61 -94 12.22 -94 18 C-88.06 18 -82.12 18 -76 18 C-76 24.27 -76 30.54 -76 37 C-69.73 37 -63.46 37 -57 37 C-57 50.86 -57 64.72 -57 79 C-45.12 79 -33.24 79 -21 79 C-21 73.06 -21 67.12 -21 61 C-14.73 61 -8.46 61 -2 61 C-2 47.8 -2 34.6 -2 21 C-8.6 21 -15.2 21 -22 21 C-22 14.4 -22 7.8 -22 1 C-18.52 0.83 -15.04 0.67 -11.56 0.5 C-10.57 0.45 -9.58 0.4 -8.55 0.36 C-8.08 0.33 -8.08 0.33 -5.69 0.22 C-4.82 0.18 -3.94 0.13 -3.04 0.09 C-1 0 -1 0 0 0 Z " fill="#0D0E0E" transform="translate(1039,653)"/>
<path d="M0 0 C6.27 0 12.54 0 19 0 C19 6.93 19 13.86 19 21 C12.73 21 6.46 21 0 21 C0.01 22.63 0.02 24.27 0.04 25.95 C0.15 51.98 -0.44 77.98 -1 104 C5.6 104 12.2 104 19 104 C19 109.94 19 115.88 19 122 C25.27 122 31.54 122 38 122 C38 127.61 38 133.22 38 139 C47.57 139 57.14 139 67 139 C67 147.91 67 156.82 67 166 C66.67 166 66.34 166 66 166 C66 164.02 66 162.04 66 160 C56.76 160 47.52 160 38 160 C38 154.06 38 148.12 38 142 C31.4 142 24.8 142 18 142 C18 136.39 18 130.78 18 125 C11.73 125 5.46 125 -1 125 C-1 119.39 -1 113.78 -1 108 C-7.27 108 -13.54 108 -20 108 C-20 99.09 -20 90.18 -20 81 C-32.21 81 -44.42 81 -57 81 C-57 74.4 -57 67.8 -57 61 C-63.27 61 -69.54 61 -76 61 C-76 54.73 -76 48.46 -76 42 C-69.4 42 -62.8 42 -56 42 C-56 47.94 -56 53.88 -56 60 C-43.79 60 -31.58 60 -19 60 C-19 46.47 -19 32.94 -19 19 C-12.73 19 -6.46 19 0 19 C0 12.73 0 6.46 0 0 Z " fill="#0B0C0C" transform="translate(289,672)"/>
<path d="M0 0 C13.53 0 27.06 0 41 0 C41 6.27 41 12.54 41 19 C45.29 19 49.58 19 54 19 C54 33.52 54 48.04 54 63 C49.71 63 45.42 63 41 63 C41 69.27 41 75.54 41 82 C27.47 82 13.94 82 0 82 C0 75.73 0 69.46 0 63 C-5.28 63 -10.56 63 -16 63 C-16 48.48 -16 33.96 -16 19 C-10.72 19 -5.44 19 0 19 C0 12.73 0 6.46 0 0 Z " fill="#0E0F0E" transform="translate(732,768)"/>
<path d="M0 0 C13.53 0 27.06 0 41 0 C41 6.27 41 12.54 41 19 C46.28 19 51.56 19 57 19 C57 33.52 57 48.04 57 63 C51.72 63 46.44 63 41 63 C41 69.27 41 75.54 41 82 C27.47 82 13.94 82 0 82 C0 75.73 0 69.46 0 63 C-4.29 63 -8.58 63 -13 63 C-13 48.48 -13 33.96 -13 19 C-8.71 19 -4.42 19 0 19 C0 12.73 0 6.46 0 0 Z " fill="#0F100F" transform="translate(479,768)"/>
<path d="M0 0 C24.09 0 48.18 0 73 0 C73 5.61 73 11.22 73 17 C66.73 17 60.46 17 54 17 C54 23.27 54 29.54 54 36 C47.73 36 41.46 36 35 36 C35 49.86 35 63.72 35 78 C23.12 78 11.24 78 -1 78 C-1 72.06 -1 66.12 -1 60 C-7.27 60 -13.54 60 -20 60 C-20 46.8 -20 33.6 -20 20 C-13.4 20 -6.8 20 0 20 C0 13.4 0 6.8 0 0 Z " fill="#F8BC6F" transform="translate(234,654)"/>
<path d="M0 0 C23.76 0 47.52 0 72 0 C72 6.6 72 13.2 72 20 C78.6 20 85.2 20 92 20 C92 33.2 92 46.4 92 60 C85.73 60 79.46 60 73 60 C73 65.94 73 71.88 73 78 C61.12 78 49.24 78 37 78 C37 64.14 37 50.28 37 36 C30.73 36 24.46 36 18 36 C18 29.73 18 23.46 18 17 C12.06 17 6.12 17 0 17 C0 11.39 0 5.78 0 0 Z " fill="#F8BC6F" transform="translate(945,654)"/>
<path d="M0 0 C14.52 0 29.04 0 44 0 C44 10.23 44 20.46 44 31 C39.38 31 34.76 31 30 31 C30 44.53 30 58.06 30 72 C25.38 72 20.76 72 16 72 C16 80.58 16 89.16 16 98 C12.04 98 8.08 98 4 98 C4 103.94 4 109.88 4 116 C-0.95 116 -5.9 116 -11 116 C-11 88.28 -11 60.56 -11 32 C-7.37 32 -3.74 32 0 32 C0 21.44 0 10.88 0 0 Z " fill="#0E99DF" transform="translate(500,979)"/>
<path d="M0 0 C14.52 0 29.04 0 44 0 C44 10.56 44 21.12 44 32 C47.63 32 51.26 32 55 32 C55 59.39 55 86.78 55 115 C50.38 115 45.76 115 41 115 C41 109.39 41 103.78 41 98 C37.04 98 33.08 98 29 98 C29 89.09 29 80.18 29 71 C24.38 71 19.76 71 15 71 C15 57.8 15 44.6 15 31 C10.05 31 5.1 31 0 31 C0 20.77 0 10.54 0 0 Z " fill="#0D97DD" transform="translate(707,979)"/>
<path d="M0 0 C8.91 0 17.82 0 27 0 C27 6.93 27 13.86 27 21 C32.94 21 38.88 21 45 21 C45 26.94 45 32.88 45 39 C49.62 39 54.24 39 59 39 C59 43.95 59 48.9 59 54 C63.62 54 68.24 54 73 54 C73 59.28 73 64.56 73 70 C57.82 70 42.64 70 27 70 C27 73.63 27 77.26 27 81 C23.04 81 19.08 81 15 81 C15 85.29 15 89.58 15 94 C11.04 94 7.08 94 3 94 C3 65.95 3 37.9 3 9 C2.01 9 1.02 9 0 9 C0 6.03 0 3.06 0 0 Z " fill="#F6BC70" transform="translate(772,1011)"/>
<path d="M0 0 C8.91 0 17.82 0 27 0 C27 3.3 27 6.6 27 10 C25.68 10 24.36 10 23 10 C23.03 10.87 23.06 11.74 23.09 12.63 C24.02 40.09 24.11 67.53 24 95 C20.04 95 16.08 95 12 95 C12 90.71 12 86.42 12 82 C8.04 82 4.08 82 0 82 C0 78.37 0 74.74 0 71 C-15.18 71 -30.36 71 -46 71 C-46 65.72 -46 60.44 -46 55 C-41.38 55 -36.76 55 -32 55 C-32 50.05 -32 45.1 -32 40 C-27.38 40 -22.76 40 -18 40 C-18 34.06 -18 28.12 -18 22 C-12.06 22 -6.12 22 0 22 C0 14.74 0 7.48 0 0 Z " fill="#F4B96D" transform="translate(452,1010)"/>
<path d="M0 0 C7.59 0 15.18 0 23 0 C23 23.43 23 46.86 23 71 C15.74 71 8.48 71 1 71 C1 66.05 1 61.1 1 56 C-19.13 56 -39.26 56 -60 56 C-60 61.61 -60 67.22 -60 73 C-60.33 73 -60.66 73 -61 73 C-61 67.72 -61 62.44 -61 57 C-160 57 -259 57 -361 57 C-361 62.28 -361 67.56 -361 73 C-361.33 73 -361.66 73 -362 73 C-362 67.39 -362 61.78 -362 56 C-262.67 56 -163.34 56 -61 56 C-61 49.73 -61 43.46 -61 37 C-160.33 37 -259.66 37 -362 37 C-362 36.67 -362 36.34 -362 36 C-262.34 36 -162.68 36 -60 36 C-60 42.27 -60 48.54 -60 55 C-45.81 55 -31.62 55 -17 55 C-17 44.11 -17 33.22 -17 22 C-11.39 22 -5.78 22 0 22 C0 14.74 0 7.48 0 0 Z " fill="#B72447" transform="translate(837,526)"/>
<path d="M0 0 C0.33 0 0.66 0 1 0 C1 18.48 1 36.96 1 56 C8.59 56 16.18 56 24 56 C24 63.26 24 70.52 24 78 C29.94 78 35.88 78 42 78 C42 84.6 42 91.2 42 98 C46.62 98 51.24 98 56 98 C56 101.96 56 105.92 56 110 C64.91 110 73.82 110 83 110 C83 104.39 83 98.78 83 93 C83.33 93 83.66 93 84 93 C84 98.94 84 104.88 84 111 C63.87 111 43.74 111 23 111 C23 115.62 23 120.24 23 125 C15.74 125 8.48 125 1 125 C0.16 109.71 -0.13 94.51 -0.1 79.2 C-0.1 76.9 -0.09 74.6 -0.09 72.29 C-0.09 66.31 -0.08 60.33 -0.07 54.35 C-0.06 48.21 -0.05 42.08 -0.05 35.94 C-0.04 23.96 -0.02 11.98 0 0 Z " fill="#CB234D" transform="translate(391,470)"/>
<path d="M0 0 C19.8 0 39.6 0 60 0 C60 8.25 60 16.5 60 25 C51.75 25 43.5 25 35 25 C35 30.28 35 35.56 35 41 C19.16 41 3.32 41 -13 41 C-13 31.43 -13 21.86 -13 12 C-8.71 12 -4.42 12 0 12 C0 8.04 0 4.08 0 0 Z " fill="#755435" transform="translate(801,1093)"/>
<path d="M0 0 C19.8 0 39.6 0 60 0 C60 3.96 60 7.92 60 12 C64.29 12 68.58 12 73 12 C73 21.57 73 31.14 73 41 C57.16 41 41.32 41 25 41 C25 35.72 25 30.44 25 25 C16.75 25 8.5 25 0 25 C0 16.75 0 8.5 0 0 Z " fill="#765435" transform="translate(390,1093)"/>
<path d="M0 0 C17.49 0 34.98 0 53 0 C53 10.56 53 21.12 53 32 C50.03 32 47.06 32 44 32 C44 36.29 44 40.58 44 45 C32.45 45 20.9 45 9 45 C9 40.71 9 36.42 9 32 C6.03 32 3.06 32 0 32 C0 21.44 0 10.88 0 0 Z " fill="#F55C85" transform="translate(599,900)"/>
<path d="M0 0 C5.61 0 11.22 0 17 0 C17 10.89 17 21.78 17 33 C23.6 33 30.2 33 37 33 C37 39.93 37 46.86 37 54 C30.07 54 23.14 54 16 54 C16 61.92 16 69.84 16 78 C7.09 78 -1.82 78 -11 78 C-11 72.72 -11 67.44 -11 62 C-7.37 62 -3.74 62 0 62 C0 41.54 0 21.08 0 0 Z " fill="#42B8F5" transform="translate(891,480)"/>
<path d="M0 0 C5.28 0 10.56 0 16 0 C16 20.13 16 40.26 16 61 C19.96 61 23.92 61 28 61 C28 66.28 28 71.56 28 77 C19.09 77 10.18 77 1 77 C1 69.08 1 61.16 1 53 C-5.93 53 -12.86 53 -20 53 C-20 46.07 -20 39.14 -20 32 C-13.4 32 -6.8 32 0 32 C0 21.44 0 10.88 0 0 Z " fill="#43B9F5" transform="translate(343,481)"/>
<path d="M0 0 C16.17 0 32.34 0 49 0 C49 6.93 49 13.86 49 21 C46.36 21 43.72 21 41 21 C41 24.3 41 27.6 41 31 C29.78 31 18.56 31 7 31 C7 27.7 7 24.4 7 21 C4.69 21 2.38 21 0 21 C0 14.07 0 7.14 0 0 Z " fill="#056AE4" transform="translate(601,824)"/>
<path d="M0 0 C0.33 0 0.66 0 1 0 C1 2.31 1 4.62 1 7 C7.27 7 13.54 7 20 7 C20 7.99 20 8.98 20 10 C25.28 10 30.56 10 36 10 C36 14.29 36 18.58 36 23 C42.27 23 48.54 23 55 23 C55 23.33 55 23.66 55 24 C48.73 24 42.46 24 36 24 C36 29.94 36 35.88 36 42 C24.12 42 12.24 42 0 42 C0 28.14 0 14.28 0 0 Z " fill="#CB8243" transform="translate(982,690)"/>
<path d="M0 0 C3.63 0 7.26 0 11 0 C11 13.53 11 27.06 11 41 C6.38 41 1.76 41 -3 41 C-3 49.58 -3 58.16 -3 67 C-6.96 67 -10.92 67 -15 67 C-15 72.94 -15 78.88 -15 85 C-19.95 85 -24.9 85 -30 85 C-30 75.1 -30 65.2 -30 55 C-25.38 54.67 -20.76 54.34 -16 54 C-15.67 49.38 -15.34 44.76 -15 40 C-10.05 40 -5.1 40 0 40 C0 26.8 0 13.6 0 0 Z " fill="#0271BB" transform="translate(519,1010)"/>
<path d="M0 0 C14.19 0 28.38 0 43 0 C43 6.6 43 13.2 43 20 C42.67 20 42.34 20 42 20 C42 13.73 42 7.46 42 1 C28.47 1 14.94 1 1 1 C1 7.27 1 13.54 1 20 C14.2 20 27.4 20 41 20 C41 69.5 41 119 41 170 C46.94 170 52.88 170 59 170 C59 176.93 59 183.86 59 191 C58.67 191 58.34 191 58 191 C58 184.4 58 177.8 58 171 C52.06 171 46.12 171 40 171 C40 121.5 40 72 40 21 C27.13 21 14.26 21 1 21 C1 33.21 1 45.42 1 58 C-4.94 58 -10.88 58 -17 58 C-17 71.2 -17 84.4 -17 98 C-17.33 98 -17.66 98 -18 98 C-18 84.8 -18 71.6 -18 58 C-24.27 58 -30.54 58 -37 58 C-37 65.26 -37 72.52 -37 80 C-37.33 80 -37.66 80 -38 80 C-38 72.41 -38 64.82 -38 57 C-31.4 57 -24.8 57 -18 57 C-18 44.46 -18 31.92 -18 19 C-12.06 19 -6.12 19 0 19 C0 12.73 0 6.46 0 0 Z " fill="#1C1E1B" transform="translate(189,299)"/>
<path d="M0 0 C16.83 0 33.66 0 51 0 C51 6.93 51 13.86 51 21 C58.59 21 66.18 21 74 21 C74 28.59 74 36.18 74 44 C80.6 44 87.2 44 94 44 C94 44.33 94 44.66 94 45 C78.98 45.88 64.05 46.09 49 46 C49 38.41 49 30.82 49 23 C31.84 23 14.68 23 -3 23 C-3 16.07 -3 9.14 -3 2 C-107.94 2 -212.88 2 -321 2 C-321 8.93 -321 15.86 -321 23 C-321.33 23 -321.66 23 -322 23 C-322 15.74 -322 8.48 -322 1 C-216.4 1 -110.8 1 -2 1 C-2 7.93 -2 14.86 -2 22 C6.41 21.83 6.41 21.83 49 21 C49.33 14.4 49.66 7.8 50 1 C33.5 1 17 1 0 1 C0 0.67 0 0.34 0 0 Z " fill="#381E25" transform="translate(788,252)"/>
<path d="M0 0 C17.49 0 34.98 0 53 0 C53 10.56 53 21.12 53 32 C50.03 32 47.06 32 44 32 C44 31.67 44 31.34 44 31 C46.64 31 49.28 31 52 31 C52 26.71 52 22.42 52 18 C49.03 18 46.06 18 43 18 C43 16.02 43 14.04 43 12 C32.11 12 21.22 12 10 12 C10 13.98 10 15.96 10 18 C7.03 18 4.06 18 1 18 C1 22.29 1 26.58 1 31 C3.64 31 6.28 31 9 31 C9 31.33 9 31.66 9 32 C6.03 32 3.06 32 0 32 C0 21.44 0 10.88 0 0 Z " fill="#C8254E" transform="translate(599,900)"/>
<path d="M0 0 C4.62 0 9.24 0 14 0 C14 3.3 14 6.6 14 10 C13.01 10 12.02 10 11 10 C11 27.16 11 44.32 11 62 C7.37 62 3.74 62 0 62 C0 41.54 0 21.08 0 0 Z " fill="#171613" transform="translate(437,770)"/>
<path d="M0 0 C4.62 0 9.24 0 14 0 C14 20.79 14 41.58 14 63 C10.7 63 7.4 63 4 63 C4 45.51 4 28.02 4 10 C2.68 10 1.36 10 0 10 C0 6.7 0 3.4 0 0 Z " fill="#12110E" transform="translate(800,770)"/>
<path d="M0 0 C11.88 0 23.76 0 36 0 C36 5.94 36 11.88 36 18 C24.12 18 12.24 18 0 18 C0 12.06 0 6.12 0 0 Z " fill="#F7BD70" transform="translate(233,714)"/>
<path d="M0 0 C0.33 0 0.66 0 1 0 C1 12.87 1 25.74 1 39 C6.94 39 12.88 39 19 39 C19 34.71 19 30.42 19 26 C24.28 26 29.56 26 35 26 C35 25.01 35 24.02 35 23 C41.6 23 48.2 23 55 23 C55 28.61 55 34.22 55 40 C36.85 40 18.7 40 0 40 C0 26.8 0 13.6 0 0 Z " fill="#C87E3F" transform="translate(214,674)"/>
<path d="M0 0 C11.55 0 23.1 0 35 0 C35 5.61 35 11.22 35 17 C23.45 17 11.9 17 0 17 C0 11.39 0 5.78 0 0 Z " fill="#F8BD6F" transform="translate(983,715)"/>
<path d="M0 0 C0.33 0 0.66 0 1 0 C1 6.27 1 12.54 1 19 C25.09 19 49.18 19 74 19 C74 19.33 74 19.66 74 20 C49.91 20 25.82 20 1 20 C1 26.6 1 33.2 1 40 C-1.91 40.02 -4.82 40.04 -7.81 40.06 C-8.68 40.07 -9.55 40.08 -10.45 40.09 C-19.69 40.12 -28.72 39.49 -38 39 C-38 52.53 -38 66.06 -38 80 C-38.33 80 -38.66 80 -39 80 C-39 66.14 -39 52.28 -39 38 C-32.73 38 -26.46 38 -20 38 C-20 31.73 -20 25.46 -20 19 C-13.4 19 -6.8 19 0 19 C0 12.73 0 6.46 0 0 Z " fill="#1B201D" transform="translate(233,634)"/>
<path d="M0 0 C14.52 0 29.04 0 44 0 C44 4.29 44 8.58 44 13 C29.48 13 14.96 13 0 13 C0 8.71 0 4.42 0 0 Z " fill="#16130F" transform="translate(731,723)"/>
<path d="M0 0 C14.52 0 29.04 0 44 0 C44 4.29 44 8.58 44 13 C29.48 13 14.96 13 0 13 C0 8.71 0 4.42 0 0 Z " fill="#16130E" transform="translate(476,723)"/>
<path d="M0 0 C4.29 0.16 4.29 0.16 26 1 C26 10.57 26 20.14 26 30 C21.38 30 16.76 30 12 30 C12 24.39 12 18.78 12 13 C8.04 13 4.08 13 0 13 C0 8.71 0 4.42 0 0 Z " fill="#0372BC" transform="translate(736,1064)"/>
<path d="M0 0 C3.63 0 7.26 0 11 0 C11 13.53 11 27.06 11 41 C6.38 41 1.76 41 -3 41 C-3 49.58 -3 58.16 -3 67 C-6.96 67 -10.92 67 -15 67 C-15 72.94 -15 78.88 -15 85 C-15.33 85 -15.66 85 -16 85 C-16 78.73 -16 72.46 -16 66 C-12.04 66 -8.08 66 -4 66 C-4 57.42 -4 48.84 -4 40 C-2.68 40 -1.36 40 0 40 C0 26.8 0 13.6 0 0 Z " fill="#0567AA" transform="translate(519,1010)"/>
<path d="M0 0 C0 6.27 0 12.54 0 19 C5.94 19 11.88 19 18 19 C18 19.33 18 19.66 18 20 C11.73 20 5.46 20 -1 20 C-1 33.53 -1 47.06 -1 61 C-1.33 61 -1.66 61 -2 61 C-2 47.8 -2 34.6 -2 21 C-8.6 21 -15.2 21 -22 21 C-22 14.4 -22 7.8 -22 1 C-18.52 0.83 -15.04 0.67 -11.56 0.5 C-10.57 0.45 -9.58 0.4 -8.55 0.36 C-7.61 0.31 -6.66 0.27 -5.69 0.22 C-4.82 0.18 -3.94 0.13 -3.04 0.09 C-1 0 -1 0 0 0 Z " fill="#191B18" transform="translate(1039,653)"/>
<path d="M0 0 C14.52 0 29.04 0 44 0 C44 10.23 44 20.46 44 31 C39.38 31 34.76 31 30 31 C30 21.1 30 11.2 30 1 C20.43 1 10.86 1 1 1 C1 10.9 1 20.8 1 31 C0.67 31 0.34 31 0 31 C0 20.77 0 10.54 0 0 Z " fill="#066FB3" transform="translate(500,979)"/>
<path d="M0 0 C6.6 0 13.2 0 20 0 C20 5.94 20 11.88 20 18 C31.88 18 43.76 18 56 18 C56 18.33 56 18.66 56 19 C44.12 19 32.24 19 20 19 C20 25.27 20 31.54 20 38 C31.88 38 43.76 38 56 38 C56 38.33 56 38.66 56 39 C43.79 39 31.58 39 19 39 C19 32.4 19 25.8 19 19 C12.73 19 6.46 19 0 19 C0 12.73 0 6.46 0 0 Z " fill="#131818" transform="translate(213,714)"/>
<path d="M0 0 C10.89 0 21.78 0 33 0 C33 4.62 33 9.24 33 14 C22.11 14 11.22 14 0 14 C-1 2 -1 2 0 0 Z " fill="#C91F4A" transform="translate(805,670)"/>
<path d="M0 0 C0 4.95 0 9.9 0 15 C-10.56 15 -21.12 15 -32 15 C-32 10.38 -32 5.76 -32 1 C-27.6 0.86 -23.21 0.71 -18.81 0.57 C-17.31 0.52 -15.82 0.48 -14.32 0.43 C-12.17 0.36 -10.03 0.29 -7.88 0.22 C-6.59 0.18 -5.29 0.13 -3.96 0.09 C-1 0 -1 0 0 0 Z " fill="#CB204B" transform="translate(446,669)"/>
<path d="M0 0 C13.2 0 26.4 0 40 0 C40 3.63 40 7.26 40 11 C26.8 11 13.6 11 0 11 C0 7.37 0 3.74 0 0 Z " fill="#2AA3F9" transform="translate(601,824)"/>
<path d="M0 0 C1.05 0 2.11 0 3.19 0 C20.81 0.03 38.26 0.51 55.81 2.19 C57.12 2.31 58.43 2.43 59.78 2.56 C88.71 5.36 117.39 10.31 145.69 16.94 C146.3 17.08 146.3 17.08 149.4 17.79 C150.5 18.06 151.61 18.33 152.74 18.61 C153.22 18.73 153.22 18.73 155.66 19.32 C156.01 19.46 156.01 19.46 157.81 20.19 C158.14 21.18 158.47 22.17 158.81 23.19 C154.02 22.14 149.24 21.06 144.48 19.89 C127.32 15.73 110.07 12.62 92.65 9.81 C89.53 9.3 86.41 8.78 83.29 8.25 C56.55 3.88 29.35 2.9 2.31 2.94 C1.26 2.94 0.2 2.94 -0.88 2.94 C-15.67 2.97 -30.42 3.43 -45.19 4.19 C-45.52 3.53 -45.85 2.87 -46.19 2.19 C-41.92 1.2 -37.68 0.87 -33.32 0.64 C-32.54 0.59 -31.76 0.55 -30.96 0.51 C-20.64 0.01 -10.32 -0.01 0 0 Z " fill="#E8E7E7" transform="translate(626.1875,14.8125)"/>
<path d="M0 0 C6.27 0 12.54 0 19 0 C19 6.27 19 12.54 19 19 C13.06 19 7.12 19 1 19 C1 24.94 1 30.88 1 37 C-3.62 37 -8.24 37 -13 37 C-13 36.67 -13 36.34 -13 36 C-8.71 36 -4.42 36 0 36 C0 24.12 0 12.24 0 0 Z " fill="#191711" transform="translate(433,1013)"/>
<path d="M0 0 C6.27 0 12.54 0 19 0 C19 6.27 19 12.54 19 19 C23.29 19 27.58 19 32 19 C32.33 25.27 32.66 31.54 33 38 C27.72 38 22.44 38 17 38 C17 32.06 17 26.12 17 20 C11.06 20 5.12 20 -1 20 C-1 19.67 -1 19.34 -1 19 C5.27 19 11.54 19 18 19 C18 13.06 18 7.12 18 1 C12.06 1 6.12 1 0 1 C0 0.67 0 0.34 0 0 Z " fill="#1E201C" transform="translate(800,1012)"/>
<path d="M0 0 C0.33 0 0.66 0 1 0 C1 6.27 1 12.54 1 19 C7.27 19 13.54 19 20 19 C20 46.39 20 73.78 20 102 C13.4 102 6.8 102 0 102 C0 101.67 0 101.34 0 101 C6.27 101 12.54 101 19 101 C19 84.17 19 67.34 19 50 C17.35 50 15.7 50 14 50 C14 40.1 14 30.2 14 20 C9.38 20 4.76 20 0 20 C0 13.4 0 6.8 0 0 Z " fill="#A6213F" transform="translate(943,674)"/>
<path d="M0 0 C5.94 0 11.88 0 18 0 C18 5.28 18 10.56 18 16 C12.06 16 6.12 16 0 16 C0 10.72 0 5.44 0 0 Z " fill="#12110E" transform="translate(457,748)"/>
<path d="M0 0 C5.61 0 11.22 0 17 0 C17 5.28 17 10.56 17 16 C11.39 16 5.78 16 0 16 C0 10.72 0 5.44 0 0 Z " fill="#0D0C0A" transform="translate(777,748)"/>
</svg>
