<?xml version='1.0' encoding='utf-8'?>
<svg xmlns="http://www.w3.org/2000/svg" version="1.1" viewBox="0.00 0.00 1254.00 1254.00" width="76.2000mm" height="76.2000mm"><g id="thread-pink" fill="#f45b78"><path id="path_001" d="   M 860.25 526.02   L 837.93 525.97   A 1.04 1.03 -89.7 0 0 836.89 527.01   L 836.89 546.52   A 1.41 1.41 0.0 0 1 835.48 547.93   L 820.80 547.93   A 0.67 0.67 0.0 0 0 820.13 548.60   L 820.16 581.32   L 777.65 581.38   A 0.76 0.75 0.0 0 1 776.89 580.63   L 776.89 563.08   A 0.66 0.65 90.0 0 0 776.24 562.42   L 475.31 562.42   A 0.57 0.57 0.0 0 0 474.74 562.99   L 474.74 580.15   A 0.96 0.95 0.0 0 1 473.78 581.10   L 446.75 581.06   Q 447.76 575.02 447.24 568.99   A 1.15 1.13 86.8 0 0 446.08 567.94   L 433.74 568.25   A 0.85 0.84 -0.0 0 1 432.87 567.39   C 432.92 565.43 433.38 562.45 433.14 559.90   Q 432.57 553.84 432.81 548.75   A 1.35 1.34 -89.4 0 0 431.43 547.34   L 416.05 547.73   A 0.73 0.73 0.0 0 1 415.31 547.00   L 415.31 526.49   A 0.81 0.81 0.0 0 0 414.48 525.68   L 391.39 526.12   L 391.34 470.76   A 0.87 0.87 0.0 0 0 390.47 469.89   L 371.21 469.89   A 0.86 0.85 -90.0 0 1 370.36 469.03   L 370.36 355.29   A 0.72 0.72 0.0 0 1 371.08 354.57   L 391.02 354.57   A 0.92 0.92 0.0 0 0 391.94 353.65   L 391.94 298.25   A 0.88 0.87 -90.0 0 1 392.81 297.37   L 414.48 297.37   A 0.94 0.94 0.0 0 0 415.42 296.43   L 415.42 275.60   A 0.74 0.73 -0.0 0 1 416.16 274.87   L 465.90 274.87   A 0.71 0.70 90.0 0 0 466.60 274.16   L 466.60 254.43   A 0.84 0.84 0.0 0 1 467.44 253.59   L 784.99 253.59   A 0.69 0.69 0.0 0 1 785.68 254.28   L 785.68 274.39   A 0.64 0.64 0.0 0 0 786.32 275.03   L 835.99 275.03   A 0.96 0.95 -90.0 0 1 836.94 275.99   L 836.94 297.42   A 0.41 0.41 0.0 0 0 837.35 297.83   L 859.84 297.83   A 0.76 0.76 0.0 0 1 860.60 298.59   L 860.60 353.96   A 0.57 0.57 0.0 0 0 861.17 354.53   L 880.71 354.53   A 0.86 0.86 0.0 0 1 881.57 355.39   L 881.57 469.25   A 0.73 0.73 0.0 0 1 880.84 469.98   L 860.81 469.98   A 0.54 0.54 0.0 0 0 860.27 470.52   L 860.25 526.02   Z   M 705.31 467.81   L 705.31 451.19   A 0.52 0.52 0.0 0 0 704.79 450.67   L 686.49 450.67   A 0.62 0.62 0.0 0 1 685.87 450.05   L 685.87 435.20   A 0.51 0.51 0.0 0 1 686.38 434.69   L 704.59 434.69   A 0.78 0.77 90.0 0 0 705.36 433.91   L 705.36 416.22   A 0.59 0.58 -0.0 0 1 705.95 415.64   L 723.43 415.64   A 0.51 0.51 0.0 0 0 723.94 415.13   L 723.94 397.57   A 0.62 0.62 0.0 0 1 724.56 396.95   L 744.79 396.95   A 0.59 0.59 0.0 0 0 745.38 396.36   L 745.38 367.79   A 0.52 0.52 0.0 0 0 744.86 367.27   L 725.33 367.27   A 0.86 0.85 0.0 0 1 724.47 366.42   L 724.47 349.18   A 0.47 0.46 90.0 0 0 724.01 348.71   L 706.32 348.71   A 1.04 1.03 -0.0 0 1 705.28 347.68   L 705.28 329.12   A 0.60 0.60 0.0 0 0 704.68 328.52   L 669.30 328.52   A 0.41 0.40 0.0 0 0 668.89 328.92   L 668.89 347.29   A 0.57 0.56 90.0 0 1 668.33 347.86   L 649.74 347.86   A 0.51 0.51 0.0 0 0 649.23 348.37   L 649.23 366.59   A 0.59 0.58 0.0 0 1 648.64 367.17   L 632.36 367.17   A 0.43 0.43 0.0 0 0 631.93 367.60   L 631.93 385.06   A 0.66 0.66 0.0 0 1 631.27 385.72   L 618.83 385.72   A 0.54 0.53 90.0 0 1 618.30 385.18   L 618.30 367.21   A 0.36 0.36 0.0 0 0 617.93 366.85   L 601.59 367.26   A 1.01 1.00 -0.6 0 1 600.56 366.26   L 600.56 348.54   A 0.56 0.55 90.0 0 0 600.01 347.98   L 580.80 347.98   A 0.66 0.66 0.0 0 1 580.14 347.32   L 580.14 329.03   A 0.50 0.50 0.0 0 0 579.64 328.53   L 543.55 328.53   A 0.53 0.52 -0.0 0 0 543.02 329.05   L 543.02 348.13   A 0.72 0.72 0.0 0 1 542.30 348.85   L 525.37 348.85   A 0.55 0.55 0.0 0 0 524.82 349.40   L 524.82 366.53   A 0.65 0.65 0.0 0 1 524.17 367.18   L 505.79 367.18   A 0.45 0.45 0.0 0 0 505.34 367.63   L 505.34 395.62   A 0.43 0.43 0.0 0 0 505.77 396.05   L 524.16 396.05   A 0.79 0.79 0.0 0 1 524.95 396.84   L 524.95 414.45   A 0.45 0.45 0.0 0 0 525.40 414.90   L 542.57 414.90   A 0.70 0.69 90.0 0 1 543.26 415.60   L 543.26 434.02   A 0.70 0.70 0.0 0 0 543.96 434.72   L 560.21 434.72   A 0.89 0.88 -90.0 0 1 561.09 435.61   L 561.09 449.91   A 0.69 0.69 0.0 0 1 560.40 450.60   L 543.87 450.60   A 0.73 0.72 0.0 0 0 543.14 451.32   L 543.14 467.83   A 0.70 0.69 -90.0 0 1 542.45 468.53   L 525.51 468.53   A 0.64 0.63 0.0 0 0 524.87 469.16   L 524.87 486.52   A 1.03 1.03 0.0 0 1 523.84 487.55   L 506.36 487.55   A 0.57 0.57 0.0 0 0 505.79 488.12   L 505.79 515.47   A 0.80 0.80 0.0 0 0 506.59 516.27   L 524.18 516.27   A 0.89 0.89 0.0 0 1 525.07 517.16   L 525.07 533.39   A 0.86 0.86 0.0 0 0 525.93 534.25   L 542.12 534.25   A 1.26 1.25 -90.0 0 1 543.37 535.51   L 543.37 551.97   A 0.60 0.60 0.0 0 0 543.98 552.57   L 579.61 551.67   A 0.55 0.55 0.0 0 0 580.15 551.12   L 580.15 532.09   A 0.86 0.86 0.0 0 1 581.01 531.23   L 600.35 531.23   A 0.63 0.62 -0.0 0 0 600.98 530.61   L 600.98 511.75   A 0.58 0.57 -90.0 0 1 601.55 511.17   L 618.05 511.17   A 0.60 0.60 0.0 0 0 618.65 510.57   L 618.65 492.69   A 0.51 0.50 -0.0 0 1 619.16 492.19   L 632.29 492.19   A 0.58 0.58 0.0 0 1 632.82 493.01   Q 632.29 494.13 632.22 495.24   Q 631.61 503.89 632.05 510.77   A 0.51 0.51 0.0 0 0 632.56 511.25   L 648.18 511.25   A 0.68 0.67 -90.0 0 1 648.85 511.93   L 648.85 530.35   A 1.00 0.99 -0.0 0 0 649.85 531.34   L 667.97 531.34   A 0.88 0.87 90.0 0 1 668.84 532.22   L 668.84 551.49   A 0.57 0.57 0.0 0 0 669.41 552.06   L 704.77 552.06   A 0.54 0.54 0.0 0 0 705.31 551.52   L 705.31 534.86   A 0.65 0.64 -90.0 0 1 705.95 534.21   L 722.79 534.21   A 0.98 0.98 0.0 0 0 723.77 533.23   L 723.77 516.86   A 0.63 0.63 0.0 0 1 724.40 516.23   L 743.74 516.23   A 1.04 1.04 0.0 0 0 744.78 515.19   L 744.78 486.82   A 0.29 0.28 90.0 0 0 744.50 486.53   L 724.42 486.53   A 0.54 0.54 0.0 0 1 723.88 485.99   L 723.88 469.17   A 0.63 0.63 0.0 0 0 723.25 468.54   L 706.04 468.54   A 0.73 0.73 0.0 0 1 705.31 467.81   Z" />
<path id="path_002" d="   M 956.36 693.65   C 956.61 698.99 955.59 705.73 956.26 712.00   C 956.72 716.38 956.65 718.55 956.75 723.07   A 1.51 1.51 0.0 0 0 958.39 724.55   Q 960.70 724.35 962.83 725.05   L 962.73 748.45   L 962.45 748.74   A 0.46 0.45 -42.3 0 1 961.77 748.71   Q 961.49 748.37 961.01 748.36   Q 957.53 748.31 943.46 749.12   A 1.58 1.58 0.0 0 1 941.79 747.53   L 941.94 733.49   A 1.00 0.99 0.3 0 0 940.94 732.49   L 924.56 732.49   A 0.64 0.63 90.0 0 1 923.93 731.85   L 923.93 717.48   A 0.85 0.85 0.0 0 0 923.09 716.63   L 905.85 716.45   A 1.02 1.01 0.3 0 1 904.84 715.44   L 904.84 702.48   A 1.14 1.14 0.0 0 0 903.71 701.34   L 877.13 701.07   A 0.96 0.96 0.0 0 1 876.18 700.10   L 876.33 685.38   A 0.53 0.53 0.0 0 0 875.79 684.84   Q 866.86 684.92 854.78 684.45   C 849.17 684.23 843.39 684.64 837.71 685.12   Q 837.83 684.77 837.35 684.31   Q 838.66 677.00 838.09 670.64   A 1.56 1.55 85.6 0 0 836.45 669.23   Q 820.15 670.26 805.33 668.53   Q 784.59 667.08 763.72 668.04   L 764.45 651.25   A 0.76 0.76 0.0 0 0 763.66 650.46   C 748.36 651.03 733.08 650.25 717.80 650.75   C 714.16 650.87 710.02 650.37 706.49 650.29   A 0.92 0.91 0.6 0 1 705.59 649.38   L 705.59 637.88   A 0.50 0.50 0.0 0 0 705.13 637.38   C 694.21 636.55 683.47 637.06 671.35 637.09   Q 610.03 637.25 566.54 637.05   C 559.38 637.01 553.16 637.60 547.40 637.37   A 0.59 0.59 0.0 0 0 546.79 637.96   L 546.79 649.82   A 0.87 0.87 0.0 0 1 545.92 650.69   L 488.12 650.69   A 0.48 0.47 -89.4 0 0 487.65 651.16   L 487.39 668.31   L 445.85 668.46   Q 435.63 669.68 430.50 669.61   Q 417.27 669.41 414.91 669.44   A 1.17 1.16 89.8 0 0 413.76 670.61   L 413.76 683.72   A 0.91 0.91 0.0 0 1 412.85 684.63   L 375.33 684.63   A 0.69 0.68 0.0 0 0 374.64 685.31   L 374.64 700.14   A 1.01 1.01 0.0 0 1 373.63 701.15   L 347.29 701.15   A 1.14 1.13 0.3 0 0 346.15 702.27   L 346.02 715.68   A 0.80 0.80 0.0 0 1 345.22 716.47   L 327.85 716.47   A 0.74 0.74 0.0 0 0 327.11 717.20   L 326.97 731.75   A 0.87 0.86 0.3 0 1 326.10 732.60   L 309.41 732.60   A 0.36 0.35 -90.0 0 0 309.06 732.96   L 309.06 748.03   A 0.88 0.87 -0.3 0 1 308.19 748.90   L 288.41 749.15   L 288.46 724.80   L 294.02 724.16   A 0.88 0.87 86.4 0 0 294.79 723.28   C 294.75 719.18 295.02 716.70 295.60 712.52   Q 295.76 711.33 295.56 707.97   Q 295.15 700.93 294.89 693.67   L 307.48 693.52   A 0.73 0.73 0.0 0 0 308.20 692.80   L 308.39 674.54   A 0.50 0.50 0.0 0 1 308.89 674.04   L 324.56 674.04   A 0.78 0.78 0.0 0 0 325.34 673.26   L 325.34 634.91   A 0.48 0.48 0.0 0 1 325.82 634.43   L 370.19 634.43   A 0.66 0.66 0.0 0 0 370.85 633.78   L 371.02 616.70   A 0.63 0.63 0.0 0 1 371.65 616.07   L 413.60 616.07   A 0.74 0.74 0.0 0 0 414.34 615.33   L 414.34 599.78   A 0.49 0.49 0.0 0 1 414.83 599.29   L 474.70 599.29   A 0.62 0.62 0.0 0 0 475.32 598.67   L 475.48 583.31   A 0.79 0.79 0.0 0 1 476.27 582.53   L 775.51 582.53   A 0.62 0.62 0.0 0 1 776.13 583.16   L 775.98 598.71   A 0.59 0.59 0.0 0 0 776.57 599.31   L 836.63 599.31   A 0.71 0.71 0.0 0 1 837.34 600.02   L 837.34 615.64   A 0.49 0.49 0.0 0 0 837.83 616.13   L 879.97 616.13   A 0.45 0.45 0.0 0 1 880.42 616.58   L 880.42 633.86   A 0.53 0.52 0.0 0 0 880.95 634.38   L 925.65 634.38   A 0.62 0.62 0.0 0 1 926.27 635.00   L 926.27 673.14   A 0.95 0.95 0.0 0 0 927.22 674.09   L 942.69 674.09   A 0.53 0.52 -0.0 0 1 943.22 674.61   L 943.22 692.80   A 0.72 0.72 0.0 0 0 943.93 693.52   L 956.36 693.65   Z" />
<path id="path_003" d="   M 651.36 917.99   L 651.52 930.91   A 0.69 0.69 0.0 0 1 650.83 931.61   L 643.17 931.61   A 0.80 0.79 -90.0 0 0 642.38 932.41   L 642.38 943.76   A 0.67 0.67 0.0 0 1 641.71 944.43   L 609.19 944.43   A 0.72 0.72 0.0 0 1 608.47 943.71   L 608.47 932.25   A 0.78 0.78 0.0 0 0 607.69 931.47   L 600.42 931.47   A 0.95 0.95 0.0 0 1 599.47 930.52   L 599.47 918.28   L 608.63 917.96   A 1.08 1.08 0.0 0 0 609.67 916.89   L 609.71 913.25   A 0.74 0.73 -2.1 0 1 610.40 912.52   C 621.08 911.78 630.96 911.13 641.29 912.50   A 0.94 0.94 0.0 0 1 642.10 913.41   L 642.20 917.14   A 1.26 1.26 0.0 0 0 643.52 918.37   L 651.36 917.99   Z" />
<path id="path_038" d="   M 446.75 581.06   L 414.27 580.89   A 0.43 0.42 -0.0 0 0 413.84 581.31   L 413.84 594.39   A 0.58 0.58 0.0 0 1 413.28 594.97   Q 402.24 595.48 392.86 594.62   A 0.81 0.80 3.4 0 1 392.13 593.80   Q 392.37 587.45 391.93 579.78   C 390.92 562.00 391.16 543.98 391.39 526.12   L 414.48 525.68   A 0.81 0.81 0.0 0 1 415.31 526.49   L 415.31 547.00   A 0.73 0.73 0.0 0 0 416.05 547.73   L 431.43 547.34   A 1.35 1.34 -89.4 0 1 432.81 548.75   Q 432.57 553.84 433.14 559.90   C 433.38 562.45 432.92 565.43 432.87 567.39   A 0.85 0.84 -0.0 0 0 433.74 568.25   L 446.08 567.94   A 1.15 1.13 86.8 0 1 447.24 568.99   Q 447.76 575.02 446.75 581.06   Z" />
<path id="path_039" d="   M 860.25 526.02   Q 860.77 534.85 860.47 543.19   Q 859.86 560.01 859.86 560.33   Q 859.87 579.20 859.59 596.28   A 0.55 0.55 0.0 0 1 859.04 596.82   L 839.53 596.82   A 1.32 1.32 0.0 0 1 838.21 595.48   L 838.35 581.88   A 0.59 0.59 0.0 0 0 837.76 581.29   L 820.16 581.32   L 820.13 548.60   A 0.67 0.67 0.0 0 1 820.80 547.93   L 835.48 547.93   A 1.41 1.41 0.0 0 0 836.89 546.52   L 836.89 527.01   A 1.04 1.03 -89.7 0 1 837.93 525.97   L 860.25 526.02   Z" />
<path id="path_040" d="   M 763.72 668.04   L 714.49 668.15   A 0.63 0.62 -0.0 0 1 713.86 667.53   L 713.86 661.48   A 0.76 0.76 0.0 0 0 713.10 660.72   L 538.66 660.72   A 0.50 0.50 0.0 0 0 538.16 661.21   L 538.10 667.48   A 0.82 0.82 0.0 0 1 537.28 668.29   L 487.39 668.31   L 487.65 651.16   A 0.48 0.47 -89.4 0 1 488.12 650.69   L 545.92 650.69   A 0.87 0.87 0.0 0 0 546.79 649.82   L 546.79 637.96   A 0.59 0.59 0.0 0 1 547.40 637.37   C 553.16 637.60 559.38 637.01 566.54 637.05   Q 610.03 637.25 671.35 637.09   C 683.47 637.06 694.21 636.55 705.13 637.38   A 0.50 0.50 0.0 0 1 705.59 637.88   L 705.59 649.38   A 0.92 0.91 0.6 0 0 706.49 650.29   C 710.02 650.37 714.16 650.87 717.80 650.75   C 733.08 650.25 748.36 651.03 763.66 650.46   A 0.76 0.76 0.0 0 1 764.45 651.25   L 763.72 668.04   Z" />
<path id="path_041" d="   M 445.85 668.46   L 445.61 683.56   A 0.82 0.82 0.0 0 1 444.79 684.36   L 414.71 684.36   A 0.62 0.62 0.0 0 0 414.09 684.98   L 413.92 701.54   A 1.32 1.31 0.2 0 1 412.60 702.84   L 396.30 702.84   A 0.50 0.49 -90.0 0 0 395.81 703.34   L 395.81 720.09   A 0.92 0.92 0.0 0 1 394.89 721.01   L 378.65 721.01   A 0.64 0.64 0.0 0 0 378.01 721.65   L 378.01 745.20   A 0.93 0.93 0.0 0 1 377.08 746.13   L 359.85 746.13   A 0.46 0.45 0.0 0 0 359.39 746.58   L 359.17 767.90   A 1.13 1.13 0.0 0 0 360.30 769.04   L 377.51 769.04   A 0.42 0.41 -90.0 0 1 377.92 769.46   L 377.92 828.92   A 1.04 1.04 0.0 0 1 376.88 829.96   L 356.96 829.96   A 1.00 0.99 0.0 0 1 355.96 828.97   L 355.96 811.26   A 0.65 0.64 90.0 0 0 355.32 810.61   L 328.23 810.61   A 0.60 0.60 0.0 0 1 327.63 810.03   L 327.25 794.79   A 0.57 0.57 0.0 0 0 326.69 794.23   L 309.25 794.06   A 0.98 0.98 0.0 0 1 308.28 793.08   L 308.28 776.41   A 1.00 1.00 0.0 0 0 307.28 775.41   L 289.64 775.41   A 1.06 1.05 89.7 0 1 288.59 774.36   L 288.41 749.15   L 308.19 748.90   A 0.88 0.87 -0.3 0 0 309.06 748.03   L 309.06 732.96   A 0.36 0.35 90.0 0 1 309.41 732.60   L 326.10 732.60   A 0.87 0.86 0.3 0 0 326.97 731.75   L 327.11 717.20   A 0.74 0.74 0.0 0 1 327.85 716.47   L 345.22 716.47   A 0.80 0.80 0.0 0 0 346.02 715.68   L 346.15 702.27   A 1.14 1.13 0.3 0 1 347.29 701.15   L 373.63 701.15   A 1.01 1.01 0.0 0 0 374.64 700.14   L 374.64 685.31   A 0.69 0.68 -0.0 0 1 375.33 684.63   L 412.85 684.63   A 0.91 0.91 0.0 0 0 413.76 683.72   L 413.76 670.61   A 1.17 1.16 89.8 0 1 414.91 669.44   Q 417.27 669.41 430.50 669.61   Q 435.63 669.68 445.85 668.46   Z" />
<path id="path_043" d="   M 962.73 748.45   L 962.43 775.07   A 0.54 0.54 0.0 0 1 961.89 775.61   L 943.38 775.61   A 0.44 0.44 0.0 0 0 942.94 776.05   L 942.94 793.27   A 0.89 0.89 0.0 0 1 942.05 794.16   L 924.24 794.16   A 0.40 0.39 0.0 0 0 923.84 794.55   L 923.84 810.08   A 0.70 0.70 0.0 0 1 923.14 810.78   L 895.52 810.78   A 0.39 0.38 -90.0 0 0 895.14 811.17   L 895.14 829.13   A 0.94 0.93 -0.0 0 1 894.20 830.06   L 874.58 830.06   A 1.13 1.13 0.0 0 1 873.45 828.93   L 873.45 769.58   A 0.59 0.58 -90.0 0 1 874.03 768.99   L 890.98 768.99   A 0.75 0.74 0.0 0 0 891.73 768.25   L 891.73 746.80   A 0.71 0.71 0.0 0 0 891.02 746.09   L 874.08 746.09   A 0.65 0.64 -0.0 0 1 873.43 745.45   L 873.43 721.75   A 0.79 0.78 -90.0 0 0 872.65 720.96   L 856.30 720.96   A 0.88 0.88 0.0 0 1 855.42 720.08   L 855.42 703.66   A 1.03 1.02 90.0 0 0 854.40 702.63   L 838.55 702.63   A 0.90 0.90 0.0 0 1 837.65 701.73   L 837.71 685.12   C 843.39 684.64 849.17 684.23 854.78 684.45   Q 866.86 684.92 875.79 684.84   A 0.53 0.53 0.0 0 1 876.33 685.38   L 876.18 700.10   A 0.96 0.96 0.0 0 0 877.13 701.07   L 903.71 701.34   A 1.14 1.14 0.0 0 1 904.84 702.48   L 904.84 715.44   A 1.02 1.01 0.3 0 0 905.85 716.45   L 923.09 716.63   A 0.85 0.85 0.0 0 1 923.93 717.48   L 923.93 731.85   A 0.64 0.63 90.0 0 0 924.56 732.49   L 940.94 732.49   A 1.00 0.99 0.3 0 1 941.94 733.49   L 941.79 747.53   A 1.58 1.58 0.0 0 0 943.46 749.12   Q 957.53 748.31 961.01 748.36   Q 961.49 748.37 961.77 748.71   A 0.46 0.45 -42.3 0 0 962.45 748.74   L 962.73 748.45   Z" />
</g><g id="thread-tan" fill="#ffd48f"><path id="cleanface-tan-underlay" d="M 455 660 L 798 660 L 860 732 L 860 902 L 765 1000 L 650 1032 L 505 1008 L 398 910 L 398 732 Z" /><path id="cleanbody-tan-underlay" d="M 505 1000 L 715 1000 L 810 1176 L 460 1176 Z" /><path id="path_020" d="   M 269.09 696.92   Q 259.84 696.59 250.82 697.12   C 249.24 697.21 248.73 697.53 248.62 699.15   A 1.17 1.16 -88.7 0 1 247.48 700.24   L 233.61 700.59   A 0.74 0.73 -88.7 0 0 232.90 701.27   L 231.97 713.78   L 215.17 713.85   A 0.78 0.78 0.0 0 1 214.39 713.07   L 214.39 674.55   A 0.52 0.52 0.0 0 1 214.91 674.03   L 233.39 674.03   A 0.51 0.51 0.0 0 0 233.90 673.52   L 233.90 654.58   A 0.98 0.98 0.0 0 1 234.88 653.60   L 306.35 653.60   A 0.48 0.47 -90.0 0 1 306.82 654.08   L 306.82 670.95   A 0.50 0.50 0.0 0 1 306.32 671.45   L 289.08 671.45   A 0.73 0.73 0.0 0 0 288.35 672.18   L 288.35 689.67   A 0.47 0.47 0.0 0 1 287.88 690.14   L 269.51 690.14   A 0.43 0.43 0.0 0 0 269.08 690.57   L 269.09 696.92   Z" />
<path id="path_021" d="   M 982.25 714.35   L 1017.24 714.20   A 0.69 0.68 -0.4 0 0 1017.92 713.52   L 1017.92 701.53   A 0.95 0.94 88.0 0 0 1016.91 700.58   Q 1010.87 700.97 1004.57 699.90   A 5.61 5.54 -27.8 0 1 1003.15 699.47   L 1001.12 698.55   A 3.42 3.30 -27.6 0 0 1000.24 698.29   Q 991.47 697.00 982.21 697.30   L 982.12 690.73   A 0.60 0.59 89.5 0 0 981.53 690.14   L 963.67 690.14   A 0.58 0.58 0.0 0 1 963.09 689.56   L 963.09 672.01   A 0.51 0.51 0.0 0 0 962.58 671.50   L 945.30 671.50   A 0.77 0.76 0.4 0 1 944.53 670.73   L 944.70 653.99   A 0.36 0.36 0.0 0 1 945.06 653.63   L 1016.73 653.63   A 0.58 0.57 -90.0 0 1 1017.30 654.21   L 1017.30 673.56   A 0.59 0.58 90.0 0 0 1017.88 674.15   L 1036.74 674.15   A 0.65 0.65 0.0 0 1 1037.39 674.80   L 1037.39 713.12   A 0.70 0.70 0.0 0 1 1036.69 713.82   L 1019.01 713.64   A 0.88 0.88 0.0 0 0 1018.12 714.52   L 1018.12 731.55   A 0.64 0.64 0.0 0 1 1017.48 732.19   L 983.00 732.19   A 1.02 1.02 0.0 0 1 981.98 731.15   L 982.25 714.35   Z" />
<path id="path_022" d="   M 757.85 952.36   L 735.07 952.36   A 0.64 0.64 0.0 0 0 734.43 953.00   L 734.43 959.68   A 0.64 0.64 0.0 0 1 733.79 960.32   L 687.89 960.32   A 0.64 0.64 0.0 0 0 687.25 960.96   L 687.25 973.29   A 0.64 0.64 0.0 0 1 686.61 973.93   L 564.68 973.93   A 0.64 0.64 0.0 0 1 564.04 973.29   L 564.04 960.98   A 0.64 0.64 0.0 0 0 563.40 960.34   L 517.32 960.34   A 0.64 0.64 0.0 0 1 516.68 959.70   L 516.68 953.00   A 0.64 0.64 0.0 0 0 516.04 952.36   L 493.51 952.36   A 0.64 0.64 0.0 0 1 492.87 951.72   L 492.87 939.87   A 0.64 0.64 0.0 0 0 492.23 939.23   L 465.59 939.23   A 0.64 0.64 0.0 0 1 464.95 938.59   L 464.95 925.40   A 0.64 0.64 0.0 0 0 464.31 924.76   L 449.28 924.76   A 0.64 0.64 0.0 0 1 448.64 924.12   L 448.64 910.12   A 0.64 0.64 0.0 0 0 448.00 909.48   L 433.46 909.48   A 0.64 0.64 0.0 0 1 432.82 908.84   L 432.82 891.34   A 0.64 0.64 0.0 0 0 432.18 890.70   L 417.05 890.70   A 0.64 0.64 0.0 0 1 416.41 890.06   L 416.41 857.06   A 0.64 0.64 0.0 0 0 415.77 856.42   L 399.93 856.42   A 0.64 0.64 0.0 0 1 399.29 855.78   L 399.29 725.78   A 0.64 0.64 0.0 0 1 399.93 725.14   L 417.07 725.14   A 0.64 0.64 0.0 0 0 417.71 724.50   L 417.71 706.37   A 0.64 0.64 0.0 0 1 418.35 705.73   L 451.26 705.73   A 0.64 0.64 0.0 0 0 451.90 705.09   L 451.90 690.58   A 0.64 0.64 0.0 0 1 452.54 689.94   L 540.71 689.94   A 0.64 0.64 0.0 0 0 541.35 689.30   L 541.35 681.78   A 0.64 0.64 0.0 0 1 541.99 681.14   L 709.53 681.14   A 0.64 0.64 0.0 0 1 710.17 681.78   L 710.17 689.34   A 0.64 0.64 0.0 0 0 710.81 689.98   L 798.89 689.98   A 0.64 0.64 0.0 0 1 799.53 690.62   L 799.53 705.12   A 0.64 0.64 0.0 0 0 800.17 705.76   L 832.74 705.76   A 0.64 0.64 0.0 0 1 833.38 706.40   L 833.38 724.47   A 0.64 0.64 0.0 0 0 834.02 725.11   L 851.77 725.11   A 0.64 0.64 0.0 0 1 852.41 725.75   L 852.41 855.77   A 0.64 0.64 0.0 0 1 851.77 856.41   L 835.58 856.41   A 0.64 0.64 0.0 0 0 834.94 857.05   L 834.94 890.13   A 0.64 0.64 0.0 0 1 834.30 890.77   L 819.28 890.77   A 0.64 0.64 0.0 0 0 818.64 891.41   L 818.64 908.94   A 0.64 0.64 0.0 0 1 818.00 909.58   L 803.56 909.58   A 0.64 0.64 0.0 0 0 802.92 910.22   L 802.92 924.14   A 0.64 0.64 0.0 0 1 802.28 924.78   L 787.31 924.78   A 0.64 0.64 0.0 0 0 786.67 925.42   L 786.67 938.62   A 0.64 0.64 0.0 0 1 786.03 939.26   L 759.13 939.26   A 0.64 0.64 0.0 0 0 758.49 939.90   L 758.49 951.72   A 0.64 0.64 0.0 0 1 757.85 952.36   Z   M 774.89 723.85   A 0.52 0.52 0.0 0 0 774.37 723.33   L 731.31 723.33   A 0.52 0.52 0.0 0 0 730.79 723.85   L 730.79 735.61   A 0.52 0.52 0.0 0 0 731.31 736.13   L 774.37 736.13   A 0.52 0.52 0.0 0 0 774.89 735.61   L 774.89 723.85   Z   M 519.9802 724.1017   A 0.78 0.78 0.0 0 0 519.1988 723.3231   L 476.8989 723.3969   A 0.78 0.78 0.0 0 0 476.1202 724.1783   L 476.1398 735.4183   A 0.78 0.78 0.0 0 0 476.9212 736.1969   L 519.2211 736.1231   A 0.78 0.78 0.0 0 0 519.9998 735.3417   L 519.9802 724.1017   Z   M 457.53 764.56   L 457.70 779.41   A 0.83 0.82 89.3 0 1 456.90 780.24   L 450.26 780.41   Q 451.56 775.85 450.97 770.49   A 0.75 0.74 87.0 0 0 450.23 769.82   L 438.01 769.82   A 0.67 0.67 0.0 0 0 437.34 770.49   L 437.34 831.54   A 0.78 0.77 90.0 0 0 438.11 832.32   L 447.71 832.30   L 447.79 835.85   A 0.75 0.75 0.0 0 0 448.56 836.58   L 455.47 836.41   A 1.50 1.49 -89.3 0 1 457.00 837.98   L 456.48 847.48   L 456.59 858.65   A 0.52 0.51 -0.0 0 0 457.11 859.16   L 470.46 859.17   L 470.38 865.36   A 0.76 0.76 0.0 0 0 471.14 866.13   L 522.62 866.13   A 0.99 0.98 -0.0 0 0 523.61 865.15   L 523.61 854.05   A 0.79 0.79 0.0 0 1 524.38 853.26   L 539.08 852.89   A 0.55 0.55 0.0 0 0 539.62 852.34   L 539.62 839.34   A 0.78 0.78 0.0 0 1 540.38 838.56   L 550.82 838.30   A 1.18 1.17 89.3 0 0 551.96 837.12   L 551.96 772.63   A 0.74 0.74 0.0 0 0 551.22 771.89   L 538.54 771.89   A 1.16 1.16 0.0 0 1 537.38 770.75   L 537.24 763.47   Q 537.28 763.39 537.46 763.19   A 0.69 0.67 -23.9 0 0 537.65 762.72   L 537.65 748.44   A 0.55 0.55 0.0 0 0 537.10 747.89   L 521.40 747.95   L 474.96 748.16   L 457.91 747.83   A 0.57 0.57 0.0 0 0 457.33 748.41   L 457.53 764.56   Z   M 713.90 763.65   L 713.92 770.63   A 1.12 1.12 0.0 0 1 712.83 771.76   L 699.91 772.08   A 0.82 0.82 0.0 0 0 699.11 772.90   L 699.11 837.07   A 1.25 1.24 -89.8 0 0 700.34 838.32   L 710.42 838.43   A 1.29 1.29 0.0 0 1 711.70 839.69   L 712.01 852.18   A 0.94 0.94 0.0 0 0 712.95 853.09   L 726.62 853.09   A 1.05 1.05 0.0 0 1 727.67 854.15   L 727.56 865.56   A 0.62 0.61 -89.5 0 0 728.17 866.19   L 779.48 866.19   A 0.92 0.91 -88.0 0 0 780.39 865.33   L 780.76 859.24   L 794.28 859.26   A 0.32 0.32 0.0 0 0 794.60 858.94   L 794.63 847.46   L 794.14 837.27   A 0.84 0.83 -1.3 0 1 794.98 836.40   L 802.85 836.40   A 0.80 0.80 0.0 0 0 803.57 835.95   Q 804.38 834.34 803.94 832.47   L 813.34 832.43   A 0.46 0.46 0.0 0 0 813.80 831.97   L 813.80 770.79   A 0.90 0.90 0.0 0 0 812.90 769.89   L 800.34 769.89   A 0.52 0.52 0.0 0 0 799.82 770.42   L 799.91 780.21   L 794.49 779.94   A 0.70 0.70 0.0 0 1 793.82 779.26   L 793.28 764.59   Q 793.87 764.38 793.87 764.00   Q 794.05 756.23 793.90 748.50   A 0.62 0.62 0.0 0 0 793.27 747.89   L 776.30 748.15   Q 755.80 747.83 735.25 748.04   Q 732.73 748.07 730.24 747.80   Q 729.82 747.76 729.56 748.15   Q 729.42 748.08 729.29 748.00   A 1.06 1.06 0.0 0 0 728.80 747.88   L 714.83 747.88   A 1.46 1.46 0.0 0 0 713.40 749.63   L 714.49 755.06   A 4.51 4.40 -44.3 0 1 714.44 757.08   C 713.93 759.00 713.11 761.61 713.90 763.65   Z   M 632.00 889.19   A 0.69 0.69 0.0 0 1 631.31 888.50   L 631.31 866.90   A 0.69 0.69 0.0 0 1 632.00 866.21   L 642.78 866.21   A 0.69 0.69 0.0 0 0 643.47 865.52   L 643.47 858.66   A 0.69 0.69 0.0 0 1 644.16 857.97   L 651.65 857.97   A 0.69 0.69 0.0 0 0 652.34 857.28   L 652.34 847.66   A 0.69 0.69 0.0 0 1 653.03 846.97   L 662.23 846.97   A 0.69 0.69 0.0 0 0 662.92 846.28   L 662.92 823.73   A 0.69 0.69 0.0 0 0 662.23 823.04   L 653.15 823.04   A 0.69 0.69 0.0 0 1 652.46 822.35   L 652.46 809.20   A 0.69 0.69 0.0 0 0 651.77 808.51   L 599.20 808.51   A 0.69 0.69 0.0 0 0 598.51 809.20   L 598.51 822.29   A 0.69 0.69 0.0 0 1 597.82 822.98   L 588.58 822.98   A 0.69 0.69 0.0 0 0 587.89 823.67   L 587.89 846.35   A 0.69 0.69 0.0 0 0 588.58 847.04   L 597.65 847.04   A 0.69 0.69 0.0 0 1 598.34 847.73   L 598.34 857.15   A 0.69 0.69 0.0 0 0 599.03 857.84   L 606.14 857.84   A 0.69 0.69 0.0 0 1 606.83 858.53   L 606.83 865.49   A 0.69 0.69 0.0 0 0 607.52 866.18   L 618.73 866.18   A 0.69 0.69 0.0 0 1 619.42 866.87   L 619.42 888.51   A 0.69 0.69 0.0 0 1 618.73 889.20   L 572.49 889.20   A 0.69 0.69 0.0 0 1 571.80 888.51   L 571.80 869.45   A 0.69 0.69 0.0 0 0 571.11 868.76   L 558.44 868.76   A 0.69 0.69 0.0 0 0 557.75 869.45   L 557.75 885.10   A 0.69 0.69 0.0 0 0 558.44 885.79   L 567.82 885.79   A 0.69 0.69 0.0 0 1 568.51 886.48   L 568.51 898.82   A 0.69 0.69 0.0 0 0 569.20 899.51   L 583.36 899.51   A 0.69 0.69 0.0 0 1 584.05 900.20   L 584.05 931.68   A 0.69 0.69 0.0 0 0 584.74 932.37   L 595.25 932.37   A 0.69 0.69 0.0 0 1 595.94 933.06   L 595.94 944.86   A 0.69 0.69 0.0 0 0 596.63 945.55   L 606.11 945.55   A 0.69 0.69 0.0 0 1 606.80 946.24   L 606.80 955.80   A 0.69 0.69 0.0 0 0 607.49 956.49   L 643.05 956.49   A 0.69 0.69 0.0 0 0 643.74 955.80   L 643.74 946.29   A 0.69 0.69 0.0 0 1 644.43 945.60   L 654.24 945.60   A 0.69 0.69 0.0 0 0 654.93 944.91   L 654.93 933.12   A 0.69 0.69 0.0 0 1 655.62 932.43   L 666.32 932.43   A 0.69 0.69 0.0 0 0 667.01 931.74   L 667.01 900.23   A 0.69 0.69 0.0 0 1 667.70 899.54   L 681.37 899.54   A 0.69 0.69 0.0 0 0 682.06 898.85   L 682.06 886.60   A 0.69 0.69 0.0 0 1 682.75 885.91   L 692.09 885.91   A 0.69 0.69 0.0 0 0 692.78 885.22   L 692.78 869.53   A 0.69 0.69 0.0 0 0 692.09 868.84   L 679.47 868.84   A 0.69 0.69 0.0 0 0 678.78 869.53   L 678.78 888.50   A 0.69 0.69 0.0 0 1 678.09 889.19   L 632.00 889.19   Z" />
<path id="path_024" d="   M 557.64 1010.20   L 558.39 1010.50   A 1.34 1.29 -33.4 0 0 558.87 1010.59   L 574.86 1010.59   A 0.71 0.71 0.0 0 1 575.57 1011.28   L 575.93 1025.66   A 0.71 0.70 -0.4 0 0 576.64 1026.35   L 595.18 1026.35   A 0.58 0.58 0.0 0 1 595.76 1026.92   L 596.06 1038.63   A 0.54 0.54 0.0 0 0 596.60 1039.16   L 652.28 1039.16   A 0.97 0.97 0.0 0 0 653.25 1038.20   L 653.35 1027.69   A 1.13 1.13 0.0 0 1 654.45 1026.57   L 671.82 1026.13   A 0.79 0.79 0.0 0 0 672.60 1025.35   L 672.74 1011.39   A 0.87 0.86 -89.7 0 1 673.60 1010.53   L 693.60 1010.52   L 703.83 1010.58   A 0.97 0.97 0.0 0 1 704.79 1011.55   L 704.79 1051.05   A 0.46 0.45 90.0 0 0 705.24 1051.51   L 718.18 1051.51   A 0.70 0.69 -0.0 0 1 718.88 1052.20   L 718.88 1076.60   A 0.84 0.84 0.0 0 0 719.71 1077.44   L 731.86 1077.56   A 1.19 1.18 -89.8 0 1 733.03 1078.75   L 733.03 1094.65   A 0.72 0.71 0.0 0 0 733.75 1095.36   L 745.69 1095.36   A 0.88 0.88 0.0 0 1 746.57 1096.24   L 746.57 1118.17   A 0.24 0.24 0.0 0 0 746.81 1118.41   L 764.18 1118.41   A 0.40 0.40 0.0 0 1 764.58 1118.81   L 764.58 1151.04   A 0.81 0.80 90.0 0 0 765.38 1151.85   L 777.54 1151.85   A 0.76 0.76 0.0 0 1 778.30 1152.62   L 778.13 1169.85   A 0.76 0.75 -9.8 0 1 777.64 1170.54   Q 774.96 1171.52 769.26 1172.99   Q 620.76 1211.35 473.52 1169.48   A 0.90 0.89 7.7 0 1 472.86 1168.62   L 472.86 1152.88   A 1.05 1.04 -0.0 0 1 473.91 1151.84   L 485.83 1151.84   A 0.75 0.74 90.0 0 0 486.57 1151.09   L 486.57 1119.17   A 0.73 0.73 0.0 0 1 487.30 1118.44   L 504.01 1118.44   A 0.43 0.42 90.0 0 0 504.43 1118.01   L 504.43 1096.11   A 0.76 0.76 0.0 0 1 505.19 1095.35   L 517.28 1095.35   A 0.58 0.58 0.0 0 0 517.86 1094.77   L 517.86 1078.33   A 0.81 0.80 -90.0 0 1 518.66 1077.52   L 531.29 1077.52   A 0.82 0.82 0.0 0 0 532.11 1076.70   L 532.11 1052.20   A 0.71 0.70 90.0 0 1 532.81 1051.49   L 545.72 1051.49   A 0.60 0.60 0.0 0 0 546.32 1050.89   L 546.32 1011.06   A 0.48 0.48 0.0 0 1 546.78 1010.58   L 557.64 1010.20   Z" />
<path id="path_025" d="   M 452.30 1030.92   L 452.30 1011.39   A 0.89 0.89 0.0 0 1 453.19 1010.50   L 477.59 1010.50   A 1.06 1.06 0.0 0 1 478.65 1011.57   L 478.57 1019.44   A 0.59 0.57 74.0 0 1 478.31 1019.93   Q 477.69 1020.37 476.52 1020.00   A 0.86 0.85 -81.1 0 0 475.41 1020.82   L 475.41 1104.21   A 0.65 0.64 -0.0 0 1 474.76 1104.85   L 465.31 1104.85   A 0.78 0.78 0.0 0 1 464.53 1104.07   L 464.53 1092.71   A 0.52 0.52 0.0 0 0 464.01 1092.19   L 452.85 1092.07   A 0.87 0.86 0.3 0 1 451.99 1091.21   L 451.99 1081.10   A 0.63 0.63 0.0 0 0 451.36 1080.47   L 406.87 1080.47   A 0.75 0.75 0.0 0 1 406.12 1079.72   L 406.12 1065.77   A 0.66 0.66 0.0 0 1 406.78 1065.11   L 419.29 1065.11   A 0.39 0.39 0.0 0 0 419.68 1064.72   L 419.68 1050.36   A 0.78 0.78 0.0 0 1 420.46 1049.58   L 432.94 1049.58   A 0.59 0.59 0.0 0 0 433.53 1048.99   L 433.53 1032.15   A 0.60 0.59 90.0 0 1 434.12 1031.55   L 451.67 1031.55   A 0.63 0.63 0.0 0 0 452.30 1030.92   Z" />
<path id="path_026" d="   M 772.52 1010.56   L 798.08 1010.56   A 0.67 0.67 0.0 0 1 798.75 1011.23   L 798.75 1030.86   A 0.67 0.67 0.0 0 0 799.42 1031.53   L 816.94 1031.53   A 0.67 0.67 0.0 0 1 817.61 1032.20   L 817.61 1048.92   A 0.67 0.67 0.0 0 0 818.27 1049.59   L 830.62 1049.71   A 0.67 0.67 0.0 0 1 831.28 1050.38   L 831.28 1064.34   A 0.67 0.67 0.0 0 0 831.94 1065.01   L 844.14 1065.13   A 0.67 0.67 0.0 0 1 844.80 1065.80   L 844.80 1079.83   A 0.67 0.67 0.0 0 1 844.13 1080.50   L 799.44 1080.50   A 0.67 0.67 0.0 0 0 798.77 1081.17   L 798.77 1091.43   A 0.67 0.67 0.0 0 1 798.10 1092.10   L 787.26 1092.10   A 0.67 0.67 0.0 0 0 786.59 1092.76   L 786.49 1104.19   A 0.67 0.67 0.0 0 1 785.82 1104.85   L 775.43 1104.85   A 0.67 0.67 0.0 0 1 774.76 1104.18   L 774.76 1020.23   A 0.67 0.67 0.0 0 0 774.10 1019.56   L 772.70 1019.55   A 0.67 0.67 0.0 0 1 772.03 1018.89   L 771.85 1011.25   A 0.67 0.67 0.0 0 1 772.52 1010.56   Z" />
<path id="path_027" d="   M 285.06 450.12   A 0.43 0.43 0.0 0 0 285.49 449.69   L 285.49 284.04   A 0.63 0.63 0.0 0 1 286.12 283.41   L 340.24 283.41   A 0.68 0.68 0.0 0 1 340.92 284.07   Q 341.40 298.01 341.44 309.00   Q 341.69 380.34 341.83 460.16   A 1.31 1.31 0.0 0 1 340.51 461.48   L 323.45 461.30   A 0.61 0.61 0.0 0 0 322.84 461.90   Q 322.61 484.21 322.74 497.75   Q 322.77 500.77 322.28 502.24   A 1.04 1.04 0.0 0 1 321.30 502.94   L 304.24 502.94   A 0.91 0.91 0.0 0 0 303.33 503.85   L 303.33 541.23   A 0.68 0.68 0.0 0 0 304.03 541.91   L 321.46 541.48   A 0.84 0.84 0.0 0 1 322.33 542.32   L 322.33 560.49   A 0.41 0.41 0.0 0 0 322.74 560.90   L 341.15 560.90   A 0.76 0.75 90.0 0 1 341.90 561.66   L 341.73 577.76   A 0.53 0.52 0.0 0 0 342.26 578.28   L 371.36 578.28   A 0.77 0.77 0.0 0 1 372.13 579.06   L 371.96 596.04   A 1.52 1.51 89.6 0 1 370.49 597.54   L 358.33 597.84   A 0.82 0.82 0.0 0 0 357.53 598.66   L 357.38 612.97   A 1.53 1.53 0.0 0 1 355.85 614.49   L 324.17 614.49   A 0.90 0.90 0.0 0 1 323.27 613.59   L 323.27 599.74   A 0.91 0.91 0.0 0 0 322.36 598.83   L 305.15 598.83   A 1.24 1.24 0.0 0 1 303.91 597.59   L 303.91 580.68   A 0.75 0.75 0.0 0 0 303.16 579.93   L 285.44 579.93   A 0.97 0.97 0.0 0 1 284.47 578.96   L 284.47 561.40   A 0.89 0.89 0.0 0 0 283.58 560.51   L 248.51 560.51   A 0.97 0.97 0.0 0 1 247.54 559.53   L 247.72 541.40   A 0.79 0.79 0.0 0 0 246.93 540.60   L 211.55 540.60   A 0.82 0.82 0.0 0 1 210.73 539.78   L 210.73 523.21   A 0.70 0.70 0.0 0 0 210.03 522.51   L 192.83 522.51   A 1.06 1.06 0.0 0 1 191.77 521.45   L 191.77 499.97   A 0.69 0.69 0.0 0 0 191.13 499.28   Q 182.80 498.65 173.00 499.50   A 1.12 1.11 -2.4 0 1 171.79 498.39   L 171.79 449.40   A 0.76 0.76 0.0 0 0 171.03 448.64   L 153.59 448.46   A 0.64 0.63 0.5 0 1 152.96 447.83   L 152.96 398.03   A 0.72 0.71 0.0 0 1 153.68 397.32   L 170.92 397.32   A 0.77 0.76 -90.0 0 0 171.68 396.55   L 171.68 358.04   A 0.89 0.88 -90.0 0 1 172.56 357.15   L 189.20 357.15   A 0.96 0.95 90.0 0 0 190.15 356.19   L 190.15 320.81   A 1.12 1.11 -0.0 0 1 191.27 319.70   Q 204.72 319.64 215.47 320.02   C 220.01 320.17 224.63 319.46 228.54 319.37   A 1.27 1.27 0.0 0 1 229.84 320.72   Q 229.46 326.42 229.46 329.75   Q 229.51 380.16 229.42 462.52   Q 229.41 463.39 229.85 469.07   A 0.74 0.73 -1.7 0 0 230.58 469.75   L 246.39 469.91   A 1.19 1.18 -89.8 0 1 247.56 471.10   L 247.56 488.77   A 1.15 1.15 0.0 0 0 248.71 489.92   L 265.78 489.92   A 0.67 0.67 0.0 0 0 266.45 489.25   L 266.45 451.13   A 1.01 1.01 0.0 0 1 267.46 450.12   L 285.06 450.12   Z" />
<path id="path_028" d="   M 1004.79 540.43   A 0.54 0.53 -0.0 0 0 1004.25 540.96   L 1004.25 559.20   A 1.01 1.01 0.0 0 1 1003.24 560.21   L 967.63 560.21   A 0.66 0.65 -90.0 0 0 966.98 560.87   L 966.98 578.88   A 0.93 0.92 -89.7 0 1 966.05 579.81   L 948.40 579.63   A 0.42 0.42 0.0 0 0 947.97 580.05   L 947.79 598.14   A 0.68 0.67 -89.6 0 1 947.12 598.81   L 928.88 598.81   A 0.63 0.63 0.0 0 0 928.25 599.43   L 928.11 613.35   A 0.88 0.88 0.0 0 1 927.27 614.22   Q 910.94 614.98 894.93 614.24   A 0.71 0.71 0.0 0 1 894.26 613.53   L 894.26 599.30   A 0.60 0.60 0.0 0 0 893.66 598.70   L 880.88 598.70   A 0.78 0.77 89.2 0 1 880.11 597.94   L 879.65 579.49   A 0.93 0.92 -0.9 0 1 880.58 578.54   L 909.04 578.54   A 0.41 0.41 0.0 0 0 909.45 578.13   L 909.62 561.60   A 0.75 0.75 0.0 0 1 910.37 560.86   L 928.64 560.86   A 0.65 0.65 0.0 0 0 929.29 560.21   L 929.29 542.03   A 0.51 0.51 0.0 0 1 929.81 541.52   L 947.25 541.70   A 1.03 1.02 -89.7 0 0 948.28 540.67   L 948.28 503.48   A 0.67 0.67 0.0 0 0 947.61 502.81   L 929.75 502.81   A 1.10 1.10 0.0 0 1 928.65 501.71   L 928.65 461.80   A 0.79 0.79 0.0 0 0 927.86 461.01   L 910.55 460.83   A 1.02 1.02 0.0 0 1 909.54 459.81   L 909.54 284.08   A 0.88 0.87 -90.0 0 1 910.41 283.20   L 965.11 283.20   A 1.01 1.01 0.0 0 1 966.12 284.21   L 966.12 448.94   A 1.16 1.16 0.0 0 0 967.28 450.10   L 984.27 450.10   A 0.98 0.97 -90.0 0 1 985.24 451.08   L 985.24 488.72   A 0.87 0.86 0.0 0 0 986.11 489.58   L 1003.05 489.58   A 1.17 1.17 0.0 0 0 1004.22 488.41   L 1004.22 470.30   A 0.86 0.85 0.0 0 1 1005.08 469.45   L 1021.44 469.45   A 0.84 0.83 90.0 0 0 1022.27 468.61   L 1022.27 320.77   A 1.08 1.08 0.0 0 1 1023.35 319.69   L 1061.81 319.69   A 0.70 0.69 -0.8 0 1 1062.51 320.36   Q 1062.73 327.73 1062.44 333.62   C 1061.99 342.58 1062.32 347.10 1062.57 356.12   A 0.83 0.82 89.3 0 0 1063.39 356.93   L 1079.88 357.10   A 1.13 1.13 0.0 0 1 1081.00 358.23   L 1081.00 396.90   A 0.57 0.57 0.0 0 0 1081.57 397.47   L 1099.16 397.47   A 0.64 0.64 0.0 0 1 1099.80 398.11   L 1099.80 448.19   A 0.62 0.61 -0.0 0 1 1099.18 448.80   L 1081.25 448.62   A 0.40 0.40 0.0 0 0 1080.84 449.02   L 1080.34 498.55   A 0.76 0.76 0.0 0 1 1079.57 499.30   L 1061.48 499.12   A 0.62 0.61 0.5 0 0 1060.85 499.73   L 1060.85 521.29   A 1.16 1.16 0.0 0 1 1059.69 522.45   L 1042.26 522.45   A 0.93 0.93 0.0 0 0 1041.33 523.37   L 1041.17 539.46   A 0.98 0.98 0.0 0 1 1040.19 540.43   L 1004.79 540.43   Z" />
<path id="path_031" d="   M 693.60 1010.52   L 673.60 1010.53   A 0.87 0.86 -89.7 0 0 672.74 1011.39   L 672.60 1025.35   A 0.79 0.79 0.0 0 1 671.82 1026.13   L 654.45 1026.57   A 1.13 1.13 0.0 0 0 653.35 1027.69   L 653.25 1038.20   A 0.97 0.97 0.0 0 1 652.28 1039.16   L 596.60 1039.16   A 0.54 0.54 0.0 0 1 596.06 1038.63   L 595.76 1026.92   A 0.58 0.58 0.0 0 0 595.18 1026.35   L 576.64 1026.35   A 0.71 0.70 -0.4 0 1 575.93 1025.66   L 575.57 1011.28   A 0.71 0.71 0.0 0 0 574.86 1010.59   L 558.87 1010.59   A 1.34 1.29 -33.4 0 1 558.39 1010.50   L 557.64 1010.20   L 557.29 987.73   A 1.02 1.02 0.0 0 1 558.31 986.69   L 693.53 986.69   A 0.42 0.42 0.0 0 1 693.95 987.12   L 693.60 1010.52   Z" />
<path id="path_032" d="   M 391.20 1092.34   Q 393.82 1092.11 394.75 1092.15   Q 422.71 1093.21 449.18 1092.21   A 1.49 1.48 -1.1 0 1 450.73 1093.69   L 450.73 1104.78   A 0.68 0.68 0.0 0 0 451.40 1105.46   L 462.48 1105.57   A 0.93 0.92 0.3 0 1 463.40 1106.49   L 463.40 1133.00   A 1.13 1.13 0.0 0 1 462.61 1134.08   Q 461.48 1134.43 458.48 1134.41   Q 435.37 1134.21 415.42 1134.58   A 1.15 1.14 89.8 0 1 414.26 1133.42   L 414.41 1119.35   A 0.97 0.97 0.0 0 0 413.44 1118.37   L 391.79 1118.37   A 1.52 1.52 0.0 0 1 390.27 1116.85   L 390.27 1093.36   A 1.02 1.02 0.0 0 1 391.20 1092.34   Z" />
<path id="path_033" d="   M 788.97 1105.37   L 799.44 1105.37   A 1.03 1.03 0.0 0 0 800.47 1104.31   L 800.21 1093.81   A 1.36 1.35 -89.0 0 1 801.64 1092.42   Q 811.04 1092.97 823.43 1092.58   C 831.24 1092.34 839.46 1093.36 847.13 1092.55   Q 852.97 1091.94 859.65 1092.88   A 1.43 1.42 -88.2 0 1 860.87 1094.18   C 861.11 1097.18 861.49 1100.53 861.24 1103.59   Q 860.64 1110.93 860.92 1117.10   A 1.14 1.13 -7.6 0 1 860.03 1118.25   Q 858.77 1118.53 856.98 1118.57   Q 845.98 1118.81 837.47 1118.35   A 0.79 0.78 -88.3 0 0 836.64 1119.14   L 836.64 1133.67   A 0.85 0.84 0.0 0 1 835.79 1134.51   L 788.76 1134.51   A 1.08 1.08 0.0 0 1 787.68 1133.43   L 787.68 1106.67   A 1.30 1.29 90.0 0 1 788.97 1105.37   Z" />
</g><g id="thread-white" fill="#f8f3e7"><path id="path_034" d="   M 649.73 1238.98   L 604.47 1238.98   A 2.46 2.42 -29.7 0 1 603.26 1238.66   L 602.66 1238.31   A 1.94 1.89 -28.9 0 0 601.75 1238.06   C 595.03 1238.01 589.32 1238.25 582.89 1237.35   C 579.94 1236.93 575.99 1237.05 571.42 1236.57   Q 556.94 1235.07 555.51 1234.90   Q 457.29 1223.05 369.01 1181.95   C 291.20 1145.72 221.61 1093.53 165.65 1029.11   Q 123.67 980.80 92.31 924.87   Q 86.98 915.36 81.42 904.04   C 77.28 895.62 72.12 885.67 67.83 875.82   Q 54.84 846.00 46.13 819.92   Q 40.34 802.61 34.74 781.12   Q 0.72 650.61 25.12 516.08   Q 34.88 462.26 53.91 412.14   C 69.32 371.52 88.69 332.44 112.38 295.80   Q 193.99 169.59 325.13 94.47   C 337.03 87.64 352.09 80.44 363.37 74.65   Q 370.38 71.04 379.00 67.37   Q 411.18 53.62 433.65 46.18   Q 444.21 42.68 460.09 38.16   Q 515.48 22.40 572.82 17.32   Q 576.98 16.95 578.20 16.95   C 582.79 16.94 587.24 15.94 591.29 16.02   C 594.34 16.08 599.82 16.33 603.65 15.28   A 5.09 4.72 35.1 0 1 604.82 15.12   C 621.41 14.85 637.60 14.41 653.68 15.64   Q 659.42 16.07 668.03 16.14   Q 668.39 16.14 669.05 16.54   A 1.86 1.86 0.0 0 0 670.03 16.82   Q 675.63 16.85 676.75 16.95   Q 739.35 22.06 799.86 39.89   C 807.91 42.26 819.73 45.89 829.78 49.50   Q 851.64 57.36 872.50 66.34   Q 883.76 71.19 893.36 76.05   C 904.39 81.63 912.01 85.11 920.71 89.94   Q 1000.19 134.00 1061.85 196.36   Q 1137.87 273.25 1183.22 371.69   Q 1226.30 465.19 1236.45 569.58   Q 1237.18 577.15 1237.86 589.42   C 1238.51 601.20 1239.00 608.87 1239.09 615.99   Q 1240.94 760.67 1179.92 889.44   C 1175.16 899.49 1165.85 918.00 1158.53 930.56   Q 1144.55 954.57 1131.79 973.04   Q 1046.77 1096.16 914.90 1167.17   Q 910.00 1169.82 894.13 1177.56   Q 881.83 1183.57 873.09 1187.39   Q 787.50 1224.87 694.61 1235.34   Q 690.05 1235.86 687.36 1236.04   Q 683.34 1236.32 682.52 1236.50   C 678.82 1237.31 674.58 1236.94 670.90 1237.41   C 664.52 1238.21 659.19 1238.01 652.13 1238.02   A 1.61 1.55 25.5 0 0 651.17 1238.34   L 650.74 1238.65   A 1.71 1.70 26.7 0 1 649.73 1238.98   Z   M 1021.18 1086.91   Q 1076.82 1039.08 1118.90 979.71   Q 1202.38 861.90 1224.23 718.09   Q 1236.34 638.33 1227.04 558.93   C 1214.06 448.03 1169.86 341.55 1102.37 252.86   C 1062.28 200.17 1014.84 155.27 960.54 118.72   C 867.87 56.36 758.35 20.66 646.25 17.18   Q 594.24 15.57 544.69 22.97   Q 500.04 29.64 451.60 44.09   C 357.66 72.11 272.58 122.15 203.50 191.26   Q 166.37 228.41 135.65 271.42   C 84.30 343.29 48.89 426.00 32.09 512.03   C 8.92 630.59 21.05 753.53 69.04 865.44   C 106.38 952.53 164.85 1030.58 237.08 1090.66   Q 349.25 1183.98 492.01 1219.71   Q 628.51 1253.88 764.54 1219.78   Q 908.64 1183.65 1021.18 1086.91   Z" />
<path id="path_035" d="   M 705.31 467.81   A 0.73 0.73 0.0 0 0 706.04 468.54   L 723.25 468.54   A 0.63 0.63 0.0 0 1 723.88 469.17   L 723.88 485.99   A 0.54 0.54 0.0 0 0 724.42 486.53   L 744.50 486.53   A 0.29 0.28 90.0 0 1 744.78 486.82   L 744.78 515.19   A 1.04 1.04 0.0 0 1 743.74 516.23   L 724.40 516.23   A 0.63 0.63 0.0 0 0 723.77 516.86   L 723.77 533.23   A 0.98 0.98 0.0 0 1 722.79 534.21   L 705.95 534.21   A 0.65 0.64 90.0 0 0 705.31 534.86   L 705.31 551.52   A 0.54 0.54 0.0 0 1 704.77 552.06   L 669.41 552.06   A 0.57 0.57 0.0 0 1 668.84 551.49   L 668.84 532.22   A 0.88 0.87 -90.0 0 0 667.97 531.34   L 649.85 531.34   A 1.00 0.99 0.0 0 1 648.85 530.35   L 648.85 511.93   A 0.68 0.67 -90.0 0 0 648.18 511.25   L 632.56 511.25   A 0.51 0.51 0.0 0 1 632.05 510.77   Q 631.61 503.89 632.22 495.24   Q 632.29 494.13 632.82 493.01   A 0.58 0.58 0.0 0 0 632.29 492.19   L 619.16 492.19   A 0.51 0.50 -0.0 0 0 618.65 492.69   L 618.65 510.57   A 0.60 0.60 0.0 0 1 618.05 511.17   L 601.55 511.17   A 0.58 0.57 90.0 0 0 600.98 511.75   L 600.98 530.61   A 0.63 0.62 0.0 0 1 600.35 531.23   L 581.01 531.23   A 0.86 0.86 0.0 0 0 580.15 532.09   L 580.15 551.12   A 0.55 0.55 0.0 0 1 579.61 551.67   L 543.98 552.57   A 0.60 0.60 0.0 0 1 543.37 551.97   L 543.37 535.51   A 1.26 1.25 90.0 0 0 542.12 534.25   L 525.93 534.25   A 0.86 0.86 0.0 0 1 525.07 533.39   L 525.07 517.16   A 0.89 0.89 0.0 0 0 524.18 516.27   L 506.59 516.27   A 0.80 0.80 0.0 0 1 505.79 515.47   L 505.79 488.12   A 0.57 0.57 0.0 0 1 506.36 487.55   L 523.84 487.55   A 1.03 1.03 0.0 0 0 524.87 486.52   L 524.87 469.16   A 0.64 0.63 0.0 0 1 525.51 468.53   L 542.45 468.53   A 0.70 0.69 -90.0 0 0 543.14 467.83   L 543.14 451.32   A 0.73 0.72 -0.0 0 1 543.87 450.60   L 560.40 450.60   A 0.69 0.69 0.0 0 0 561.09 449.91   L 561.09 435.61   A 0.89 0.88 90.0 0 0 560.21 434.72   L 543.96 434.72   A 0.70 0.70 0.0 0 1 543.26 434.02   L 543.26 415.60   A 0.70 0.69 -90.0 0 0 542.57 414.90   L 525.40 414.90   A 0.45 0.45 0.0 0 1 524.95 414.45   L 524.95 396.84   A 0.79 0.79 0.0 0 0 524.16 396.05   L 505.77 396.05   A 0.43 0.43 0.0 0 1 505.34 395.62   L 505.34 367.63   A 0.45 0.45 0.0 0 1 505.79 367.18   L 524.17 367.18   A 0.65 0.65 0.0 0 0 524.82 366.53   L 524.82 349.40   A 0.55 0.55 0.0 0 1 525.37 348.85   L 542.30 348.85   A 0.72 0.72 0.0 0 0 543.02 348.13   L 543.02 329.05   A 0.53 0.52 0.0 0 1 543.55 328.53   L 579.64 328.53   A 0.50 0.50 0.0 0 1 580.14 329.03   L 580.14 347.32   A 0.66 0.66 0.0 0 0 580.80 347.98   L 600.01 347.98   A 0.56 0.55 90.0 0 1 600.56 348.54   L 600.56 366.26   A 1.01 1.00 -0.6 0 0 601.59 367.26   L 617.93 366.85   A 0.36 0.36 0.0 0 1 618.30 367.21   L 618.30 385.18   A 0.54 0.53 -90.0 0 0 618.83 385.72   L 631.27 385.72   A 0.66 0.66 0.0 0 0 631.93 385.06   L 631.93 367.60   A 0.43 0.43 0.0 0 1 632.36 367.17   L 648.64 367.17   A 0.59 0.58 0.0 0 0 649.23 366.59   L 649.23 348.37   A 0.51 0.51 0.0 0 1 649.74 347.86   L 668.33 347.86   A 0.57 0.56 -90.0 0 0 668.89 347.29   L 668.89 328.92   A 0.41 0.40 0.0 0 1 669.30 328.52   L 704.68 328.52   A 0.60 0.60 0.0 0 1 705.28 329.12   L 705.28 347.68   A 1.04 1.03 0.0 0 0 706.32 348.71   L 724.01 348.71   A 0.47 0.46 90.0 0 1 724.47 349.18   L 724.47 366.42   A 0.86 0.85 -0.0 0 0 725.33 367.27   L 744.86 367.27   A 0.52 0.52 0.0 0 1 745.38 367.79   L 745.38 396.36   A 0.59 0.59 0.0 0 1 744.79 396.95   L 724.56 396.95   A 0.62 0.62 0.0 0 0 723.94 397.57   L 723.94 415.13   A 0.51 0.51 0.0 0 1 723.43 415.64   L 705.95 415.64   A 0.59 0.58 -0.0 0 0 705.36 416.22   L 705.36 433.91   A 0.78 0.77 -90.0 0 1 704.59 434.69   L 686.38 434.69   A 0.51 0.51 0.0 0 0 685.87 435.20   L 685.87 450.05   A 0.62 0.62 0.0 0 0 686.49 450.67   L 704.79 450.67   A 0.52 0.52 0.0 0 1 705.31 451.19   L 705.31 467.81   Z" />
<path id="path_036" d="   M 521.40 747.95   L 521.41 762.98   A 0.52 0.51 89.4 0 0 521.92 763.49   L 537.24 763.47   L 537.38 770.75   A 1.16 1.16 0.0 0 0 538.54 771.89   L 551.22 771.89   A 0.74 0.74 0.0 0 1 551.96 772.63   L 551.96 837.12   A 1.18 1.17 89.3 0 1 550.82 838.30   L 540.38 838.56   A 0.78 0.78 0.0 0 0 539.62 839.34   L 539.62 852.34   A 0.55 0.55 0.0 0 1 539.08 852.89   L 524.38 853.26   A 0.79 0.79 0.0 0 0 523.61 854.05   L 523.61 865.15   A 0.99 0.98 -0.0 0 1 522.62 866.13   L 471.14 866.13   A 0.76 0.76 0.0 0 1 470.38 865.36   L 470.46 859.17   L 470.38 848.06   A 0.52 0.52 0.0 0 0 469.86 847.54   L 456.48 847.48   L 457.00 837.98   A 1.50 1.49 -89.3 0 0 455.47 836.41   L 448.56 836.58   A 0.75 0.75 0.0 0 1 447.79 835.85   L 447.71 832.30   Q 447.76 811.26 447.79 790.25   Q 447.79 785.63 448.23 781.01   Q 448.30 780.23 450.26 780.41   L 456.90 780.24   A 0.83 0.82 89.3 0 0 457.70 779.41   L 457.53 764.56   L 474.36 764.59   A 0.56 0.55 -89.5 0 0 474.91 764.04   L 474.96 748.16   L 521.40 747.95   Z   M 520.12 787.32   A 0.44 0.44 0.0 0 1 519.68 786.89   L 519.65 768.59   A 0.57 0.57 0.0 0 0 519.08 768.03   L 479.60 768.06   A 0.72 0.72 0.0 0 0 478.88 768.78   L 478.88 786.58   A 0.68 0.68 0.0 0 1 478.21 787.26   L 466.48 787.31   A 0.61 0.60 90.0 0 0 465.88 787.92   L 465.90 830.75   A 0.50 0.50 0.0 0 0 466.40 831.25   L 478.29 831.27   A 0.50 0.49 89.4 0 1 478.78 831.76   L 478.92 849.06   A 0.73 0.73 0.0 0 0 479.66 849.79   L 519.18 849.72   A 0.52 0.51 90.0 0 0 519.69 849.20   L 519.74 831.80   A 0.57 0.57 0.0 0 1 520.31 831.23   L 534.99 831.34   A 0.60 0.59 -0.0 0 0 535.59 830.75   L 535.60 787.98   A 0.79 0.78 -0.0 0 0 534.81 787.20   L 520.12 787.32   Z" />
<path id="path_037" d="   M 776.30 748.15   L 776.28 763.88   A 0.67 0.66 -90.0 0 0 776.94 764.55   L 793.28 764.59   L 793.82 779.26   A 0.70 0.70 0.0 0 0 794.49 779.94   L 799.91 780.21   L 803.37 780.30   A 0.47 0.47 0.0 0 1 803.83 780.77   L 803.94 832.47   Q 804.38 834.34 803.57 835.95   A 0.80 0.80 0.0 0 1 802.85 836.40   L 794.98 836.40   A 0.84 0.83 -1.3 0 0 794.14 837.27   L 794.63 847.46   L 781.26 847.50   A 0.52 0.52 0.0 0 0 780.74 848.02   L 780.76 859.24   L 780.39 865.33   A 0.92 0.91 -88.0 0 1 779.48 866.19   L 728.17 866.19   A 0.62 0.61 -89.5 0 1 727.56 865.56   L 727.67 854.15   A 1.05 1.05 0.0 0 0 726.62 853.09   L 712.95 853.09   A 0.94 0.94 0.0 0 1 712.01 852.18   L 711.70 839.69   A 1.29 1.29 0.0 0 0 710.42 838.43   L 700.34 838.32   A 1.25 1.24 -89.8 0 1 699.11 837.07   L 699.11 772.90   A 0.82 0.82 0.0 0 1 699.91 772.08   L 712.83 771.76   A 1.12 1.12 0.0 0 0 713.92 770.63   L 713.90 763.65   L 729.17 763.51   A 0.45 0.45 0.0 0 0 729.62 763.06   L 729.56 748.15   Q 729.82 747.76 730.24 747.80   Q 732.73 748.07 735.25 748.04   Q 755.80 747.83 776.30 748.15   Z   M 732.33 767.97   A 0.66 0.66 0.0 0 0 731.67 768.63   L 731.67 786.58   A 0.66 0.66 0.0 0 1 731.01 787.24   L 716.37 787.24   A 0.66 0.66 0.0 0 0 715.71 787.90   L 715.71 830.69   A 0.66 0.66 0.0 0 0 716.37 831.35   L 730.96 831.35   A 0.66 0.66 0.0 0 1 731.62 832.01   L 731.62 849.20   A 0.66 0.66 0.0 0 0 732.28 849.86   L 771.91 849.86   A 0.66 0.66 0.0 0 0 772.57 849.20   L 772.57 831.98   A 0.66 0.66 0.0 0 1 773.23 831.32   L 784.90 831.32   A 0.66 0.66 0.0 0 0 785.56 830.66   L 785.56 787.91   A 0.66 0.66 0.0 0 0 784.90 787.25   L 773.19 787.25   A 0.66 0.66 0.0 0 1 772.53 786.59   L 772.53 768.63   A 0.66 0.66 0.0 0 0 771.87 767.97   L 732.33 767.97   Z" />
</g><g id="thread-black" fill="#080b0c"><path id="path_004" d="   M 1021.18 1086.91   Q 908.64 1183.65 764.54 1219.78   Q 628.51 1253.88 492.01 1219.71   Q 349.25 1183.98 237.08 1090.66   C 164.85 1030.58 106.38 952.53 69.04 865.44   C 21.05 753.53 8.92 630.59 32.09 512.03   C 48.89 426.00 84.30 343.29 135.65 271.42   Q 166.37 228.41 203.50 191.26   C 272.58 122.15 357.66 72.11 451.60 44.09   Q 500.04 29.64 544.69 22.97   Q 594.24 15.57 646.25 17.18   C 758.35 20.66 867.87 56.36 960.54 118.72   C 1014.84 155.27 1062.28 200.17 1102.37 252.86   C 1169.86 341.55 1214.06 448.03 1227.04 558.93   Q 1236.34 638.33 1224.23 718.09   Q 1202.38 861.90 1118.90 979.71   Q 1076.82 1039.08 1021.18 1086.91   Z   M 465.21 231.26   L 787.20 231.26   A 0.60 0.59 -90.0 0 1 787.79 231.86   L 787.79 251.56   A 0.86 0.85 -0.0 0 0 788.65 252.41   L 838.45 252.41   A 0.58 0.57 0.0 0 1 839.03 252.98   L 839.03 272.28   A 0.82 0.81 90.0 0 0 839.84 273.10   L 860.95 273.10   A 0.60 0.60 0.0 0 1 861.55 273.70   L 861.55 295.13   A 1.06 1.05 0.0 0 0 862.61 296.18   L 881.63 296.18   A 0.53 0.53 0.0 0 1 882.16 296.71   L 882.16 353.67   A 0.31 0.31 0.0 0 0 882.48 353.98   L 889.52 353.80   A 0.32 0.31 -1.0 0 0 889.83 353.49   L 889.83 283.29   A 0.57 0.56 0.0 0 1 890.40 282.73   L 906.95 282.73   A 1.02 1.01 -89.4 0 0 907.96 281.73   L 908.14 263.86   A 0.49 0.49 0.0 0 1 908.63 263.37   L 966.86 263.37   A 0.70 0.70 0.0 0 1 967.56 264.07   L 967.56 282.06   A 0.92 0.92 0.0 0 0 968.48 282.98   L 986.32 282.98   A 0.87 0.87 0.0 0 1 987.19 283.85   L 987.19 448.11   A 0.70 0.70 0.0 0 0 987.88 448.81   L 1002.05 448.95   A 0.36 0.36 0.0 0 0 1002.42 448.59   L 1002.42 319.30   A 0.72 0.72 0.0 0 1 1003.13 318.58   L 1019.60 318.16   A 0.83 0.83 0.0 0 0 1020.41 317.34   L 1020.58 299.83   A 0.62 0.61 -89.5 0 1 1021.19 299.22   L 1063.60 299.22   A 0.59 0.59 0.0 0 1 1064.19 299.82   L 1064.01 317.75   A 0.95 0.95 0.0 0 0 1064.95 318.71   L 1081.73 318.88   A 0.55 0.55 0.0 0 1 1082.28 319.43   L 1082.28 354.93   A 1.01 1.01 0.0 0 0 1083.28 355.94   L 1100.17 356.11   A 0.88 0.88 0.0 0 1 1101.04 356.99   L 1101.04 378.35   A 0.76 0.75 90.0 0 0 1101.79 379.11   L 1119.13 379.11   A 0.60 0.60 0.0 0 1 1119.73 379.71   L 1119.73 469.16   A 0.76 0.76 0.0 0 1 1118.96 469.92   L 1101.34 469.74   A 0.30 0.30 0.0 0 0 1101.04 470.04   L 1101.04 516.95   A 0.62 0.61 -0.0 0 1 1100.42 517.56   L 1082.65 517.38   A 1.16 1.16 0.0 0 0 1081.48 518.54   L 1081.48 541.03   A 0.70 0.70 0.0 0 1 1080.78 541.73   L 1062.12 541.73   A 0.88 0.88 0.0 0 0 1061.24 542.61   L 1061.24 560.63   A 0.62 0.62 0.0 0 1 1060.62 561.25   L 1022.45 561.25   A 0.63 0.63 0.0 0 0 1021.82 561.88   L 1021.82 581.04   A 0.65 0.64 -0.0 0 1 1021.17 581.68   L 987.47 581.68   A 0.79 0.79 0.0 0 0 986.68 582.47   L 986.68 599.10   A 0.69 0.68 90.0 0 1 986.00 599.79   L 966.98 599.79   A 0.64 0.64 0.0 0 0 966.34 600.42   L 966.17 617.57   A 0.91 0.91 0.0 0 1 965.26 618.47   L 945.18 618.47   A 0.66 0.66 0.0 0 0 944.52 619.13   L 944.52 633.06   A 0.66 0.66 0.0 0 0 945.18 633.72   L 1017.83 633.72   A 0.59 0.58 90.0 0 1 1018.41 634.31   L 1018.41 652.54   A 0.62 0.62 0.0 0 0 1019.03 653.16   L 1038.13 653.16   A 0.52 0.52 0.0 0 1 1038.65 653.68   L 1038.65 671.96   A 0.68 0.68 0.0 0 0 1039.33 672.64   L 1056.87 672.64   A 0.49 0.49 0.0 0 1 1057.36 673.13   L 1057.36 713.87   A 0.50 0.49 90.0 0 1 1056.87 714.37   L 1038.82 714.37   A 0.62 0.62 0.0 0 0 1038.20 714.99   L 1038.20 732.25   A 0.98 0.98 0.0 0 1 1037.21 733.23   L 1019.81 733.05   A 0.94 0.93 -0.0 0 0 1018.87 733.98   L 1018.87 752.25   A 0.74 0.73 -90.0 0 1 1018.14 752.99   L 982.61 752.99   A 0.45 0.45 0.0 0 0 982.16 753.43   L 981.90 779.12   A 0.45 0.45 0.0 0 1 981.45 779.57   L 963.36 779.57   A 0.49 0.49 0.0 0 0 962.87 780.06   L 962.87 796.13   A 0.58 0.58 0.0 0 1 962.29 796.71   L 944.25 796.71   A 0.57 0.57 0.0 0 0 943.68 797.28   L 943.68 813.73   A 0.54 0.54 0.0 0 1 943.14 814.27   L 924.99 814.27   A 0.51 0.51 0.0 0 0 924.48 814.78   L 924.48 831.97   A 0.67 0.66 -0.0 0 1 923.81 832.63   L 896.92 832.63   A 0.39 0.39 0.0 0 0 896.53 833.02   L 896.53 851.06   A 0.56 0.55 -90.0 0 1 895.98 851.62   L 874.27 851.62   A 0.87 0.87 0.0 0 0 873.40 852.49   L 873.40 871.91   A 0.69 0.68 -0.0 0 1 872.71 872.59   L 854.15 872.59   A 0.83 0.83 0.0 0 0 853.32 873.42   L 853.32 896.38   A 0.90 0.90 0.0 0 1 852.42 897.28   L 836.63 897.28   A 0.58 0.57 0.0 0 0 836.05 897.85   L 835.89 913.00   A 0.60 0.60 0.0 0 1 835.29 913.60   L 820.07 913.60   A 0.49 0.49 0.0 0 0 819.58 914.09   L 819.58 927.60   A 0.57 0.57 0.0 0 1 819.01 928.17   L 804.27 928.17   A 0.37 0.37 0.0 0 0 803.90 928.54   L 803.90 942.13   A 0.79 0.79 0.0 0 1 803.11 942.92   L 788.64 942.92   A 0.47 0.47 0.0 0 0 788.17 943.39   L 788.00 960.07   A 0.58 0.57 -0.0 0 1 787.42 960.64   L 766.86 960.64   A 0.82 0.82 0.0 0 0 766.04 961.46   L 765.80 985.14   A 0.83 0.83 0.0 0 0 766.63 985.98   L 790.95 985.98   A 0.62 0.62 0.0 0 1 791.57 986.60   L 791.57 994.24   A 0.86 0.86 0.0 0 0 792.45 995.10   L 799.41 994.93   A 0.79 0.79 0.0 0 1 800.22 995.72   L 800.22 1011.44   A 0.77 0.77 0.0 0 0 800.98 1012.21   L 818.04 1012.38   A 0.69 0.69 0.0 0 1 818.72 1013.07   L 818.72 1030.11   A 0.88 0.88 0.0 0 0 819.60 1030.99   L 831.52 1031.12   A 0.74 0.73 90.0 0 1 832.25 1031.86   L 832.25 1047.38   A 1.09 1.08 0.5 0 0 833.32 1048.46   L 845.18 1048.58   A 0.65 0.65 0.0 0 1 845.83 1049.23   L 845.83 1063.70   A 0.98 0.97 -90.0 0 0 846.80 1064.68   L 861.58 1064.68   A 0.57 0.57 0.0 0 1 862.15 1065.25   L 862.15 1090.71   A 1.25 1.25 0.0 0 0 863.39 1091.96   L 874.73 1092.08   A 0.81 0.80 0.4 0 1 875.53 1092.88   L 875.53 1131.74   A 0.42 0.42 0.0 0 0 876.14 1132.12   Q 978.27 1080.95 1052.43 993.46   Q 1120.65 912.98 1154.48 812.47   C 1187.62 713.96 1192.11 607.69 1170.97 505.73   Q 1164.56 474.79 1153.42 443.35   Q 1130.33 378.24 1096.07 323.68   C 1089.19 312.71 1085.12 305.81 1078.92 297.39   Q 1073.30 289.75 1065.89 279.38   Q 1062.55 274.72 1047.99 257.05   Q 1037.44 244.27 1028.44 234.82   C 933.00 134.61 804.60 72.98 667.25 63.45   Q 563.78 56.26 463.00 85.72   Q 395.77 105.36 335.47 143.14   Q 257.40 192.04 200.00 262.00   Q 144.66 329.44 111.14 409.40   C 74.11 497.72 60.90 595.56 70.61 690.94   C 79.61 779.25 110.48 865.74 159.79 939.81   C 213.67 1020.75 288.16 1086.04 375.13 1130.32   A 0.39 0.39 0.0 0 0 375.69 1129.97   L 375.69 1092.90   A 1.12 1.11 0.3 0 1 376.82 1091.79   L 388.08 1091.90   A 0.73 0.72 -89.6 0 0 388.81 1091.17   L 388.81 1065.12   A 0.74 0.73 0.4 0 1 389.56 1064.39   L 404.58 1064.54   A 0.52 0.52 0.0 0 0 405.11 1064.02   L 405.11 1048.89   A 0.41 0.41 0.0 0 1 405.52 1048.48   L 417.86 1048.48   A 0.73 0.73 0.0 0 0 418.59 1047.75   L 418.59 1031.56   A 0.56 0.56 0.0 0 1 419.15 1031.00   L 431.65 1031.00   A 0.61 0.60 0.0 0 0 432.26 1030.40   L 432.26 1012.80   A 0.43 0.42 -90.0 0 1 432.68 1012.37   L 450.28 1012.37   A 0.65 0.65 0.0 0 0 450.93 1011.72   L 450.93 995.72   A 0.64 0.64 0.0 0 1 451.58 995.08   L 458.88 995.15   A 0.63 0.63 0.0 0 0 459.52 994.52   L 459.52 986.39   A 0.56 0.56 0.0 0 1 460.09 985.83   L 484.78 986.08   A 0.50 0.49 -0.0 0 0 485.28 985.59   L 485.28 961.89   A 1.23 1.23 0.0 0 0 484.05 960.66   L 464.25 960.66   A 1.09 1.09 0.0 0 1 463.16 959.57   L 463.16 943.71   A 0.75 0.75 0.0 0 0 462.41 942.96   L 448.06 942.96   A 0.74 0.73 -0.0 0 1 447.32 942.23   L 447.32 928.85   A 0.71 0.71 0.0 0 0 446.61 928.14   L 432.50 928.14   A 0.68 0.68 0.0 0 1 431.82 927.46   L 431.82 914.60   A 0.99 0.98 0.0 0 0 430.83 913.62   L 415.88 913.62   A 0.68 0.68 0.0 0 1 415.20 912.94   L 415.20 898.06   A 0.74 0.73 -90.0 0 0 414.47 897.32   L 398.82 897.32   A 0.60 0.59 0.0 0 1 398.22 896.73   L 398.22 873.10   A 0.56 0.56 0.0 0 0 397.66 872.54   L 378.44 872.54   A 0.61 0.61 0.0 0 1 377.83 871.92   L 378.03 852.15   A 0.59 0.58 0.0 0 0 377.44 851.57   L 355.10 851.57   A 0.71 0.70 -89.6 0 1 354.40 850.85   L 354.57 833.30   A 0.70 0.70 0.0 0 0 353.87 832.59   L 327.01 832.59   A 0.52 0.52 0.0 0 1 326.49 832.07   L 326.49 815.05   A 0.75 0.74 -0.0 0 0 325.74 814.31   L 308.03 814.31   A 0.55 0.55 0.0 0 1 307.48 813.76   L 307.48 797.66   A 0.80 0.80 0.0 0 0 306.69 796.86   L 288.94 796.68   A 0.52 0.51 -0.6 0 1 288.42 796.18   L 288.04 780.92   A 1.29 1.29 0.0 0 0 286.76 779.66   L 269.81 779.49   A 0.70 0.70 0.0 0 1 269.12 778.79   L 269.12 753.46   A 0.55 0.54 90.0 0 0 268.58 752.91   L 232.85 752.91   A 0.81 0.81 0.0 0 1 232.04 752.09   L 232.22 733.95   A 0.83 0.83 0.0 0 0 231.39 733.11   L 213.78 733.11   A 0.48 0.47 90.0 0 1 213.31 732.63   L 213.31 715.11   A 0.67 0.67 0.0 0 0 212.64 714.44   L 194.73 714.44   A 0.57 0.57 0.0 0 1 194.16 713.87   L 194.16 673.02   A 0.56 0.56 0.0 0 1 194.72 672.46   L 212.61 672.46   A 0.51 0.50 -89.4 0 0 213.11 671.96   L 213.30 653.52   A 0.42 0.42 0.0 0 1 213.72 653.10   L 232.32 653.10   A 0.84 0.84 0.0 0 0 233.16 652.26   L 233.16 634.17   A 0.55 0.55 0.0 0 1 233.71 633.62   L 306.26 633.62   A 0.82 0.81 -90.0 0 0 307.07 632.80   L 307.07 619.45   A 0.95 0.95 0.0 0 0 306.12 618.50   L 286.45 618.50   A 0.94 0.93 90.0 0 1 285.52 617.56   L 285.52 600.70   A 0.85 0.85 0.0 0 0 284.67 599.85   L 265.49 599.85   A 0.72 0.71 0.4 0 1 264.77 599.13   L 264.93 583.02   A 1.08 1.08 0.0 0 0 263.85 581.92   L 231.40 581.92   A 1.04 1.04 0.0 0 1 230.36 580.88   L 230.36 562.50   A 0.98 0.98 0.0 0 0 229.38 561.52   L 191.64 561.52   A 0.47 0.47 0.0 0 1 191.17 561.05   L 191.17 542.50   A 0.71 0.70 90.0 0 0 190.47 541.79   L 171.33 541.79   A 0.69 0.69 0.0 0 1 170.64 541.10   L 170.64 518.27   A 0.74 0.74 0.0 0 0 169.90 517.53   L 152.07 517.53   A 0.79 0.78 90.0 0 1 151.29 516.74   L 151.29 470.74   A 0.84 0.83 -0.0 0 0 150.45 469.91   L 133.49 469.91   A 0.68 0.68 0.0 0 1 132.81 469.23   L 132.81 379.89   A 0.79 0.78 -0.0 0 1 133.60 379.11   L 150.28 379.11   A 1.14 1.13 90.0 0 0 151.41 377.97   L 151.41 357.02   A 0.97 0.97 0.0 0 1 152.38 356.05   L 169.74 356.05   A 0.80 0.80 0.0 0 0 170.54 355.25   L 170.54 319.50   A 0.77 0.76 -89.6 0 1 171.31 318.73   L 188.80 318.91   A 0.76 0.75 0.0 0 0 189.56 318.16   L 189.56 300.05   A 0.62 0.61 90.0 0 1 190.17 299.43   L 231.26 299.43   A 0.53 0.53 0.0 0 1 231.79 299.97   L 231.61 318.12   A 0.62 0.62 0.0 0 0 232.23 318.75   L 248.84 318.75   A 0.83 0.83 0.0 0 1 249.67 319.58   L 249.67 448.27   A 0.91 0.90 90.0 0 0 250.57 449.18   L 264.33 449.18   A 0.48 0.47 -90.0 0 0 264.80 448.70   Q 264.84 361.44 264.86 359.39   C 264.98 344.72 264.01 326.98 264.59 312.82   C 265.03 302.11 264.77 295.62 264.95 283.50   A 0.55 0.55 0.0 0 1 265.50 282.96   L 282.71 282.96   A 0.89 0.89 0.0 0 0 283.60 282.08   L 283.78 264.16   A 0.49 0.48 -88.8 0 1 284.27 263.68   L 343.29 264.27   A 0.42 0.42 0.0 0 1 343.70 264.69   L 343.70 282.49   A 0.75 0.75 0.0 0 0 344.45 283.24   L 361.41 283.24   A 0.74 0.74 0.0 0 1 362.15 283.98   L 362.15 353.63   A 0.27 0.27 0.0 0 0 362.42 353.90   L 370.36 353.90   A 0.42 0.41 90.0 0 0 370.77 353.48   L 370.77 296.64   A 0.61 0.61 0.0 0 1 371.38 296.03   L 389.87 296.03   A 0.91 0.90 0.0 0 0 390.78 295.13   L 390.78 273.45   A 1.07 1.06 -90.0 0 1 391.84 272.38   L 412.40 272.38   A 0.83 0.83 0.0 0 0 413.23 271.56   L 413.42 252.44   A 0.27 0.27 0.0 0 1 413.69 252.18   L 463.09 252.18   A 1.21 1.21 0.0 0 0 464.30 250.99   L 464.49 231.98   A 0.73 0.72 -89.6 0 1 465.21 231.26   Z   M 391.39 526.12   C 391.16 543.98 390.92 562.00 391.93 579.78   Q 392.37 587.45 392.13 593.80   A 0.81 0.80 3.4 0 0 392.86 594.62   Q 402.24 595.48 413.28 594.97   A 0.58 0.58 0.0 0 0 413.84 594.39   L 413.84 581.31   A 0.43 0.42 0.0 0 1 414.27 580.89   L 446.75 581.06   L 473.78 581.10   A 0.96 0.95 -0.0 0 0 474.74 580.15   L 474.74 562.99   A 0.57 0.57 0.0 0 1 475.31 562.42   L 776.24 562.42   A 0.66 0.65 -90.0 0 1 776.89 563.08   L 776.89 580.63   A 0.76 0.75 0.0 0 0 777.65 581.38   L 820.16 581.32   L 837.76 581.29   A 0.59 0.59 0.0 0 1 838.35 581.88   L 838.21 595.48   A 1.32 1.32 0.0 0 0 839.53 596.82   L 859.04 596.82   A 0.55 0.55 0.0 0 0 859.59 596.28   Q 859.87 579.20 859.86 560.33   Q 859.86 560.01 860.47 543.19   Q 860.77 534.85 860.25 526.02   L 860.27 470.52   A 0.54 0.54 0.0 0 1 860.81 469.98   L 880.84 469.98   A 0.73 0.73 0.0 0 0 881.57 469.25   L 881.57 355.39   A 0.86 0.86 0.0 0 0 880.71 354.53   L 861.17 354.53   A 0.57 0.57 0.0 0 1 860.60 353.96   L 860.60 298.59   A 0.76 0.76 0.0 0 0 859.84 297.83   L 837.35 297.83   A 0.41 0.41 0.0 0 1 836.94 297.42   L 836.94 275.99   A 0.96 0.95 90.0 0 0 835.99 275.03   L 786.32 275.03   A 0.64 0.64 0.0 0 1 785.68 274.39   L 785.68 254.28   A 0.69 0.69 0.0 0 0 784.99 253.59   L 467.44 253.59   A 0.84 0.84 0.0 0 0 466.60 254.43   L 466.60 274.16   A 0.71 0.70 -90.0 0 1 465.90 274.87   L 416.16 274.87   A 0.74 0.73 0.0 0 0 415.42 275.60   L 415.42 296.43   A 0.94 0.94 0.0 0 1 414.48 297.37   L 392.81 297.37   A 0.88 0.87 90.0 0 0 391.94 298.25   L 391.94 353.65   A 0.92 0.92 0.0 0 1 391.02 354.57   L 371.08 354.57   A 0.72 0.72 0.0 0 0 370.36 355.29   L 370.36 469.03   A 0.86 0.85 90.0 0 0 371.21 469.89   L 390.47 469.89   A 0.87 0.87 0.0 0 1 391.34 470.76   L 391.39 526.12   Z   M 285.06 450.12   L 267.46 450.12   A 1.01 1.01 0.0 0 0 266.45 451.13   L 266.45 489.25   A 0.67 0.67 0.0 0 1 265.78 489.92   L 248.71 489.92   A 1.15 1.15 0.0 0 1 247.56 488.77   L 247.56 471.10   A 1.19 1.18 -89.8 0 0 246.39 469.91   L 230.58 469.75   A 0.74 0.73 -1.7 0 1 229.85 469.07   Q 229.41 463.39 229.42 462.52   Q 229.51 380.16 229.46 329.75   Q 229.46 326.42 229.84 320.72   A 1.27 1.27 0.0 0 0 228.54 319.37   C 224.63 319.46 220.01 320.17 215.47 320.02   Q 204.72 319.64 191.27 319.70   A 1.12 1.11 -0.0 0 0 190.15 320.81   L 190.15 356.19   A 0.96 0.95 -90.0 0 1 189.20 357.15   L 172.56 357.15   A 0.89 0.88 90.0 0 0 171.68 358.04   L 171.68 396.55   A 0.77 0.76 -90.0 0 1 170.92 397.32   L 153.68 397.32   A 0.72 0.71 -0.0 0 0 152.96 398.03   L 152.96 447.83   A 0.64 0.63 0.5 0 0 153.59 448.46   L 171.03 448.64   A 0.76 0.76 0.0 0 1 171.79 449.40   L 171.79 498.39   A 1.12 1.11 -2.4 0 0 173.00 499.50   Q 182.80 498.65 191.13 499.28   A 0.69 0.69 0.0 0 1 191.77 499.97   L 191.77 521.45   A 1.06 1.06 0.0 0 0 192.83 522.51   L 210.03 522.51   A 0.70 0.70 0.0 0 1 210.73 523.21   L 210.73 539.78   A 0.82 0.82 0.0 0 0 211.55 540.60   L 246.93 540.60   A 0.79 0.79 0.0 0 1 247.72 541.40   L 247.54 559.53   A 0.97 0.97 0.0 0 0 248.51 560.51   L 283.58 560.51   A 0.89 0.89 0.0 0 1 284.47 561.40   L 284.47 578.96   A 0.97 0.97 0.0 0 0 285.44 579.93   L 303.16 579.93   A 0.75 0.75 0.0 0 1 303.91 580.68   L 303.91 597.59   A 1.24 1.24 0.0 0 0 305.15 598.83   L 322.36 598.83   A 0.91 0.91 0.0 0 1 323.27 599.74   L 323.27 613.59   A 0.90 0.90 0.0 0 0 324.17 614.49   L 355.85 614.49   A 1.53 1.53 0.0 0 0 357.38 612.97   L 357.53 598.66   A 0.82 0.82 0.0 0 1 358.33 597.84   L 370.49 597.54   A 1.52 1.51 89.6 0 0 371.96 596.04   L 372.13 579.06   A 0.77 0.77 0.0 0 0 371.36 578.28   L 342.26 578.28   A 0.53 0.52 -0.0 0 1 341.73 577.76   L 341.90 561.66   A 0.76 0.75 90.0 0 0 341.15 560.90   L 322.74 560.90   A 0.41 0.41 0.0 0 1 322.33 560.49   L 322.33 542.32   A 0.84 0.84 0.0 0 0 321.46 541.48   L 304.03 541.91   A 0.68 0.68 0.0 0 1 303.33 541.23   L 303.33 503.85   A 0.91 0.91 0.0 0 1 304.24 502.94   L 321.30 502.94   A 1.04 1.04 0.0 0 0 322.28 502.24   Q 322.77 500.77 322.74 497.75   Q 322.61 484.21 322.84 461.90   A 0.61 0.61 0.0 0 1 323.45 461.30   L 340.51 461.48   A 1.31 1.31 0.0 0 0 341.83 460.16   Q 341.69 380.34 341.44 309.00   Q 341.40 298.01 340.92 284.07   A 0.68 0.68 0.0 0 0 340.24 283.41   L 286.12 283.41   A 0.63 0.63 0.0 0 0 285.49 284.04   L 285.49 449.69   A 0.43 0.43 0.0 0 1 285.06 450.12   Z   M 1004.79 540.43   L 1040.19 540.43   A 0.98 0.98 0.0 0 0 1041.17 539.46   L 1041.33 523.37   A 0.93 0.93 0.0 0 1 1042.26 522.45   L 1059.69 522.45   A 1.16 1.16 0.0 0 0 1060.85 521.29   L 1060.85 499.73   A 0.62 0.61 0.5 0 1 1061.48 499.12   L 1079.57 499.30   A 0.76 0.76 0.0 0 0 1080.34 498.55   L 1080.84 449.02   A 0.40 0.40 0.0 0 1 1081.25 448.62   L 1099.18 448.80   A 0.62 0.61 0.0 0 0 1099.80 448.19   L 1099.80 398.11   A 0.64 0.64 0.0 0 0 1099.16 397.47   L 1081.57 397.47   A 0.57 0.57 0.0 0 1 1081.00 396.90   L 1081.00 358.23   A 1.13 1.13 0.0 0 0 1079.88 357.10   L 1063.39 356.93   A 0.83 0.82 89.3 0 1 1062.57 356.12   C 1062.32 347.10 1061.99 342.58 1062.44 333.62   Q 1062.73 327.73 1062.51 320.36   A 0.70 0.69 -0.8 0 0 1061.81 319.69   L 1023.35 319.69   A 1.08 1.08 0.0 0 0 1022.27 320.77   L 1022.27 468.61   A 0.84 0.83 -90.0 0 1 1021.44 469.45   L 1005.08 469.45   A 0.86 0.85 0.0 0 0 1004.22 470.30   L 1004.22 488.41   A 1.17 1.17 0.0 0 1 1003.05 489.58   L 986.11 489.58   A 0.87 0.86 -0.0 0 1 985.24 488.72   L 985.24 451.08   A 0.98 0.97 -90.0 0 0 984.27 450.10   L 967.28 450.10   A 1.16 1.16 0.0 0 1 966.12 448.94   L 966.12 284.21   A 1.01 1.01 0.0 0 0 965.11 283.20   L 910.41 283.20   A 0.88 0.87 -90.0 0 0 909.54 284.08   L 909.54 459.81   A 1.02 1.02 0.0 0 0 910.55 460.83   L 927.86 461.01   A 0.79 0.79 0.0 0 1 928.65 461.80   L 928.65 501.71   A 1.10 1.10 0.0 0 0 929.75 502.81   L 947.61 502.81   A 0.67 0.67 0.0 0 1 948.28 503.48   L 948.28 540.67   A 1.03 1.02 -89.7 0 1 947.25 541.70   L 929.81 541.52   A 0.51 0.51 0.0 0 0 929.29 542.03   L 929.29 560.21   A 0.65 0.65 0.0 0 1 928.64 560.86   L 910.37 560.86   A 0.75 0.75 0.0 0 0 909.62 561.60   L 909.45 578.13   A 0.41 0.41 0.0 0 1 909.04 578.54   L 880.58 578.54   A 0.93 0.92 -0.9 0 0 879.65 579.49   L 880.11 597.94   A 0.78 0.77 89.2 0 0 880.88 598.70   L 893.66 598.70   A 0.60 0.60 0.0 0 1 894.26 599.30   L 894.26 613.53   A 0.71 0.71 0.0 0 0 894.93 614.24   Q 910.94 614.98 927.27 614.22   A 0.88 0.88 0.0 0 0 928.11 613.35   L 928.25 599.43   A 0.63 0.63 0.0 0 1 928.88 598.81   L 947.12 598.81   A 0.68 0.67 -89.6 0 0 947.79 598.14   L 947.97 580.05   A 0.42 0.42 0.0 0 1 948.40 579.63   L 966.05 579.81   A 0.93 0.92 -89.7 0 0 966.98 578.88   L 966.98 560.87   A 0.66 0.65 90.0 0 1 967.63 560.21   L 1003.24 560.21   A 1.01 1.01 0.0 0 0 1004.25 559.20   L 1004.25 540.96   A 0.54 0.53 0.0 0 1 1004.79 540.43   Z   M 906.49 558.28   A 0.76 0.76 0.0 0 0 907.25 557.52   L 907.25 535.16   A 0.76 0.76 0.0 0 1 908.01 534.40   L 927.14 534.40   A 0.76 0.76 0.0 0 0 927.90 533.64   L 927.90 513.43   A 0.76 0.76 0.0 0 0 927.14 512.67   L 909.08 512.67   A 0.76 0.76 0.0 0 1 908.32 511.91   L 908.32 480.95   A 0.76 0.76 0.0 0 0 907.56 480.19   L 892.29 480.19   A 0.76 0.76 0.0 0 0 891.53 480.95   L 891.53 541.36   A 0.76 0.76 0.0 0 1 890.77 542.12   L 880.59 542.12   A 0.76 0.76 0.0 0 0 879.83 542.88   L 879.83 557.52   A 0.76 0.76 0.0 0 0 880.59 558.28   L 906.49 558.28   Z   M 358.63 481.45   A 0.61 0.61 0.0 0 0 358.03 480.84   L 343.47 480.70   A 0.61 0.61 0.0 0 0 342.85 481.31   L 342.85 512.64   A 0.61 0.61 0.0 0 1 342.24 513.25   L 324.05 513.25   A 0.61 0.61 0.0 0 0 323.44 513.86   L 323.44 533.80   A 0.61 0.61 0.0 0 0 324.05 534.41   L 343.44 534.41   A 0.61 0.61 0.0 0 1 344.05 535.02   L 344.05 557.48   A 0.61 0.61 0.0 0 0 344.66 558.09   L 370.65 558.09   A 0.61 0.61 0.0 0 0 371.26 557.48   L 371.26 542.74   A 0.61 0.61 0.0 0 0 370.65 542.13   L 359.24 542.13   A 0.61 0.61 0.0 0 1 358.63 541.52   L 358.63 481.45   Z   M 294.89 693.67   L 290.07 693.48   A 1.04 1.03 1.6 0 0 288.99 694.49   L 288.46 724.80   L 288.41 749.15   L 288.59 774.36   A 1.06 1.05 89.7 0 0 289.64 775.41   L 307.28 775.41   A 1.00 1.00 0.0 0 1 308.28 776.41   L 308.28 793.08   A 0.98 0.98 0.0 0 0 309.25 794.06   L 326.69 794.23   A 0.57 0.57 0.0 0 1 327.25 794.79   L 327.63 810.03   A 0.60 0.60 0.0 0 0 328.23 810.61   L 355.32 810.61   A 0.65 0.64 90.0 0 1 355.96 811.26   L 355.96 828.97   A 1.00 0.99 -0.0 0 0 356.96 829.96   L 376.88 829.96   A 1.04 1.04 0.0 0 0 377.92 828.92   L 377.92 769.46   A 0.42 0.41 90.0 0 0 377.51 769.04   L 360.30 769.04   A 1.13 1.13 0.0 0 1 359.17 767.90   L 359.39 746.58   A 0.46 0.45 0.0 0 1 359.85 746.13   L 377.08 746.13   A 0.93 0.93 0.0 0 0 378.01 745.20   L 378.01 721.65   A 0.64 0.64 0.0 0 1 378.65 721.01   L 394.89 721.01   A 0.92 0.92 0.0 0 0 395.81 720.09   L 395.81 703.34   A 0.50 0.49 -90.0 0 1 396.30 702.84   L 412.60 702.84   A 1.32 1.31 0.2 0 0 413.92 701.54   L 414.09 684.98   A 0.62 0.62 0.0 0 1 414.71 684.36   L 444.79 684.36   A 0.82 0.82 0.0 0 0 445.61 683.56   L 445.85 668.46   L 487.39 668.31   L 537.28 668.29   A 0.82 0.82 0.0 0 0 538.10 667.48   L 538.16 661.21   A 0.50 0.50 0.0 0 1 538.66 660.72   L 713.10 660.72   A 0.76 0.76 0.0 0 1 713.86 661.48   L 713.86 667.53   A 0.63 0.62 0.0 0 0 714.49 668.15   L 763.72 668.04   Q 784.59 667.08 805.33 668.53   C 803.86 673.84 805.09 679.19 805.18 683.51   A 0.59 0.59 0.0 0 0 805.76 684.09   L 837.35 684.31   Q 837.83 684.77 837.71 685.12   L 837.65 701.73   A 0.90 0.90 0.0 0 0 838.55 702.63   L 854.40 702.63   A 1.03 1.02 -90.0 0 1 855.42 703.66   L 855.42 720.08   A 0.88 0.88 0.0 0 0 856.30 720.96   L 872.65 720.96   A 0.79 0.78 -90.0 0 1 873.43 721.75   L 873.43 745.45   A 0.65 0.64 -0.0 0 0 874.08 746.09   L 891.02 746.09   A 0.71 0.71 0.0 0 1 891.73 746.80   L 891.73 768.25   A 0.75 0.74 0.0 0 1 890.98 768.99   L 874.03 768.99   A 0.59 0.58 90.0 0 0 873.45 769.58   L 873.45 828.93   A 1.13 1.13 0.0 0 0 874.58 830.06   L 894.20 830.06   A 0.94 0.93 -0.0 0 0 895.14 829.13   L 895.14 811.17   A 0.39 0.38 -90.0 0 1 895.52 810.78   L 923.14 810.78   A 0.70 0.70 0.0 0 0 923.84 810.08   L 923.84 794.55   A 0.40 0.39 -0.0 0 1 924.24 794.16   L 942.05 794.16   A 0.89 0.89 0.0 0 0 942.94 793.27   L 942.94 776.05   A 0.44 0.44 0.0 0 1 943.38 775.61   L 961.89 775.61   A 0.54 0.54 0.0 0 0 962.43 775.07   L 962.73 748.45   L 962.83 725.05   Q 962.80 717.08 962.36 708.85   C 962.10 703.95 962.18 699.25 962.65 694.49   A 0.85 0.84 7.1 0 0 961.93 693.57   Q 959.17 693.14 956.36 693.65   L 943.93 693.52   A 0.72 0.72 0.0 0 1 943.22 692.80   L 943.22 674.61   A 0.53 0.52 0.0 0 0 942.69 674.09   L 927.22 674.09   A 0.95 0.95 0.0 0 1 926.27 673.14   L 926.27 635.00   A 0.62 0.62 0.0 0 0 925.65 634.38   L 880.95 634.38   A 0.53 0.52 -0.0 0 1 880.42 633.86   L 880.42 616.58   A 0.45 0.45 0.0 0 0 879.97 616.13   L 837.83 616.13   A 0.49 0.49 0.0 0 1 837.34 615.64   L 837.34 600.02   A 0.71 0.71 0.0 0 0 836.63 599.31   L 776.57 599.31   A 0.59 0.59 0.0 0 1 775.98 598.71   L 776.13 583.16   A 0.62 0.62 0.0 0 0 775.51 582.53   L 476.27 582.53   A 0.79 0.79 0.0 0 0 475.48 583.31   L 475.32 598.67   A 0.62 0.62 0.0 0 1 474.70 599.29   L 414.83 599.29   A 0.49 0.49 0.0 0 0 414.34 599.78   L 414.34 615.33   A 0.74 0.74 0.0 0 1 413.60 616.07   L 371.65 616.07   A 0.63 0.63 0.0 0 0 371.02 616.70   L 370.85 633.78   A 0.66 0.66 0.0 0 1 370.19 634.43   L 325.82 634.43   A 0.48 0.48 0.0 0 0 325.34 634.91   L 325.34 673.26   A 0.78 0.78 0.0 0 1 324.56 674.04   L 308.89 674.04   A 0.50 0.50 0.0 0 0 308.39 674.54   L 308.20 692.80   A 0.73 0.73 0.0 0 1 307.48 693.52   L 294.89 693.67   Z   M 231.97 713.78   Q 233.00 714.04 233.04 714.44   L 233.08 731.55   A 0.62 0.62 0.0 0 0 233.70 732.17   L 268.13 732.17   A 0.73 0.73 0.0 0 0 268.86 731.44   L 268.85 714.30   L 269.09 696.92   L 269.08 690.57   A 0.43 0.43 0.0 0 1 269.51 690.14   L 287.88 690.14   A 0.47 0.47 0.0 0 0 288.35 689.67   L 288.35 672.18   A 0.73 0.73 0.0 0 1 289.08 671.45   L 306.32 671.45   A 0.50 0.50 0.0 0 0 306.82 670.95   L 306.82 654.08   A 0.48 0.47 90.0 0 0 306.35 653.60   L 234.88 653.60   A 0.98 0.98 0.0 0 0 233.90 654.58   L 233.90 673.52   A 0.51 0.51 0.0 0 1 233.39 674.03   L 214.91 674.03   A 0.52 0.52 0.0 0 0 214.39 674.55   L 214.39 713.07   A 0.78 0.78 0.0 0 0 215.17 713.85   L 231.97 713.78   Z   M 982.21 697.30   L 982.25 714.35   L 981.98 731.15   A 1.02 1.02 0.0 0 0 983.00 732.19   L 1017.48 732.19   A 0.64 0.64 0.0 0 0 1018.12 731.55   L 1018.12 714.52   A 0.88 0.88 0.0 0 1 1019.01 713.64   L 1036.69 713.82   A 0.70 0.70 0.0 0 0 1037.39 713.12   L 1037.39 674.80   A 0.65 0.65 0.0 0 0 1036.74 674.15   L 1017.88 674.15   A 0.59 0.58 90.0 0 1 1017.30 673.56   L 1017.30 654.21   A 0.58 0.57 -90.0 0 0 1016.73 653.63   L 945.06 653.63   A 0.36 0.36 0.0 0 0 944.70 653.99   L 944.53 670.73   A 0.77 0.76 0.4 0 0 945.30 671.50   L 962.58 671.50   A 0.51 0.51 0.0 0 1 963.09 672.01   L 963.09 689.56   A 0.58 0.58 0.0 0 0 963.67 690.14   L 981.53 690.14   A 0.60 0.59 89.5 0 1 982.12 690.73   L 982.21 697.30   Z   M 757.85 952.36   A 0.64 0.64 0.0 0 0 758.49 951.72   L 758.49 939.90   A 0.64 0.64 0.0 0 1 759.13 939.26   L 786.03 939.26   A 0.64 0.64 0.0 0 0 786.67 938.62   L 786.67 925.42   A 0.64 0.64 0.0 0 1 787.31 924.78   L 802.28 924.78   A 0.64 0.64 0.0 0 0 802.92 924.14   L 802.92 910.22   A 0.64 0.64 0.0 0 1 803.56 909.58   L 818.00 909.58   A 0.64 0.64 0.0 0 0 818.64 908.94   L 818.64 891.41   A 0.64 0.64 0.0 0 1 819.28 890.77   L 834.30 890.77   A 0.64 0.64 0.0 0 0 834.94 890.13   L 834.94 857.05   A 0.64 0.64 0.0 0 1 835.58 856.41   L 851.77 856.41   A 0.64 0.64 0.0 0 0 852.41 855.77   L 852.41 725.75   A 0.64 0.64 0.0 0 0 851.77 725.11   L 834.02 725.11   A 0.64 0.64 0.0 0 1 833.38 724.47   L 833.38 706.40   A 0.64 0.64 0.0 0 0 832.74 705.76   L 800.17 705.76   A 0.64 0.64 0.0 0 1 799.53 705.12   L 799.53 690.62   A 0.64 0.64 0.0 0 0 798.89 689.98   L 710.81 689.98   A 0.64 0.64 0.0 0 1 710.17 689.34   L 710.17 681.78   A 0.64 0.64 0.0 0 0 709.53 681.14   L 541.99 681.14   A 0.64 0.64 0.0 0 0 541.35 681.78   L 541.35 689.30   A 0.64 0.64 0.0 0 1 540.71 689.94   L 452.54 689.94   A 0.64 0.64 0.0 0 0 451.90 690.58   L 451.90 705.09   A 0.64 0.64 0.0 0 1 451.26 705.73   L 418.35 705.73   A 0.64 0.64 0.0 0 0 417.71 706.37   L 417.71 724.50   A 0.64 0.64 0.0 0 1 417.07 725.14   L 399.93 725.14   A 0.64 0.64 0.0 0 0 399.29 725.78   L 399.29 855.78   A 0.64 0.64 0.0 0 0 399.93 856.42   L 415.77 856.42   A 0.64 0.64 0.0 0 1 416.41 857.06   L 416.41 890.06   A 0.64 0.64 0.0 0 0 417.05 890.70   L 432.18 890.70   A 0.64 0.64 0.0 0 1 432.82 891.34   L 432.82 908.84   A 0.64 0.64 0.0 0 0 433.46 909.48   L 448.00 909.48   A 0.64 0.64 0.0 0 1 448.64 910.12   L 448.64 924.12   A 0.64 0.64 0.0 0 0 449.28 924.76   L 464.31 924.76   A 0.64 0.64 0.0 0 1 464.95 925.40   L 464.95 938.59   A 0.64 0.64 0.0 0 0 465.59 939.23   L 492.23 939.23   A 0.64 0.64 0.0 0 1 492.87 939.87   L 492.87 951.72   A 0.64 0.64 0.0 0 0 493.51 952.36   L 516.04 952.36   A 0.64 0.64 0.0 0 1 516.68 953.00   L 516.68 959.70   A 0.64 0.64 0.0 0 0 517.32 960.34   L 563.40 960.34   A 0.64 0.64 0.0 0 1 564.04 960.98   L 564.04 973.29   A 0.64 0.64 0.0 0 0 564.68 973.93   L 686.61 973.93   A 0.64 0.64 0.0 0 0 687.25 973.29   L 687.25 960.96   A 0.64 0.64 0.0 0 1 687.89 960.32   L 733.79 960.32   A 0.64 0.64 0.0 0 0 734.43 959.68   L 734.43 953.00   A 0.64 0.64 0.0 0 1 735.07 952.36   L 757.85 952.36   Z   M 515.60 1051.51   A 0.94 0.94 0.0 0 1 516.54 1050.58   L 528.64 1050.58   A 0.94 0.94 0.0 0 0 529.58 1049.64   L 529.58 1010.59   A 0.94 0.94 0.0 0 1 530.52 1009.65   L 542.71 1009.65   A 0.94 0.94 0.0 0 0 543.65 1008.71   L 543.65 980.21   A 0.94 0.94 0.0 0 0 542.71 979.27   L 501.34 979.27   A 0.94 0.94 0.0 0 0 500.40 980.20   L 500.11 1009.55   A 0.94 0.94 0.0 0 1 499.19 1010.48   L 489.92 1010.72   A 0.94 0.94 0.0 0 0 489.00 1011.66   L 489.00 1093.65   A 0.94 0.94 0.0 0 0 489.94 1094.59   L 502.19 1094.59   A 0.94 0.94 0.0 0 0 503.13 1093.65   L 503.13 1077.72   A 0.94 0.94 0.0 0 1 504.07 1076.78   L 514.41 1076.78   A 0.94 0.94 0.0 0 0 515.35 1075.85   L 515.60 1051.51   Z   M 751.79 1010.36   A 0.74 0.74 0.0 0 1 751.05 1009.62   L 751.05 980.05   A 0.74 0.74 0.0 0 0 750.31 979.31   L 708.46 979.31   A 0.74 0.74 0.0 0 0 707.72 980.05   L 707.72 1009.07   A 0.74 0.74 0.0 0 0 708.46 1009.81   L 720.95 1009.81   A 0.74 0.74 0.0 0 1 721.69 1010.55   L 721.69 1049.90   A 0.74 0.74 0.0 0 0 722.43 1050.64   L 735.00 1050.64   A 0.74 0.74 0.0 0 1 735.74 1051.38   L 735.74 1075.99   A 0.74 0.74 0.0 0 0 736.48 1076.73   L 747.38 1076.73   A 0.74 0.74 0.0 0 1 748.12 1077.47   L 748.12 1093.93   A 0.74 0.74 0.0 0 0 748.86 1094.67   L 761.51 1094.67   A 0.74 0.74 0.0 0 0 762.25 1093.93   L 762.25 1011.10   A 0.74 0.74 0.0 0 0 761.51 1010.36   L 751.79 1010.36   Z   M 557.64 1010.20   L 546.78 1010.58   A 0.48 0.48 0.0 0 0 546.32 1011.06   L 546.32 1050.89   A 0.60 0.60 0.0 0 1 545.72 1051.49   L 532.81 1051.49   A 0.71 0.70 90.0 0 0 532.11 1052.20   L 532.11 1076.70   A 0.82 0.82 0.0 0 1 531.29 1077.52   L 518.66 1077.52   A 0.81 0.80 -90.0 0 0 517.86 1078.33   L 517.86 1094.77   A 0.58 0.58 0.0 0 1 517.28 1095.35   L 505.19 1095.35   A 0.76 0.76 0.0 0 0 504.43 1096.11   L 504.43 1118.01   A 0.43 0.42 -90.0 0 1 504.01 1118.44   L 487.30 1118.44   A 0.73 0.73 0.0 0 0 486.57 1119.17   L 486.57 1151.09   A 0.75 0.74 90.0 0 1 485.83 1151.84   L 473.91 1151.84   A 1.05 1.04 0.0 0 0 472.86 1152.88   L 472.86 1168.62   A 0.90 0.89 7.7 0 0 473.52 1169.48   Q 620.76 1211.35 769.26 1172.99   Q 774.96 1171.52 777.64 1170.54   A 0.76 0.75 -9.8 0 0 778.13 1169.85   L 778.30 1152.62   A 0.76 0.76 0.0 0 0 777.54 1151.85   L 765.38 1151.85   A 0.81 0.80 90.0 0 1 764.58 1151.04   L 764.58 1118.81   A 0.40 0.40 0.0 0 0 764.18 1118.41   L 746.81 1118.41   A 0.24 0.24 0.0 0 1 746.57 1118.17   L 746.57 1096.24   A 0.88 0.88 0.0 0 0 745.69 1095.36   L 733.75 1095.36   A 0.72 0.71 0.0 0 1 733.03 1094.65   L 733.03 1078.75   A 1.19 1.18 -89.8 0 0 731.86 1077.56   L 719.71 1077.44   A 0.84 0.84 0.0 0 1 718.88 1076.60   L 718.88 1052.20   A 0.70 0.69 -0.0 0 0 718.18 1051.51   L 705.24 1051.51   A 0.46 0.45 -90.0 0 1 704.79 1051.05   L 704.79 1011.55   A 0.97 0.97 0.0 0 0 703.83 1010.58   L 693.60 1010.52   L 693.95 987.12   A 0.42 0.42 0.0 0 0 693.53 986.69   L 558.31 986.69   A 1.02 1.02 0.0 0 0 557.29 987.73   L 557.64 1010.20   Z   M 451.67 1031.55   L 434.12 1031.55   A 0.60 0.59 -90.0 0 0 433.53 1032.15   L 433.53 1048.99   A 0.59 0.59 0.0 0 1 432.94 1049.58   L 420.46 1049.58   A 0.78 0.78 0.0 0 0 419.68 1050.36   L 419.68 1064.72   A 0.39 0.39 0.0 0 1 419.29 1065.11   L 406.78 1065.11   A 0.66 0.66 0.0 0 0 406.12 1065.77   L 406.12 1079.72   A 0.75 0.75 0.0 0 0 406.87 1080.47   L 451.36 1080.47   A 0.63 0.63 0.0 0 1 451.99 1081.10   L 451.99 1091.21   A 0.87 0.86 0.3 0 0 452.85 1092.07   L 464.01 1092.19   A 0.52 0.52 0.0 0 1 464.53 1092.71   L 464.53 1104.07   A 0.78 0.78 0.0 0 0 465.31 1104.85   L 474.76 1104.85   A 0.65 0.64 -0.0 0 0 475.41 1104.21   L 475.41 1020.82   A 0.86 0.85 -81.1 0 1 476.52 1020.00   Q 477.69 1020.37 478.31 1019.93   A 0.59 0.57 74.0 0 0 478.57 1019.44   L 478.65 1011.57   A 1.06 1.06 0.0 0 0 477.59 1010.50   L 453.19 1010.50   A 0.89 0.89 0.0 0 0 452.30 1011.39   L 452.30 1030.92   A 0.63 0.63 0.0 0 1 451.67 1031.55   Z   M 772.52 1010.56   A 0.67 0.67 0.0 0 0 771.85 1011.25   L 772.03 1018.89   A 0.67 0.67 0.0 0 0 772.70 1019.55   L 774.10 1019.56   A 0.67 0.67 0.0 0 1 774.76 1020.23   L 774.76 1104.18   A 0.67 0.67 0.0 0 0 775.43 1104.85   L 785.82 1104.85   A 0.67 0.67 0.0 0 0 786.49 1104.19   L 786.59 1092.76   A 0.67 0.67 0.0 0 1 787.26 1092.10   L 798.10 1092.10   A 0.67 0.67 0.0 0 0 798.77 1091.43   L 798.77 1081.17   A 0.67 0.67 0.0 0 1 799.44 1080.50   L 844.13 1080.50   A 0.67 0.67 0.0 0 0 844.80 1079.83   L 844.80 1065.80   A 0.67 0.67 0.0 0 0 844.14 1065.13   L 831.94 1065.01   A 0.67 0.67 0.0 0 1 831.28 1064.34   L 831.28 1050.38   A 0.67 0.67 0.0 0 0 830.62 1049.71   L 818.27 1049.59   A 0.67 0.67 0.0 0 1 817.61 1048.92   L 817.61 1032.20   A 0.67 0.67 0.0 0 0 816.94 1031.53   L 799.42 1031.53   A 0.67 0.67 0.0 0 1 798.75 1030.86   L 798.75 1011.23   A 0.67 0.67 0.0 0 0 798.08 1010.56   L 772.52 1010.56   Z   M 391.20 1092.34   A 1.02 1.02 0.0 0 0 390.27 1093.36   L 390.27 1116.85   A 1.52 1.52 0.0 0 0 391.79 1118.37   L 413.44 1118.37   A 0.97 0.97 0.0 0 1 414.41 1119.35   L 414.26 1133.42   A 1.15 1.14 89.8 0 0 415.42 1134.58   Q 435.37 1134.21 458.48 1134.41   Q 461.48 1134.43 462.61 1134.08   A 1.13 1.13 0.0 0 0 463.40 1133.00   L 463.40 1106.49   A 0.93 0.92 0.3 0 0 462.48 1105.57   L 451.40 1105.46   A 0.68 0.68 0.0 0 1 450.73 1104.78   L 450.73 1093.69   A 1.49 1.48 -1.1 0 0 449.18 1092.21   Q 422.71 1093.21 394.75 1092.15   Q 393.82 1092.11 391.20 1092.34   Z   M 788.97 1105.37   A 1.30 1.29 90.0 0 0 787.68 1106.67   L 787.68 1133.43   A 1.08 1.08 0.0 0 0 788.76 1134.51   L 835.79 1134.51   A 0.85 0.84 -0.0 0 0 836.64 1133.67   L 836.64 1119.14   A 0.79 0.78 -88.3 0 1 837.47 1118.35   Q 845.98 1118.81 856.98 1118.57   Q 858.77 1118.53 860.03 1118.25   A 1.14 1.13 -7.6 0 0 860.92 1117.10   Q 860.64 1110.93 861.24 1103.59   C 861.49 1100.53 861.11 1097.18 860.87 1094.18   A 1.43 1.42 -88.2 0 0 859.65 1092.88   Q 852.97 1091.94 847.13 1092.55   C 839.46 1093.36 831.24 1092.34 823.43 1092.58   Q 811.04 1092.97 801.64 1092.42   A 1.36 1.35 -89.0 0 0 800.21 1093.81   L 800.47 1104.31   A 1.03 1.03 0.0 0 1 799.44 1105.37   L 788.97 1105.37   Z" />
<path id="path_009" d="   M 520.12 787.32   L 534.81 787.20   A 0.79 0.78 -0.0 0 1 535.60 787.98   L 535.59 830.75   A 0.60 0.59 -0.0 0 1 534.99 831.34   L 520.31 831.23   A 0.57 0.57 0.0 0 0 519.74 831.80   L 519.69 849.20   A 0.52 0.51 90.0 0 1 519.18 849.72   L 479.66 849.79   A 0.73 0.73 0.0 0 1 478.92 849.06   L 478.78 831.76   A 0.50 0.49 89.4 0 0 478.29 831.27   L 466.40 831.25   A 0.50 0.50 0.0 0 1 465.90 830.75   L 465.88 787.92   A 0.61 0.60 90.0 0 1 466.48 787.31   L 478.21 787.26   A 0.68 0.68 0.0 0 0 478.88 786.58   L 478.88 768.78   A 0.72 0.72 0.0 0 1 479.60 768.06   L 519.08 768.03   A 0.57 0.57 0.0 0 1 519.65 768.59   L 519.68 786.89   A 0.44 0.44 0.0 0 0 520.12 787.32   Z" />
<path id="path_010" d="   M 732.33 767.97   L 771.87 767.97   A 0.66 0.66 0.0 0 1 772.53 768.63   L 772.53 786.59   A 0.66 0.66 0.0 0 0 773.19 787.25   L 784.90 787.25   A 0.66 0.66 0.0 0 1 785.56 787.91   L 785.56 830.66   A 0.66 0.66 0.0 0 1 784.90 831.32   L 773.23 831.32   A 0.66 0.66 0.0 0 0 772.57 831.98   L 772.57 849.20   A 0.66 0.66 0.0 0 1 771.91 849.86   L 732.28 849.86   A 0.66 0.66 0.0 0 1 731.62 849.20   L 731.62 832.01   A 0.66 0.66 0.0 0 0 730.96 831.35   L 716.37 831.35   A 0.66 0.66 0.0 0 1 715.71 830.69   L 715.71 787.90   A 0.66 0.66 0.0 0 1 716.37 787.24   L 731.01 787.24   A 0.66 0.66 0.0 0 0 731.67 786.58   L 731.67 768.63   A 0.66 0.66 0.0 0 1 732.33 767.97   Z" />
<path id="path_013" d="   M 632.00 889.19   L 678.09 889.19   A 0.69 0.69 0.0 0 0 678.78 888.50   L 678.78 869.53   A 0.69 0.69 0.0 0 1 679.47 868.84   L 692.09 868.84   A 0.69 0.69 0.0 0 1 692.78 869.53   L 692.78 885.22   A 0.69 0.69 0.0 0 1 692.09 885.91   L 682.75 885.91   A 0.69 0.69 0.0 0 0 682.06 886.60   L 682.06 898.85   A 0.69 0.69 0.0 0 1 681.37 899.54   L 667.70 899.54   A 0.69 0.69 0.0 0 0 667.01 900.23   L 667.01 931.74   A 0.69 0.69 0.0 0 1 666.32 932.43   L 655.62 932.43   A 0.69 0.69 0.0 0 0 654.93 933.12   L 654.93 944.91   A 0.69 0.69 0.0 0 1 654.24 945.60   L 644.43 945.60   A 0.69 0.69 0.0 0 0 643.74 946.29   L 643.74 955.80   A 0.69 0.69 0.0 0 1 643.05 956.49   L 607.49 956.49   A 0.69 0.69 0.0 0 1 606.80 955.80   L 606.80 946.24   A 0.69 0.69 0.0 0 0 606.11 945.55   L 596.63 945.55   A 0.69 0.69 0.0 0 1 595.94 944.86   L 595.94 933.06   A 0.69 0.69 0.0 0 0 595.25 932.37   L 584.74 932.37   A 0.69 0.69 0.0 0 1 584.05 931.68   L 584.05 900.20   A 0.69 0.69 0.0 0 0 583.36 899.51   L 569.20 899.51   A 0.69 0.69 0.0 0 1 568.51 898.82   L 568.51 886.48   A 0.69 0.69 0.0 0 0 567.82 885.79   L 558.44 885.79   A 0.69 0.69 0.0 0 1 557.75 885.10   L 557.75 869.45   A 0.69 0.69 0.0 0 1 558.44 868.76   L 571.11 868.76   A 0.69 0.69 0.0 0 1 571.80 869.45   L 571.80 888.51   A 0.69 0.69 0.0 0 0 572.49 889.20   L 618.73 889.20   A 0.69 0.69 0.0 0 0 619.42 888.51   L 619.42 866.87   A 0.69 0.69 0.0 0 0 618.73 866.18   L 607.52 866.18   A 0.69 0.69 0.0 0 1 606.83 865.49   L 606.83 858.53   A 0.69 0.69 0.0 0 0 606.14 857.84   L 599.03 857.84   A 0.69 0.69 0.0 0 1 598.34 857.15   L 598.34 847.73   A 0.69 0.69 0.0 0 0 597.65 847.04   L 588.58 847.04   A 0.69 0.69 0.0 0 1 587.89 846.35   L 587.89 823.67   A 0.69 0.69 0.0 0 1 588.58 822.98   L 597.82 822.98   A 0.69 0.69 0.0 0 0 598.51 822.29   L 598.51 809.20   A 0.69 0.69 0.0 0 1 599.20 808.51   L 651.77 808.51   A 0.69 0.69 0.0 0 1 652.46 809.20   L 652.46 822.35   A 0.69 0.69 0.0 0 0 653.15 823.04   L 662.23 823.04   A 0.69 0.69 0.0 0 1 662.92 823.73   L 662.92 846.28   A 0.69 0.69 0.0 0 1 662.23 846.97   L 653.03 846.97   A 0.69 0.69 0.0 0 0 652.34 847.66   L 652.34 857.28   A 0.69 0.69 0.0 0 1 651.65 857.97   L 644.16 857.97   A 0.69 0.69 0.0 0 0 643.47 858.66   L 643.47 865.52   A 0.69 0.69 0.0 0 1 642.78 866.21   L 632.00 866.21   A 0.69 0.69 0.0 0 0 631.31 866.90   L 631.31 888.50   A 0.69 0.69 0.0 0 0 632.00 889.19   Z   M 600.88 835.73   L 601.09 844.35   A 0.80 0.80 0.0 0 0 601.89 845.13   L 607.25 845.13   A 0.95 0.94 -0.0 0 1 608.20 846.07   L 608.20 853.72   A 0.87 0.87 0.0 0 0 609.07 854.59   L 641.35 854.59   A 0.50 0.49 -90.0 0 0 641.84 854.09   L 641.84 845.73   A 0.52 0.52 0.0 0 1 642.36 845.21   L 649.07 845.21   A 0.75 0.74 0.0 0 0 649.82 844.47   L 649.82 824.62   A 0.73 0.72 -0.4 0 0 649.08 823.90   L 640.65 824.07   L 601.94 823.96   A 0.83 0.83 0.0 0 0 601.11 824.78   L 600.88 835.73   Z   M 599.47 918.28   L 599.47 930.52   A 0.95 0.95 0.0 0 0 600.42 931.47   L 607.69 931.47   A 0.78 0.78 0.0 0 1 608.47 932.25   L 608.47 943.71   A 0.72 0.72 0.0 0 0 609.19 944.43   L 641.71 944.43   A 0.67 0.67 0.0 0 0 642.38 943.76   L 642.38 932.41   A 0.80 0.79 90.0 0 1 643.17 931.61   L 650.83 931.61   A 0.69 0.69 0.0 0 0 651.52 930.91   L 651.36 917.99   L 651.91 901.80   A 1.09 1.09 0.0 0 0 650.82 900.67   L 600.05 900.67   A 0.65 0.65 0.0 0 0 599.40 901.33   L 599.47 918.28   Z" />
<path id="clean-smooth-border" fill-rule="evenodd" d="   M 627 0   A 627 627 0 1 1 627 1254   A 627 627 0 1 1 627 0   Z   M 627 66   A 561 561 0 1 0 627 1188   A 561 561 0 1 0 627 66   Z " />
</g></svg>